SplineFontDB: 3.0
FontName: Chivo-Italic
FullName: Chivo Italic
FamilyName: Chivo
Weight: Normal
Copyright: Copyright (c) 2011-2014 by Omnibus-Type (www.omnibus-type.com omnibus.type@gmail.com), with Reserved Font Name 'Chivo'
UComments: "Disclaimer+AAoA +AAoA-Omnibus-Type give no warranty in relation to this font, and you use this+AAoA-at your own risk.+AAoA +AAoA-Omnibus-Type shall not be liable for any direct, indirect, consequential, or incidental damages (including damages from loss of business profits, business interruption, loss of business information, and the like) arising out of the use of or inability to use the fonts.+AAoA +AAoA +AAoA-If you have further questions, please contact us:+AAoA-omnibus.type@gmail.com" 

StartChar: .notdef
Encoding: 65536 -1 0
Width: 500
Flags: MW
HStem: 0 50<80 420 80 500> 650 50<80 80 80 420>
VStem: 0 50<95 95 95 605> 450 50<95 605 605 605>
LayerCount: 2
Fore
SplineSet
500 0 m 1,0,-1
 0 0 l 1,1,-1
 0 700 l 1,2,-1
 500 700 l 1,3,-1
 500 0 l 1,0,-1
80 650 m 1,4,-1
 250 395 l 1,5,-1
 420 650 l 1,6,-1
 80 650 l 1,4,-1
50 95 m 1,7,-1
 220 350 l 1,8,-1
 50 605 l 1,9,-1
 50 95 l 1,7,-1
280 350 m 1,10,-1
 450 95 l 1,11,-1
 450 605 l 1,12,-1
 280 350 l 1,10,-1
80 50 m 1,13,-1
 420 50 l 1,14,-1
 250 305 l 1,15,-1
 80 50 l 1,13,-1
EndSplineSet
EndChar

StartChar: A
Encoding: 65 65 1
Width: 650
GlyphClass: 2
Flags: MW
HStem: 149 89<184 443 184 464 136 443> 568 118<357 357 357 363>
VStem: -36 643<0 0>
LayerCount: 2
Fore
SplineSet
607 0 m 1,0,-1
 501 0 l 1,1,-1
 464 149 l 1,2,-1
 136 149 l 1,3,-1
 58 0 l 1,4,-1
 -36 0 l 1,5,-1
 328 686 l 1,6,-1
 436 686 l 1,7,-1
 607 0 l 1,0,-1
357 568 m 1,8,-1
 184 238 l 1,9,-1
 443 238 l 1,10,-1
 363 568 l 1,11,-1
 357 568 l 1,8,-1
EndSplineSet
Substitution2: "Single Substitution lookup 5 subtable" ordfeminine
Substitution2: "'aalt' Access All Alternates lookup 0 subtable" ordfeminine
Position2: "'cpsp' Capital Spacing lookup 0 subtable" dx=5 dy=0 dh=10 dv=0
EndChar

StartChar: Aacute
Encoding: 193 193 2
Width: 650
GlyphClass: 2
Flags: MW
HStem: 149 89<184 443 184 464 136 443> 568 118<357 357 357 363> 750 145<350 555 350 555>
VStem: -36 643<0 0>
LayerCount: 2
Fore
SplineSet
555 891 m 1,0,-1
 419 750 l 1,1,-1
 350 750 l 1,2,-1
 465 895 l 1,3,-1
 555 895 l 1,4,-1
 555 891 l 1,0,-1
607 0 m 1,5,-1
 501 0 l 1,6,-1
 464 149 l 1,7,-1
 136 149 l 1,8,-1
 58 0 l 1,9,-1
 -36 0 l 1,10,-1
 328 686 l 1,11,-1
 436 686 l 1,12,-1
 607 0 l 1,5,-1
357 568 m 1,13,-1
 184 238 l 1,14,-1
 443 238 l 1,15,-1
 363 568 l 1,16,-1
 357 568 l 1,13,-1
EndSplineSet
Position2: "'cpsp' Capital Spacing lookup 0 subtable" dx=5 dy=0 dh=10 dv=0
EndChar

StartChar: Abreve
Encoding: 258 258 3
Width: 650
GlyphClass: 2
Flags: MW
HStem: 149 89<184 443 184 464 136 443> 568 118<357 357 357 363> 788 62<363.5 425.5 363.5 439>
VStem: -36 643<0 0>
LayerCount: 2
Fore
SplineSet
527 912 m 1,0,-1
 595 912 l 1,1,2
 589 868 589 868 526 828 c 128,-1,3
 463 788 463 788 388 788 c 0,4,5
 313 788 313 788 261 824.5 c 128,-1,6
 209 861 209 861 209 904 c 0,7,8
 209 910 209 910 210 912 c 1,9,-1
 277 912 l 1,10,11
 282 885 282 885 315 867.5 c 128,-1,12
 348 850 348 850 394.5 850 c 0,13,14
 441 850 441 850 478 867.5 c 128,-1,15
 515 885 515 885 527 912 c 1,0,-1
607 0 m 1,16,-1
 501 0 l 1,17,-1
 464 149 l 1,18,-1
 136 149 l 1,19,-1
 58 0 l 1,20,-1
 -36 0 l 1,21,-1
 328 686 l 1,22,-1
 436 686 l 1,23,-1
 607 0 l 1,16,-1
357 568 m 1,24,-1
 184 238 l 1,25,-1
 443 238 l 1,26,-1
 363 568 l 1,27,-1
 357 568 l 1,24,-1
EndSplineSet
EndChar

StartChar: Acircumflex
Encoding: 194 194 4
Width: 650
GlyphClass: 2
Flags: MW
HStem: 149 89<184 443 184 464 136 443> 568 118<357 357 357 363> 750 145<203 438 360 552 360 472>
VStem: -36 643<0 0>
LayerCount: 2
Fore
SplineSet
552 750 m 1,0,-1
 472 750 l 1,1,-1
 391 839 l 1,2,-1
 283 750 l 1,3,-1
 203 750 l 1,4,-1
 360 895 l 1,5,-1
 438 895 l 1,6,-1
 552 750 l 1,0,-1
607 0 m 1,7,-1
 501 0 l 1,8,-1
 464 149 l 1,9,-1
 136 149 l 1,10,-1
 58 0 l 1,11,-1
 -36 0 l 1,12,-1
 328 686 l 1,13,-1
 436 686 l 1,14,-1
 607 0 l 1,7,-1
357 568 m 1,15,-1
 184 238 l 1,16,-1
 443 238 l 1,17,-1
 363 568 l 1,18,-1
 357 568 l 1,15,-1
EndSplineSet
Position2: "'cpsp' Capital Spacing lookup 0 subtable" dx=5 dy=0 dh=10 dv=0
EndChar

StartChar: Adieresis
Encoding: 196 196 5
Width: 650
GlyphClass: 2
Flags: MW
HStem: 149 89<184 443 184 464 136 443> 568 118<357 357 357 363> 750 98<259 336 246 349 259 434 447 525>
VStem: -36 643<0 0>
LayerCount: 2
Fore
SplineSet
336 750 m 1,0,-1
 246 750 l 1,1,-1
 259 848 l 1,2,-1
 349 848 l 1,3,-1
 336 750 l 1,0,-1
525 750 m 1,4,-1
 434 750 l 1,5,-1
 447 848 l 1,6,-1
 538 848 l 1,7,-1
 525 750 l 1,4,-1
607 0 m 1,8,-1
 501 0 l 1,9,-1
 464 149 l 1,10,-1
 136 149 l 1,11,-1
 58 0 l 1,12,-1
 -36 0 l 1,13,-1
 328 686 l 1,14,-1
 436 686 l 1,15,-1
 607 0 l 1,8,-1
357 568 m 1,16,-1
 184 238 l 1,17,-1
 443 238 l 1,18,-1
 363 568 l 1,19,-1
 357 568 l 1,16,-1
EndSplineSet
Position2: "'cpsp' Capital Spacing lookup 0 subtable" dx=5 dy=0 dh=10 dv=0
EndChar

StartChar: Agrave
Encoding: 192 192 6
Width: 650
GlyphClass: 2
Flags: MW
HStem: 149 89<184 443 184 464 136 443> 568 118<357 357 357 363> 750 145<258 421 258 351>
VStem: -36 643<0 0>
LayerCount: 2
Fore
SplineSet
421 750 m 1,0,-1
 351 750 l 1,1,-1
 256 892 l 1,2,-1
 258 895 l 1,3,-1
 347 895 l 1,4,-1
 421 750 l 1,0,-1
607 0 m 1,5,-1
 501 0 l 1,6,-1
 464 149 l 1,7,-1
 136 149 l 1,8,-1
 58 0 l 1,9,-1
 -36 0 l 1,10,-1
 328 686 l 1,11,-1
 436 686 l 1,12,-1
 607 0 l 1,5,-1
357 568 m 1,13,-1
 184 238 l 1,14,-1
 443 238 l 1,15,-1
 363 568 l 1,16,-1
 357 568 l 1,13,-1
EndSplineSet
Position2: "'cpsp' Capital Spacing lookup 0 subtable" dx=5 dy=0 dh=10 dv=0
EndChar

StartChar: Amacron
Encoding: 256 256 7
Width: 650
GlyphClass: 2
Flags: MW
HStem: 149 89<184 443 184 464 136 443> 568 118<357 357 357 363> 837 74<248 555 237 566>
VStem: -36 643<0 0>
LayerCount: 2
Fore
SplineSet
555 837 m 1,0,-1
 237 837 l 1,1,-1
 248 911 l 1,2,-1
 566 911 l 1,3,-1
 555 837 l 1,0,-1
607 0 m 1,4,-1
 501 0 l 1,5,-1
 464 149 l 1,6,-1
 136 149 l 1,7,-1
 58 0 l 1,8,-1
 -36 0 l 1,9,-1
 328 686 l 1,10,-1
 436 686 l 1,11,-1
 607 0 l 1,4,-1
357 568 m 1,12,-1
 184 238 l 1,13,-1
 443 238 l 1,14,-1
 363 568 l 1,15,-1
 357 568 l 1,12,-1
EndSplineSet
EndChar

StartChar: Aogonek
Encoding: 260 260 8
Width: 650
GlyphClass: 2
Flags: MW
HStem: -143 47<557.5 567.5> 149 89<184 443 184 464 136 443> 568 118<357 363 357 357>
VStem: 464 63<-76.5 -63.5>
LayerCount: 2
Fore
SplineSet
636 -82 m 1,0,-1
 644 -119 l 1,1,2
 600.5 -143 600.5 -143 557.25 -143 c 0,3,4
 464 -143 464 -143 464 -83 c 0,5,6
 464 -39 464 -39 529 0 c 1,7,-1
 501 0 l 1,8,-1
 464 149 l 1,9,-1
 136 149 l 1,10,-1
 58 0 l 1,11,-1
 -36 0 l 1,12,-1
 328 686 l 1,13,-1
 436 686 l 1,14,-1
 607 0 l 1,15,-1
 583 0 l 1,16,17
 562 -9 562 -9 544.5 -28 c 128,-1,18
 527 -47 527 -47 527 -65 c 0,19,20
 527 -96 527 -96 567 -96 c 0,21,22
 590 -96 590 -96 636 -82 c 1,0,-1
443 238 m 1,23,-1
 363 568 l 1,24,-1
 357 568 l 1,25,-1
 184 238 l 1,26,-1
 443 238 l 1,23,-1
EndSplineSet
EndChar

StartChar: Aring
Encoding: 197 197 9
Width: 650
GlyphClass: 2
Flags: MW
HStem: 149 89<184 443 184 464 136 443> 568 118<357 357 357 363> 720 41<374 405.5 374 415> 881 41<381 413>
VStem: 291 45<801.5 835.5 801.5 846> 451 45<807 840.5>
LayerCount: 2
Fore
SplineSet
324 891 m 128,-1,1
 357 922 357 922 399.5 922 c 128,-1,2
 442 922 442 922 469 895.5 c 128,-1,3
 496 869 496 869 496 826.5 c 128,-1,4
 496 784 496 784 463 752 c 128,-1,5
 430 720 430 720 387.5 720 c 128,-1,6
 345 720 345 720 318 746 c 128,-1,7
 291 772 291 772 291 816 c 128,-1,0
 291 860 291 860 324 891 c 128,-1,1
436 865 m 128,-1,9
 421 881 421 881 396.5 881 c 128,-1,10
 372 881 372 881 354 862.5 c 128,-1,11
 336 844 336 844 336 818.5 c 128,-1,12
 336 793 336 793 351 777 c 128,-1,13
 366 761 366 761 390 761 c 128,-1,14
 414 761 414 761 432.5 780 c 128,-1,15
 451 799 451 799 451 824 c 128,-1,8
 451 849 451 849 436 865 c 128,-1,9
607 0 m 1,16,-1
 501 0 l 1,17,-1
 464 149 l 1,18,-1
 136 149 l 1,19,-1
 58 0 l 1,20,-1
 -36 0 l 1,21,-1
 328 686 l 1,22,-1
 436 686 l 1,23,-1
 607 0 l 1,16,-1
357 568 m 1,24,-1
 184 238 l 1,25,-1
 443 238 l 1,26,-1
 363 568 l 1,27,-1
 357 568 l 1,24,-1
EndSplineSet
Position2: "'cpsp' Capital Spacing lookup 0 subtable" dx=5 dy=0 dh=10 dv=0
EndChar

StartChar: Atilde
Encoding: 195 195 10
Width: 650
GlyphClass: 2
Flags: MW
HStem: 149 89<184 443 184 464 136 443> 568 118<357 357 357 363> 750 69<449.5 491 449.5 498> 784 70<280 322>
VStem: -36 643<0 0>
LayerCount: 2
Fore
SplineSet
536 854 m 1,0,-1
 586 854 l 1,1,2
 579 813 579 813 546 781.5 c 128,-1,3
 513 750 513 750 459 750 c 0,4,5
 426 750 426 750 373.5 767 c 128,-1,6
 321 784 321 784 295 784 c 0,7,8
 250 784 250 784 235 750 c 1,9,-1
 187 750 l 1,10,11
 194 790 194 790 227 822 c 128,-1,12
 260 854 260 854 313 854 c 0,13,14
 346 854 346 854 398.5 836.5 c 128,-1,15
 451 819 451 819 476 819 c 0,16,17
 521 819 521 819 536 854 c 1,0,-1
607 0 m 1,18,-1
 501 0 l 1,19,-1
 464 149 l 1,20,-1
 136 149 l 1,21,-1
 58 0 l 1,22,-1
 -36 0 l 1,23,-1
 328 686 l 1,24,-1
 436 686 l 1,25,-1
 607 0 l 1,18,-1
357 568 m 1,26,-1
 184 238 l 1,27,-1
 443 238 l 1,28,-1
 363 568 l 1,29,-1
 357 568 l 1,26,-1
EndSplineSet
Position2: "'cpsp' Capital Spacing lookup 0 subtable" dx=5 dy=0 dh=10 dv=0
EndChar

StartChar: AE
Encoding: 198 198 11
Width: 981
GlyphClass: 2
Flags: MW
HStem: 0 89<598 896 598 896> 149 89<219 478 219 486 158 478> 306 89<574 888 574 574> 597 89<543 961 543 543>
VStem: -33 1020<0 686>
LayerCount: 2
Fore
SplineSet
961 597 m 1,0,-1
 543 597 l 1,1,-1
 565 395 l 1,2,-1
 901 395 l 1,3,-1
 888 306 l 1,4,-1
 574 306 l 1,5,-1
 598 89 l 1,6,-1
 896 89 l 1,7,-1
 896 0 l 1,8,-1
 502 0 l 1,9,-1
 486 149 l 1,10,-1
 158 149 l 1,11,-1
 59 0 l 1,12,-1
 -33 0 l 1,13,-1
 426 686 l 1,14,-1
 987 686 l 1,15,-1
 961 597 l 1,0,-1
438 568 m 1,16,-1
 219 238 l 1,17,-1
 478 238 l 1,18,-1
 444 568 l 1,19,-1
 438 568 l 1,16,-1
EndSplineSet
Position2: "'cpsp' Capital Spacing lookup 0 subtable" dx=5 dy=0 dh=10 dv=0
EndChar

StartChar: B
Encoding: 66 66 12
Width: 652
GlyphClass: 2
Flags: MW
HStem: 0 89<162 358 358 361> 305 89<192 391 205 388> 597 89<233 233 233 419>
VStem: 482 97<170.5 238.5> 508 101<481 541>
LayerCount: 2
Fore
SplineSet
148 686 m 1,0,-1
 440 686 l 2,1,2
 514 686 514 686 561.5 646.5 c 128,-1,3
 609 607 609 607 609 534 c 0,4,5
 609 461 609 461 566 417 c 128,-1,6
 523 373 523 373 466 358 c 1,7,-1
 465 353 l 1,8,9
 509 345 509 345 544 312.5 c 128,-1,10
 579 280 579 280 579 214 c 0,11,12
 579 117 579 117 515.5 58.5 c 128,-1,13
 452 0 452 0 361 0 c 2,14,-1
 51 0 l 1,15,-1
 148 686 l 1,0,-1
233 597 m 1,16,-1
 205 394 l 1,17,-1
 391 394 l 2,18,19
 437 394 437 394 472.5 428.5 c 128,-1,20
 508 463 508 463 508 509 c 0,21,22
 508 597 508 597 419 597 c 2,23,-1
 233 597 l 1,16,-1
192 305 m 1,24,-1
 162 89 l 1,25,-1
 358 89 l 2,26,27
 410 89 410 89 446 121 c 128,-1,28
 482 153 482 153 482 212 c 0,29,30
 482 252 482 252 456 278.5 c 128,-1,31
 430 305 430 305 388 305 c 2,32,-1
 192 305 l 1,24,-1
EndSplineSet
Position2: "'cpsp' Capital Spacing lookup 0 subtable" dx=5 dy=0 dh=10 dv=0
EndChar

StartChar: C
Encoding: 67 67 13
Width: 662
GlyphClass: 2
Flags: MW
HStem: -10 89<265 362.5 265 380> 607 89<333.5 430.5>
VStem: 57 99<183.5 242.5> 532 99<468.5 515.5>
AnchorPoint: "Bottom" 331 0 basechar 0
LayerCount: 2
Fore
SplineSet
400 696 m 0,0,1
 504 696 504 696 567.5 640 c 128,-1,2
 631 584 631 584 631 477 c 0,3,4
 631 448 631 448 627 423 c 1,5,-1
 529 423 l 1,6,7
 532 445 532 445 532 466 c 0,8,9
 532 537 532 537 493.5 572 c 128,-1,10
 455 607 455 607 388 607 c 0,11,12
 302 607 302 607 245.5 553.5 c 128,-1,13
 189 500 189 500 172.5 386 c 0,14,15
 156 272 156 272 156 241 c 0,16,17
 156 79 156 79 313 79 c 0,18,19
 391 79 391 79 444 124.5 c 128,-1,20
 497 170 497 170 510 261 c 1,21,-1
 604 261 l 1,22,23
 584 125 584 125 504 57.5 c 128,-1,24
 424 -10 424 -10 306.5 -10 c 0,25,26
 189 -10 189 -10 123 51.5 c 128,-1,27
 57 113 57 113 57 232 c 0,28,29
 57 268 57 268 75 388 c 0,30,31
 97 542 97 542 181.5 619 c 128,-1,32
 266 696 266 696 400 696 c 0,0,1
EndSplineSet
Position2: "'cpsp' Capital Spacing lookup 0 subtable" dx=5 dy=0 dh=10 dv=0
EndChar

StartChar: Cacute
Encoding: 262 262 14
Width: 662
GlyphClass: 2
Flags: MW
HStem: -10 89<265 362.5 265 380> 607 89<333.5 430.5> 750 145<318 523 318 523>
VStem: 57 99<183.5 242.5> 532 99<468.5 515.5>
AnchorPoint: "Bottom" 331 0 basechar 0
LayerCount: 2
Fore
SplineSet
523 891 m 1,0,-1
 387 750 l 1,1,-1
 318 750 l 1,2,-1
 433 895 l 1,3,-1
 523 895 l 1,4,-1
 523 891 l 1,0,-1
400 696 m 0,5,6
 504 696 504 696 567.5 640 c 128,-1,7
 631 584 631 584 631 477 c 0,8,9
 631 448 631 448 627 423 c 1,10,-1
 529 423 l 1,11,12
 532 445 532 445 532 466 c 0,13,14
 532 537 532 537 493.5 572 c 128,-1,15
 455 607 455 607 388 607 c 0,16,17
 302 607 302 607 245.5 553.5 c 128,-1,18
 189 500 189 500 172.5 386 c 0,19,20
 156 272 156 272 156 241 c 0,21,22
 156 79 156 79 313 79 c 0,23,24
 391 79 391 79 444 124.5 c 128,-1,25
 497 170 497 170 510 261 c 1,26,-1
 604 261 l 1,27,28
 584 125 584 125 504 57.5 c 128,-1,29
 424 -10 424 -10 306.5 -10 c 0,30,31
 189 -10 189 -10 123 51.5 c 128,-1,32
 57 113 57 113 57 232 c 0,33,34
 57 268 57 268 75 388 c 0,35,36
 97 542 97 542 181.5 619 c 128,-1,37
 266 696 266 696 400 696 c 0,5,6
EndSplineSet
EndChar

StartChar: Ccaron
Encoding: 268 268 15
Width: 662
GlyphClass: 2
Flags: MW
HStem: -10 89<265 362.5 265 380> 607 89<333.5 430.5> 750 145<226 419 226 341>
VStem: 57 99<183.5 242.5> 532 99<468.5 515.5>
AnchorPoint: "Bottom" 331 0 basechar 0
LayerCount: 2
Fore
SplineSet
419 750 m 1,0,-1
 341 750 l 1,1,-1
 226 895 l 1,2,-1
 306 895 l 1,3,-1
 388 806 l 1,4,-1
 495 895 l 1,5,-1
 575 895 l 1,6,-1
 419 750 l 1,0,-1
400 696 m 0,7,8
 504 696 504 696 567.5 640 c 128,-1,9
 631 584 631 584 631 477 c 0,10,11
 631 448 631 448 627 423 c 1,12,-1
 529 423 l 1,13,14
 532 445 532 445 532 466 c 0,15,16
 532 537 532 537 493.5 572 c 128,-1,17
 455 607 455 607 388 607 c 0,18,19
 302 607 302 607 245.5 553.5 c 128,-1,20
 189 500 189 500 172.5 386 c 0,21,22
 156 272 156 272 156 241 c 0,23,24
 156 79 156 79 313 79 c 0,25,26
 391 79 391 79 444 124.5 c 128,-1,27
 497 170 497 170 510 261 c 1,28,-1
 604 261 l 1,29,30
 584 125 584 125 504 57.5 c 128,-1,31
 424 -10 424 -10 306.5 -10 c 0,32,33
 189 -10 189 -10 123 51.5 c 128,-1,34
 57 113 57 113 57 232 c 0,35,36
 57 268 57 268 75 388 c 0,37,38
 97 542 97 542 181.5 619 c 128,-1,39
 266 696 266 696 400 696 c 0,7,8
EndSplineSet
EndChar

StartChar: Ccedilla
Encoding: 199 199 16
Width: 662
GlyphClass: 2
Flags: MW
HStem: -197 51<238 273 235.5 277> -60 43<259 274 253 283> -10 89<265 362.5 265 380> 607 89<333.5 430.5>
VStem: 57 99<183.5 242.5> 320 63<-113 -83.5> 532 99<468.5 515.5>
LayerCount: 2
Fore
SplineSet
400 696 m 0,0,1
 504 696 504 696 567.5 640 c 128,-1,2
 631 584 631 584 631 477 c 0,3,4
 631 448 631 448 627 423 c 1,5,-1
 529 423 l 1,6,7
 532 445 532 445 532 466 c 0,8,9
 532 537 532 537 493.5 572 c 128,-1,10
 455 607 455 607 388 607 c 0,11,12
 302 607 302 607 245.5 553.5 c 128,-1,13
 189 500 189 500 172.5 386 c 128,-1,14
 156 272 156 272 156 241 c 0,15,16
 156 79 156 79 313 79 c 0,17,18
 391 79 391 79 444 124.5 c 128,-1,19
 497 170 497 170 510 261 c 1,20,-1
 604 261 l 1,21,22
 584 125 584 125 504 57.5 c 128,-1,23
 424 -10 424 -10 306.5 -10 c 128,-1,24
 189 -10 189 -10 123 51.5 c 128,-1,25
 57 113 57 113 57 232 c 0,26,27
 57 268 57 268 75 388 c 0,28,29
 97 542 97 542 181.5 619 c 128,-1,30
 266 696 266 696 400 696 c 0,0,1
259 -17 m 1,31,-1
 283 -17 l 2,32,33
 383 -17 383 -17 383 -90 c 0,34,35
 383 -130 383 -130 359 -155.5 c 0,36,37
 319.941176471 -197 319.941176471 -197 259.470588235 -197 c 128,-1,38
 199 -197 199 -197 162 -175 c 1,39,-1
 178 -126 l 1,40,41
 214 -146 214 -146 248.5 -146 c 0,42,43
 320 -146 320 -146 320 -95 c 0,44,45
 320 -60 320 -60 274 -60 c 2,46,-1
 253 -60 l 1,47,-1
 259 -17 l 1,31,-1
EndSplineSet
Position2: "'cpsp' Capital Spacing lookup 0 subtable" dx=5 dy=0 dh=10 dv=0
EndChar

StartChar: D
Encoding: 68 68 17
Width: 677
GlyphClass: 2
Flags: MW
HStem: 0 89<162 289> 597 89<233 233 233 373>
VStem: 532 99<431.5 490>
LayerCount: 2
Fore
SplineSet
148 686 m 1,0,-1
 386 686 l 2,1,2
 496 686 496 686 563.5 623.5 c 128,-1,3
 631 561 631 561 631 442 c 0,4,5
 631 419 631 419 618 308 c 0,6,7
 600 155 600 155 514 77.5 c 128,-1,8
 428 0 428 0 289 0 c 2,9,-1
 51 0 l 1,10,-1
 148 686 l 1,0,-1
233 597 m 1,11,-1
 162 89 l 1,12,-1
 302 89 l 2,13,14
 387 89 387 89 445.5 143 c 128,-1,15
 504 197 504 197 518 305 c 0,16,17
 532 413 532 413 532 432 c 0,18,19
 532 516 532 516 489.5 556.5 c 128,-1,20
 447 597 447 597 373 597 c 2,21,-1
 233 597 l 1,11,-1
EndSplineSet
Position2: "'cpsp' Capital Spacing lookup 0 subtable" dx=5 dy=0 dh=10 dv=0
EndChar

StartChar: Eth
Encoding: 208 208 18
Width: 682
GlyphClass: 2
Flags: MW
HStem: 0 89<167 294> 310 65<18 100 10 109 207 343> 597 89<238 238 238 378>
VStem: 537 99<431.5 490>
LayerCount: 2
Fore
SplineSet
153 686 m 1,0,-1
 391 686 l 2,1,2
 501 686 501 686 568.5 623.5 c 128,-1,3
 636 561 636 561 636 442 c 0,4,5
 636 419 636 419 623 308 c 0,6,7
 605 155 605 155 519 77.5 c 128,-1,8
 433 0 433 0 294 0 c 2,9,-1
 56 0 l 1,10,-1
 100 310 l 1,11,-1
 10 310 l 1,12,-1
 18 375 l 1,13,-1
 109 375 l 1,14,-1
 153 686 l 1,0,-1
238 597 m 1,15,-1
 207 375 l 1,16,-1
 352 375 l 1,17,-1
 343 310 l 1,18,-1
 198 310 l 1,19,-1
 167 89 l 1,20,-1
 307 89 l 2,21,22
 392 89 392 89 450.5 143 c 128,-1,23
 509 197 509 197 523 305 c 0,24,25
 537 413 537 413 537 432 c 0,26,27
 537 516 537 516 494.5 556.5 c 128,-1,28
 452 597 452 597 378 597 c 2,29,-1
 238 597 l 1,15,-1
EndSplineSet
Position2: "'cpsp' Capital Spacing lookup 0 subtable" dx=5 dy=0 dh=10 dv=0
EndChar

StartChar: Dcaron
Encoding: 270 270 19
Width: 677
GlyphClass: 2
Flags: MW
HStem: 0 89<162 289> 597 89<233 233 233 373> 750 145<184 377 184 299>
VStem: 532 99<431.5 490>
LayerCount: 2
Fore
SplineSet
377 750 m 1,0,-1
 299 750 l 1,1,-1
 184 895 l 1,2,-1
 264 895 l 1,3,-1
 346 806 l 1,4,-1
 453 895 l 1,5,-1
 533 895 l 1,6,-1
 377 750 l 1,0,-1
148 686 m 1,7,-1
 386 686 l 2,8,9
 496 686 496 686 563.5 623.5 c 128,-1,10
 631 561 631 561 631 442 c 0,11,12
 631 419 631 419 618 308 c 0,13,14
 600 155 600 155 514 77.5 c 128,-1,15
 428 0 428 0 289 0 c 2,16,-1
 51 0 l 1,17,-1
 148 686 l 1,7,-1
233 597 m 1,18,-1
 162 89 l 1,19,-1
 302 89 l 2,20,21
 387 89 387 89 445.5 143 c 128,-1,22
 504 197 504 197 518 305 c 0,23,24
 532 413 532 413 532 432 c 0,25,26
 532 516 532 516 489.5 556.5 c 128,-1,27
 447 597 447 597 373 597 c 2,28,-1
 233 597 l 1,18,-1
EndSplineSet
EndChar

StartChar: Dcroat
Encoding: 272 272 20
Width: 682
GlyphClass: 2
Flags: MW
HStem: 0 89<167 294> 310 65<18 100 10 109 207 343> 597 89<238 238 238 378>
VStem: 537 99<431.5 490>
LayerCount: 2
Fore
SplineSet
153 686 m 1,0,-1
 391 686 l 2,1,2
 501 686 501 686 568.5 623.5 c 128,-1,3
 636 561 636 561 636 442 c 0,4,5
 636 419 636 419 623 308 c 0,6,7
 605 155 605 155 519 77.5 c 128,-1,8
 433 0 433 0 294 0 c 2,9,-1
 56 0 l 1,10,-1
 100 310 l 1,11,-1
 10 310 l 1,12,-1
 18 375 l 1,13,-1
 109 375 l 1,14,-1
 153 686 l 1,0,-1
238 597 m 1,15,-1
 207 375 l 1,16,-1
 352 375 l 1,17,-1
 343 310 l 1,18,-1
 198 310 l 1,19,-1
 167 89 l 1,20,-1
 307 89 l 2,21,22
 392 89 392 89 450.5 143 c 128,-1,23
 509 197 509 197 523 305 c 0,24,25
 537 413 537 413 537 432 c 0,26,27
 537 516 537 516 494.5 556.5 c 128,-1,28
 452 597 452 597 378 597 c 2,29,-1
 238 597 l 1,15,-1
EndSplineSet
EndChar

StartChar: E
Encoding: 69 69 21
Width: 592
GlyphClass: 2
Flags: MW
HStem: 0 89<162 507 162 507> 306 89<205 499 192 512> 597 89<233 572 233 233>
VStem: 51 547
AnchorPoint: "Bottom" 296 0 basechar 0
LayerCount: 2
Fore
SplineSet
572 597 m 1,0,-1
 233 597 l 1,1,-1
 205 395 l 1,2,-1
 512 395 l 1,3,-1
 499 306 l 1,4,-1
 192 306 l 1,5,-1
 162 89 l 1,6,-1
 507 89 l 1,7,-1
 507 0 l 1,8,-1
 51 0 l 1,9,-1
 148 686 l 1,10,-1
 598 686 l 1,11,-1
 572 597 l 1,0,-1
EndSplineSet
Position2: "'cpsp' Capital Spacing lookup 0 subtable" dx=5 dy=0 dh=10 dv=0
EndChar

StartChar: Eacute
Encoding: 201 201 22
Width: 592
GlyphClass: 2
Flags: MW
HStem: 0 89<162 507 162 507> 306 89<205 499 192 512> 597 89<233 572 233 233> 750 145<333 538 333 538>
VStem: 51 547
LayerCount: 2
Fore
SplineSet
538 891 m 1,0,-1
 402 750 l 1,1,-1
 333 750 l 1,2,-1
 448 895 l 1,3,-1
 538 895 l 1,4,-1
 538 891 l 1,0,-1
572 597 m 1,5,-1
 233 597 l 1,6,-1
 205 395 l 1,7,-1
 512 395 l 1,8,-1
 499 306 l 1,9,-1
 192 306 l 1,10,-1
 162 89 l 1,11,-1
 507 89 l 1,12,-1
 507 0 l 1,13,-1
 51 0 l 1,14,-1
 148 686 l 1,15,-1
 598 686 l 1,16,-1
 572 597 l 1,5,-1
EndSplineSet
Position2: "'cpsp' Capital Spacing lookup 0 subtable" dx=5 dy=0 dh=10 dv=0
EndChar

StartChar: Ecaron
Encoding: 282 282 23
Width: 592
GlyphClass: 2
Flags: MW
HStem: 0 89<162 507 162 507> 306 89<205 499 192 512> 597 89<233 572 233 233> 750 145<201 394 201 316>
VStem: 51 547
AnchorPoint: "Bottom" 296 0 basechar 0
LayerCount: 2
Fore
SplineSet
394 750 m 1,0,-1
 316 750 l 1,1,-1
 201 895 l 1,2,-1
 281 895 l 1,3,-1
 363 806 l 1,4,-1
 470 895 l 1,5,-1
 550 895 l 1,6,-1
 394 750 l 1,0,-1
572 597 m 1,7,-1
 233 597 l 1,8,-1
 205 395 l 1,9,-1
 512 395 l 1,10,-1
 499 306 l 1,11,-1
 192 306 l 1,12,-1
 162 89 l 1,13,-1
 507 89 l 1,14,-1
 507 0 l 1,15,-1
 51 0 l 1,16,-1
 148 686 l 1,17,-1
 598 686 l 1,18,-1
 572 597 l 1,7,-1
EndSplineSet
EndChar

StartChar: Ecircumflex
Encoding: 202 202 24
Width: 592
GlyphClass: 2
Flags: MW
HStem: 0 89<162 507 162 507> 306 89<205 499 192 512> 597 89<233 572 233 233> 750 145<205 440 362 554 362 474>
VStem: 51 547
LayerCount: 2
Fore
SplineSet
554 750 m 1,0,-1
 474 750 l 1,1,-1
 393 839 l 1,2,-1
 285 750 l 1,3,-1
 205 750 l 1,4,-1
 362 895 l 1,5,-1
 440 895 l 1,6,-1
 554 750 l 1,0,-1
572 597 m 1,7,-1
 233 597 l 1,8,-1
 205 395 l 1,9,-1
 512 395 l 1,10,-1
 499 306 l 1,11,-1
 192 306 l 1,12,-1
 162 89 l 1,13,-1
 507 89 l 1,14,-1
 507 0 l 1,15,-1
 51 0 l 1,16,-1
 148 686 l 1,17,-1
 598 686 l 1,18,-1
 572 597 l 1,7,-1
EndSplineSet
Position2: "'cpsp' Capital Spacing lookup 0 subtable" dx=5 dy=0 dh=10 dv=0
EndChar

StartChar: Edieresis
Encoding: 203 203 25
Width: 592
GlyphClass: 2
Flags: MW
HStem: 0 89<162 507 162 507> 306 89<205 499 192 512> 597 89<233 572 233 233> 750 98<250 327 237 340 250 425 438 516>
VStem: 51 547
LayerCount: 2
Fore
SplineSet
327 750 m 1,0,-1
 237 750 l 1,1,-1
 250 848 l 1,2,-1
 340 848 l 1,3,-1
 327 750 l 1,0,-1
516 750 m 1,4,-1
 425 750 l 1,5,-1
 438 848 l 1,6,-1
 529 848 l 1,7,-1
 516 750 l 1,4,-1
572 597 m 1,8,-1
 233 597 l 1,9,-1
 205 395 l 1,10,-1
 512 395 l 1,11,-1
 499 306 l 1,12,-1
 192 306 l 1,13,-1
 162 89 l 1,14,-1
 507 89 l 1,15,-1
 507 0 l 1,16,-1
 51 0 l 1,17,-1
 148 686 l 1,18,-1
 598 686 l 1,19,-1
 572 597 l 1,8,-1
EndSplineSet
Position2: "'cpsp' Capital Spacing lookup 0 subtable" dx=5 dy=0 dh=10 dv=0
EndChar

StartChar: Edotaccent
Encoding: 278 278 26
Width: 592
GlyphClass: 2
Flags: MW
HStem: 0 89<162 507 162 507> 306 89<205 499 192 512> 597 89<233 572 233 233> 779 132<360.5 386.5>
VStem: 309 133<832.5 854.5>
AnchorPoint: "Bottom" 296 0 basechar 0
LayerCount: 2
Fore
SplineSet
329.5 888.5 m 128,-1,1
 350 911 350 911 380 911 c 128,-1,2
 410 911 410 911 426 894 c 128,-1,3
 442 877 442 877 442 849.5 c 128,-1,4
 442 822 442 822 419.5 800.5 c 128,-1,5
 397 779 397 779 369 779 c 128,-1,6
 341 779 341 779 325 794.5 c 128,-1,7
 309 810 309 810 309 838 c 128,-1,0
 309 866 309 866 329.5 888.5 c 128,-1,1
572 597 m 1,8,-1
 233 597 l 1,9,-1
 205 395 l 1,10,-1
 512 395 l 1,11,-1
 499 306 l 1,12,-1
 192 306 l 1,13,-1
 162 89 l 1,14,-1
 507 89 l 1,15,-1
 507 0 l 1,16,-1
 51 0 l 1,17,-1
 148 686 l 1,18,-1
 598 686 l 1,19,-1
 572 597 l 1,8,-1
EndSplineSet
EndChar

StartChar: Egrave
Encoding: 200 200 27
Width: 592
GlyphClass: 2
Flags: MW
HStem: 0 89<162 507 162 507> 306 89<205 499 192 512> 597 89<233 572 233 233> 750 145<258 421 258 351>
VStem: 51 547
LayerCount: 2
Fore
SplineSet
421 750 m 1,0,-1
 351 750 l 1,1,-1
 256 892 l 1,2,-1
 258 895 l 1,3,-1
 347 895 l 1,4,-1
 421 750 l 1,0,-1
572 597 m 1,5,-1
 233 597 l 1,6,-1
 205 395 l 1,7,-1
 512 395 l 1,8,-1
 499 306 l 1,9,-1
 192 306 l 1,10,-1
 162 89 l 1,11,-1
 507 89 l 1,12,-1
 507 0 l 1,13,-1
 51 0 l 1,14,-1
 148 686 l 1,15,-1
 598 686 l 1,16,-1
 572 597 l 1,5,-1
EndSplineSet
Position2: "'cpsp' Capital Spacing lookup 0 subtable" dx=5 dy=0 dh=10 dv=0
EndChar

StartChar: Emacron
Encoding: 274 274 28
Width: 592
GlyphClass: 2
Flags: MW
HStem: 0 89<162 507 162 507> 306 89<205 499 192 512> 597 89<233 572 233 233> 837 74<222 529 211 540>
VStem: 51 547
AnchorPoint: "Bottom" 296 0 basechar 0
LayerCount: 2
Fore
SplineSet
529 837 m 1,0,-1
 211 837 l 1,1,-1
 222 911 l 1,2,-1
 540 911 l 1,3,-1
 529 837 l 1,0,-1
572 597 m 1,4,-1
 233 597 l 1,5,-1
 205 395 l 1,6,-1
 512 395 l 1,7,-1
 499 306 l 1,8,-1
 192 306 l 1,9,-1
 162 89 l 1,10,-1
 507 89 l 1,11,-1
 507 0 l 1,12,-1
 51 0 l 1,13,-1
 148 686 l 1,14,-1
 598 686 l 1,15,-1
 572 597 l 1,4,-1
EndSplineSet
EndChar

StartChar: Eogonek
Encoding: 280 280 29
Width: 592
GlyphClass: 2
Flags: MW
HStem: -143 47<475.5 485.5> 0 89<162 447 501 507 501 501> 306 89<205 499 192 512> 597 89<233 233 233 572>
VStem: 382 63<-76.5 -63.5> 447 60<0 89>
AnchorPoint: "Bottom" 296 0 basechar 0
LayerCount: 2
Fore
SplineSet
233 597 m 1,0,-1
 205 395 l 1,1,-1
 512 395 l 1,2,-1
 499 306 l 1,3,-1
 192 306 l 1,4,-1
 162 89 l 1,5,-1
 507 89 l 1,6,-1
 507 0 l 1,7,-1
 501 0 l 1,8,9
 480 -9 480 -9 462.5 -28 c 128,-1,10
 445 -47 445 -47 445 -65 c 0,11,12
 445 -96 445 -96 485 -96 c 0,13,14
 508 -96 508 -96 554 -82 c 1,15,-1
 562 -119 l 1,16,17
 518.5 -143 518.5 -143 475.25 -143 c 0,18,19
 382 -143 382 -143 382 -83 c 0,20,21
 382 -39 382 -39 447 0 c 1,22,-1
 51 0 l 1,23,-1
 148 686 l 1,24,-1
 598 686 l 1,25,-1
 572 597 l 1,26,-1
 233 597 l 1,0,-1
EndSplineSet
EndChar

StartChar: F
Encoding: 70 70 30
Width: 552
GlyphClass: 2
Flags: MW
HStem: 299 89<204 471 191 484> 597 89<233 554 233 233>
VStem: 51 529
LayerCount: 2
Fore
SplineSet
554 597 m 1,0,-1
 233 597 l 1,1,-1
 204 388 l 1,2,-1
 484 388 l 1,3,-1
 471 299 l 1,4,-1
 191 299 l 1,5,-1
 149 0 l 1,6,-1
 51 0 l 1,7,-1
 148 686 l 1,8,-1
 580 686 l 1,9,-1
 554 597 l 1,0,-1
EndSplineSet
Position2: "'cpsp' Capital Spacing lookup 0 subtable" dx=5 dy=0 dh=10 dv=0
EndChar

StartChar: G
Encoding: 71 71 31
Width: 675
GlyphClass: 2
Flags: MW
HStem: -10 89<265 341.5> 274 88<326 508 314 616> 607 89<333.5 429.5>
VStem: 57 99<183.5 242.5> 505 66 532 99<481.5 523.5>
AnchorPoint: "Bottom" 338 0 basechar 0
LayerCount: 2
Fore
SplineSet
400 696 m 0,0,1
 502 696 502 696 566.5 642.5 c 128,-1,2
 631 589 631 589 631 489 c 0,3,4
 631 468 631 468 628 445 c 1,5,-1
 530 445 l 1,6,7
 532 467 532 467 532 478 c 0,8,9
 532 543 532 543 493 575 c 128,-1,10
 454 607 454 607 388 607 c 0,11,12
 302 607 302 607 245.5 553.5 c 128,-1,13
 189 500 189 500 172.5 386 c 0,14,15
 156 272 156 272 156 241 c 0,16,17
 156 79 156 79 313 79 c 0,18,19
 400 79 400 79 445.5 122 c 128,-1,20
 491 165 491 165 506 261 c 2,21,-1
 508 274 l 1,22,-1
 314 274 l 1,23,-1
 326 362 l 1,24,-1
 616 362 l 1,25,-1
 583 128 l 1,26,27
 571 60 571 60 571 0 c 1,28,-1
 513 0 l 1,29,30
 506 18 506 18 505 82 c 1,31,32
 427 -10 427 -10 308 -10 c 0,33,34
 189 -10 189 -10 123 51.5 c 128,-1,35
 57 113 57 113 57 232 c 0,36,37
 57 268 57 268 75 388 c 0,38,39
 97 542 97 542 180.5 619 c 128,-1,40
 264 696 264 696 400 696 c 0,0,1
EndSplineSet
Position2: "'cpsp' Capital Spacing lookup 0 subtable" dx=5 dy=0 dh=10 dv=0
EndChar

StartChar: Gbreve
Encoding: 286 286 32
Width: 675
GlyphClass: 2
Flags: MW
HStem: -10 89<265 341.5> 274 88<326 508 314 616> 607 89<333.5 429.5> 788 62<369.5 431.5 369.5 445>
VStem: 57 99<183.5 242.5> 505 66 532 99<481.5 523.5>
AnchorPoint: "Bottom" 338 0 basechar 0
LayerCount: 2
Fore
SplineSet
533 912 m 1,0,-1
 601 912 l 1,1,2
 595 868 595 868 532 828 c 128,-1,3
 469 788 469 788 394 788 c 0,4,5
 319 788 319 788 267 824.5 c 128,-1,6
 215 861 215 861 215 904 c 0,7,8
 215 910 215 910 216 912 c 1,9,-1
 283 912 l 1,10,11
 288 885 288 885 321 867.5 c 128,-1,12
 354 850 354 850 400.5 850 c 0,13,14
 447 850 447 850 484 867.5 c 128,-1,15
 521 885 521 885 533 912 c 1,0,-1
400 696 m 0,16,17
 502 696 502 696 566.5 642.5 c 128,-1,18
 631 589 631 589 631 489 c 0,19,20
 631 468 631 468 628 445 c 1,21,-1
 530 445 l 1,22,23
 532 467 532 467 532 478 c 0,24,25
 532 543 532 543 493 575 c 128,-1,26
 454 607 454 607 388 607 c 0,27,28
 302 607 302 607 245.5 553.5 c 128,-1,29
 189 500 189 500 172.5 386 c 0,30,31
 156 272 156 272 156 241 c 0,32,33
 156 79 156 79 313 79 c 0,34,35
 400 79 400 79 445.5 122 c 128,-1,36
 491 165 491 165 506 261 c 2,37,-1
 508 274 l 1,38,-1
 314 274 l 1,39,-1
 326 362 l 1,40,-1
 616 362 l 1,41,-1
 583 128 l 1,42,43
 571 60 571 60 571 0 c 1,44,-1
 513 0 l 1,45,46
 506 18 506 18 505 82 c 1,47,48
 427 -10 427 -10 308 -10 c 0,49,50
 189 -10 189 -10 123 51.5 c 128,-1,51
 57 113 57 113 57 232 c 0,52,53
 57 268 57 268 75 388 c 0,54,55
 97 542 97 542 180.5 619 c 128,-1,56
 264 696 264 696 400 696 c 0,16,17
EndSplineSet
EndChar

StartChar: Gcommaaccent
Encoding: 290 290 33
Width: 675
GlyphClass: 2
Flags: MW
HStem: -151 111<281 306 265 382> -10 89<265 341.5> 274 88<326 508 314 616> 607 89<333.5 429.5>
VStem: 57 99<183.5 242.5> 505 66 532 99<481.5 523.5>
AnchorPoint: "Bottom" 338 0 basechar 0
LayerCount: 2
Fore
SplineSet
400 696 m 0,0,1
 502 696 502 696 566.5 642.5 c 128,-1,2
 631 589 631 589 631 489 c 0,3,4
 631 468 631 468 628 445 c 1,5,-1
 530 445 l 1,6,7
 532 467 532 467 532 478 c 0,8,9
 532 543 532 543 493 575 c 128,-1,10
 454 607 454 607 388 607 c 0,11,12
 302 607 302 607 245.5 553.5 c 128,-1,13
 189 500 189 500 172.5 386 c 0,14,15
 156 272 156 272 156 241 c 0,16,17
 156 79 156 79 313 79 c 0,18,19
 400 79 400 79 445.5 122 c 128,-1,20
 491 165 491 165 506 261 c 2,21,-1
 508 274 l 1,22,-1
 314 274 l 1,23,-1
 326 362 l 1,24,-1
 616 362 l 1,25,-1
 583 128 l 1,26,27
 571 60 571 60 571 0 c 1,28,-1
 513 0 l 1,29,30
 506 18 506 18 505 82 c 1,31,32
 427 -10 427 -10 308 -10 c 0,33,34
 189 -10 189 -10 123 51.5 c 128,-1,35
 57 113 57 113 57 232 c 0,36,37
 57 268 57 268 75 388 c 0,38,39
 97 542 97 542 180.5 619 c 128,-1,40
 264 696 264 696 400 696 c 0,0,1
370 -125 m 1,41,-1
 323 -250 l 1,42,-1
 270 -250 l 1,43,-1
 306 -151 l 1,44,-1
 265 -151 l 1,45,-1
 281 -40 l 1,46,-1
 382 -40 l 1,47,-1
 370 -125 l 1,41,-1
EndSplineSet
EndChar

StartChar: H
Encoding: 72 72 34
Width: 693
GlyphClass: 2
Flags: MW
HStem: 306 89<205 505 192 518> 666 20G<148 246 246 246 559 657 657 657>
VStem: 51 606
LayerCount: 2
Fore
SplineSet
560 0 m 1,0,-1
 462 0 l 1,1,-1
 505 306 l 1,2,-1
 192 306 l 1,3,-1
 149 0 l 1,4,-1
 51 0 l 1,5,-1
 148 686 l 1,6,-1
 246 686 l 1,7,-1
 205 395 l 1,8,-1
 518 395 l 1,9,-1
 559 686 l 1,10,-1
 657 686 l 1,11,-1
 560 0 l 1,0,-1
EndSplineSet
Position2: "'cpsp' Capital Spacing lookup 0 subtable" dx=5 dy=0 dh=10 dv=0
EndChar

StartChar: I
Encoding: 73 73 35
Width: 365
GlyphClass: 2
Flags: MW
HStem: 0 89<25 105 203 270 12 105> 597 89<109 176 96 367 274 354 274 274>
VStem: 12 355
LayerCount: 2
Fore
SplineSet
354 597 m 1,0,-1
 274 597 l 1,1,-1
 203 89 l 1,2,-1
 283 89 l 1,3,-1
 270 0 l 1,4,-1
 12 0 l 1,5,-1
 25 89 l 1,6,-1
 105 89 l 1,7,-1
 176 597 l 1,8,-1
 96 597 l 1,9,-1
 109 686 l 1,10,-1
 367 686 l 1,11,-1
 354 597 l 1,0,-1
EndSplineSet
Position2: "'cpsp' Capital Spacing lookup 0 subtable" dx=5 dy=0 dh=10 dv=0
EndChar

StartChar: Iacute
Encoding: 205 205 36
Width: 365
GlyphClass: 2
Flags: MW
HStem: 0 89<25 105 203 270 12 105> 597 89<109 176 96 367 274 354 274 274> 750 145<202 407 202 407>
VStem: 12 395
LayerCount: 2
Fore
SplineSet
407 891 m 1,0,-1
 271 750 l 1,1,-1
 202 750 l 1,2,-1
 317 895 l 1,3,-1
 407 895 l 1,4,-1
 407 891 l 1,0,-1
354 597 m 1,5,-1
 274 597 l 1,6,-1
 203 89 l 1,7,-1
 283 89 l 1,8,-1
 270 0 l 1,9,-1
 12 0 l 1,10,-1
 25 89 l 1,11,-1
 105 89 l 1,12,-1
 176 597 l 1,13,-1
 96 597 l 1,14,-1
 109 686 l 1,15,-1
 367 686 l 1,16,-1
 354 597 l 1,5,-1
EndSplineSet
Position2: "'cpsp' Capital Spacing lookup 0 subtable" dx=5 dy=0 dh=10 dv=0
EndChar

StartChar: Icircumflex
Encoding: 206 206 37
Width: 365
GlyphClass: 2
Flags: MW
HStem: 0 89<25 105 203 270 12 105> 597 89<109 176 96 367 274 354 274 274> 750 145<71 306 228 420 228 340>
VStem: 12 408
LayerCount: 2
Fore
SplineSet
420 750 m 1,0,-1
 340 750 l 1,1,-1
 259 839 l 1,2,-1
 151 750 l 1,3,-1
 71 750 l 1,4,-1
 228 895 l 1,5,-1
 306 895 l 1,6,-1
 420 750 l 1,0,-1
354 597 m 1,7,-1
 274 597 l 1,8,-1
 203 89 l 1,9,-1
 283 89 l 1,10,-1
 270 0 l 1,11,-1
 12 0 l 1,12,-1
 25 89 l 1,13,-1
 105 89 l 1,14,-1
 176 597 l 1,15,-1
 96 597 l 1,16,-1
 109 686 l 1,17,-1
 367 686 l 1,18,-1
 354 597 l 1,7,-1
EndSplineSet
Position2: "'cpsp' Capital Spacing lookup 0 subtable" dx=5 dy=0 dh=10 dv=0
EndChar

StartChar: Idieresis
Encoding: 207 207 38
Width: 365
GlyphClass: 2
Flags: MW
HStem: 0 89<25 105 203 270 12 105> 597 89<109 176 96 367 274 354 274 274> 750 98<120 197 107 210 120 295 308 386>
VStem: 12 387
LayerCount: 2
Fore
SplineSet
197 750 m 1,0,-1
 107 750 l 1,1,-1
 120 848 l 1,2,-1
 210 848 l 1,3,-1
 197 750 l 1,0,-1
386 750 m 1,4,-1
 295 750 l 1,5,-1
 308 848 l 1,6,-1
 399 848 l 1,7,-1
 386 750 l 1,4,-1
354 597 m 1,8,-1
 274 597 l 1,9,-1
 203 89 l 1,10,-1
 283 89 l 1,11,-1
 270 0 l 1,12,-1
 12 0 l 1,13,-1
 25 89 l 1,14,-1
 105 89 l 1,15,-1
 176 597 l 1,16,-1
 96 597 l 1,17,-1
 109 686 l 1,18,-1
 367 686 l 1,19,-1
 354 597 l 1,8,-1
EndSplineSet
Position2: "'cpsp' Capital Spacing lookup 0 subtable" dx=5 dy=0 dh=10 dv=0
EndChar

StartChar: Idotaccent
Encoding: 304 304 39
Width: 365
GlyphClass: 2
Flags: MW
HStem: 0 89<25 105 203 270 12 105> 597 89<109 176 96 367 274 354 274 274> 779 132<242.5 268.5>
VStem: 191 133<832.5 854.5>
LayerCount: 2
Fore
SplineSet
211.5 888.5 m 128,-1,1
 232 911 232 911 262 911 c 128,-1,2
 292 911 292 911 308 894 c 128,-1,3
 324 877 324 877 324 849.5 c 128,-1,4
 324 822 324 822 301.5 800.5 c 128,-1,5
 279 779 279 779 251 779 c 128,-1,6
 223 779 223 779 207 794.5 c 128,-1,7
 191 810 191 810 191 838 c 128,-1,0
 191 866 191 866 211.5 888.5 c 128,-1,1
354 597 m 1,8,-1
 274 597 l 1,9,-1
 203 89 l 1,10,-1
 283 89 l 1,11,-1
 270 0 l 1,12,-1
 12 0 l 1,13,-1
 25 89 l 1,14,-1
 105 89 l 1,15,-1
 176 597 l 1,16,-1
 96 597 l 1,17,-1
 109 686 l 1,18,-1
 367 686 l 1,19,-1
 354 597 l 1,8,-1
EndSplineSet
EndChar

StartChar: Igrave
Encoding: 204 204 40
Width: 365
GlyphClass: 2
Flags: MW
HStem: 0 89<25 105 203 270 12 105> 597 89<109 176 96 367 274 354 274 274> 750 145<110 273 110 203>
VStem: 12 355
LayerCount: 2
Fore
SplineSet
273 750 m 1,0,-1
 203 750 l 1,1,-1
 108 892 l 1,2,-1
 110 895 l 1,3,-1
 199 895 l 1,4,-1
 273 750 l 1,0,-1
354 597 m 1,5,-1
 274 597 l 1,6,-1
 203 89 l 1,7,-1
 283 89 l 1,8,-1
 270 0 l 1,9,-1
 12 0 l 1,10,-1
 25 89 l 1,11,-1
 105 89 l 1,12,-1
 176 597 l 1,13,-1
 96 597 l 1,14,-1
 109 686 l 1,15,-1
 367 686 l 1,16,-1
 354 597 l 1,5,-1
EndSplineSet
Position2: "'cpsp' Capital Spacing lookup 0 subtable" dx=5 dy=0 dh=10 dv=0
EndChar

StartChar: Imacron
Encoding: 298 298 41
Width: 365
GlyphClass: 2
Flags: MW
HStem: 0 89<25 105 203 270 12 105> 597 89<109 176 96 367 274 354 274 274> 837 74<104 411 93 422>
VStem: 12 410
LayerCount: 2
Fore
SplineSet
411 837 m 1,0,-1
 93 837 l 1,1,-1
 104 911 l 1,2,-1
 422 911 l 1,3,-1
 411 837 l 1,0,-1
354 597 m 1,4,-1
 274 597 l 1,5,-1
 203 89 l 1,6,-1
 283 89 l 1,7,-1
 270 0 l 1,8,-1
 12 0 l 1,9,-1
 25 89 l 1,10,-1
 105 89 l 1,11,-1
 176 597 l 1,12,-1
 96 597 l 1,13,-1
 109 686 l 1,14,-1
 367 686 l 1,15,-1
 354 597 l 1,4,-1
EndSplineSet
EndChar

StartChar: Iogonek
Encoding: 302 302 42
Width: 365
GlyphClass: 2
Flags: MW
HStem: -143 47<230.5 240.5> 0 89<25 105 25 202 12 105 256 270 256 256> 597 89<109 176 96 367 274 354 274 274>
VStem: 137 63<-76.5 -63.5>
LayerCount: 2
Fore
SplineSet
274 597 m 1,0,-1
 203 89 l 1,1,-1
 283 89 l 1,2,-1
 270 0 l 1,3,-1
 256 0 l 1,4,5
 235 -9 235 -9 217.5 -28 c 128,-1,6
 200 -47 200 -47 200 -65 c 0,7,8
 200 -96 200 -96 240 -96 c 0,9,10
 263 -96 263 -96 309 -82 c 1,11,-1
 317 -119 l 1,12,13
 273.5 -143 273.5 -143 230.25 -143 c 0,14,15
 137 -143 137 -143 137 -83 c 0,16,17
 137 -39 137 -39 202 0 c 1,18,-1
 12 0 l 1,19,-1
 25 89 l 1,20,-1
 105 89 l 1,21,-1
 176 597 l 1,22,-1
 96 597 l 1,23,-1
 109 686 l 1,24,-1
 367 686 l 1,25,-1
 354 597 l 1,26,-1
 274 597 l 1,0,-1
EndSplineSet
EndChar

StartChar: J
Encoding: 74 74 43
Width: 525
GlyphClass: 2
Flags: MW
HStem: -10 89<173 183 183 192> 666 20G<394 492 492 492>
VStem: 10 98<140 155>
LayerCount: 2
Fore
SplineSet
492 686 m 1,0,-1
 422 187 l 2,1,2
 408 89 408 89 348.5 39.5 c 128,-1,3
 289 -10 289 -10 192 -10 c 2,4,-1
 183 -10 l 2,5,6
 111 -10 111 -10 60.5 31.5 c 128,-1,7
 10 73 10 73 10 149 c 0,8,9
 10 181 10 181 16 208 c 1,10,-1
 113 208 l 1,11,12
 108 185 108 185 108 166 c 0,13,14
 108 127 108 127 134 103 c 128,-1,15
 160 79 160 79 204.5 79 c 0,16,17
 249 79 249 79 282.5 106.5 c 128,-1,18
 316 134 316 134 323 181 c 2,19,-1
 394 686 l 1,20,-1
 492 686 l 1,0,-1
EndSplineSet
Position2: "'cpsp' Capital Spacing lookup 0 subtable" dx=5 dy=0 dh=10 dv=0
EndChar

StartChar: K
Encoding: 75 75 44
Width: 621
GlyphClass: 2
Flags: MW
HStem: 666 20G<148 246 246 246 544 657 657 657>
VStem: 51 606
AnchorPoint: "Bottom" 311 0 basechar 0
LayerCount: 2
Fore
SplineSet
362 383 m 1,0,-1
 568 0 l 1,1,-1
 454 0 l 1,2,-1
 290 308 l 1,3,-1
 178 206 l 1,4,-1
 149 0 l 1,5,-1
 51 0 l 1,6,-1
 148 686 l 1,7,-1
 246 686 l 1,8,-1
 196 329 l 1,9,-1
 544 686 l 1,10,-1
 657 686 l 1,11,-1
 362 383 l 1,0,-1
EndSplineSet
Position2: "'cpsp' Capital Spacing lookup 0 subtable" dx=5 dy=0 dh=10 dv=0
EndChar

StartChar: Kcommaaccent
Encoding: 310 310 45
Width: 621
GlyphClass: 2
Flags: MW
HStem: -151 111<254 279 238 355> 666 20G<148 246 246 246 544 657 657 657>
VStem: 51 606
AnchorPoint: "Bottom" 311 0 basechar 0
LayerCount: 2
Fore
SplineSet
362 383 m 1,0,-1
 568 0 l 1,1,-1
 454 0 l 1,2,-1
 290 308 l 1,3,-1
 178 206 l 1,4,-1
 149 0 l 1,5,-1
 51 0 l 1,6,-1
 148 686 l 1,7,-1
 246 686 l 1,8,-1
 196 329 l 1,9,-1
 544 686 l 1,10,-1
 657 686 l 1,11,-1
 362 383 l 1,0,-1
343 -125 m 1,12,-1
 296 -250 l 1,13,-1
 243 -250 l 1,14,-1
 279 -151 l 1,15,-1
 238 -151 l 1,16,-1
 254 -40 l 1,17,-1
 355 -40 l 1,18,-1
 343 -125 l 1,12,-1
EndSplineSet
EndChar

StartChar: L
Encoding: 76 76 46
Width: 532
GlyphClass: 2
Flags: MW
HStem: 0 89<162 477 162 477> 666 20G<148 246 246 246>
VStem: 51 426<0 89>
AnchorPoint: "Bottom" 266 0 basechar 0
LayerCount: 2
Fore
SplineSet
162 89 m 1,0,-1
 477 89 l 1,1,-1
 477 0 l 1,2,-1
 51 0 l 1,3,-1
 148 686 l 1,4,-1
 246 686 l 1,5,-1
 162 89 l 1,0,-1
EndSplineSet
Position2: "'cpsp' Capital Spacing lookup 0 subtable" dx=5 dy=0 dh=10 dv=0
EndChar

StartChar: Lacute
Encoding: 313 313 47
Width: 532
GlyphClass: 2
Flags: MW
HStem: 0 89<162 477 162 477> 666 20G<148 246 246 246> 750 145<134 339 134 339>
VStem: 51 426<0 89>
AnchorPoint: "Bottom" 266 0 basechar 0
LayerCount: 2
Fore
SplineSet
339 891 m 1,0,-1
 203 750 l 1,1,-1
 134 750 l 1,2,-1
 249 895 l 1,3,-1
 339 895 l 1,4,-1
 339 891 l 1,0,-1
162 89 m 1,5,-1
 477 89 l 1,6,-1
 477 0 l 1,7,-1
 51 0 l 1,8,-1
 148 686 l 1,9,-1
 246 686 l 1,10,-1
 162 89 l 1,5,-1
EndSplineSet
EndChar

StartChar: Lcaron
Encoding: 317 317 48
Width: 532
GlyphClass: 2
Flags: MW
HStem: 0 89<162 477 162 477> 575 111<466 491>
VStem: 51 516
AnchorPoint: "Bottom" 266 0 basechar 0
LayerCount: 2
Fore
SplineSet
162 89 m 1,0,-1
 477 89 l 1,1,-1
 477 0 l 1,2,-1
 51 0 l 1,3,-1
 148 686 l 1,4,-1
 246 686 l 1,5,-1
 162 89 l 1,0,-1
555 601 m 1,6,-1
 499 451 l 1,7,-1
 447 451 l 1,8,-1
 491 575 l 1,9,-1
 450 575 l 1,10,-1
 466 686 l 1,11,-1
 567 686 l 1,12,-1
 555 601 l 1,6,-1
EndSplineSet
EndChar

StartChar: Lcommaaccent
Encoding: 315 315 49
Width: 532
GlyphClass: 2
Flags: MW
HStem: -151 111<209 234 193 310> 0 89<162 477 162 477> 666 20G<148 246 246 246>
VStem: 51 426<0 89>
AnchorPoint: "Bottom" 266 0 basechar 0
LayerCount: 2
Fore
SplineSet
162 89 m 1,0,-1
 477 89 l 1,1,-1
 477 0 l 1,2,-1
 51 0 l 1,3,-1
 148 686 l 1,4,-1
 246 686 l 1,5,-1
 162 89 l 1,0,-1
298 -125 m 1,6,-1
 251 -250 l 1,7,-1
 198 -250 l 1,8,-1
 234 -151 l 1,9,-1
 193 -151 l 1,10,-1
 209 -40 l 1,11,-1
 310 -40 l 1,12,-1
 298 -125 l 1,6,-1
EndSplineSet
EndChar

StartChar: Lslash
Encoding: 321 321 50
Width: 534
GlyphClass: 2
Flags: MW
HStem: 0 89<165 480 165 480> 497 20G<364 364> 666 20G<151 249 249 249>
VStem: 33 447<0 293>
LayerCount: 2
Fore
SplineSet
215 445 m 1,0,-1
 364 517 l 1,1,-1
 354 446 l 1,2,-1
 205 374 l 1,3,-1
 165 89 l 1,4,-1
 480 89 l 1,5,-1
 480 0 l 1,6,-1
 54 0 l 1,7,-1
 100 324 l 1,8,-1
 33 293 l 1,9,-1
 43 364 l 1,10,-1
 110 395 l 1,11,-1
 151 686 l 1,12,-1
 249 686 l 1,13,-1
 215 445 l 1,0,-1
EndSplineSet
Position2: "'cpsp' Capital Spacing lookup 0 subtable" dx=5 dy=0 dh=10 dv=0
EndChar

StartChar: M
Encoding: 77 77 51
Width: 938
GlyphClass: 2
Flags: MW
HStem: 0 146<447 451 447 464 381 451> 571 115<221 226 221 221 782 788 782 782>
VStem: 51 851<0 686>
LayerCount: 2
Fore
SplineSet
805 0 m 1,0,-1
 707 0 l 1,1,-1
 788 571 l 1,2,-1
 782 571 l 1,3,-1
 464 0 l 1,4,-1
 381 0 l 1,5,-1
 226 571 l 1,6,-1
 221 571 l 1,7,-1
 140 0 l 1,8,-1
 51 0 l 1,9,-1
 148 686 l 1,10,-1
 302 686 l 1,11,-1
 447 146 l 1,12,-1
 451 146 l 1,13,-1
 749 686 l 1,14,-1
 902 686 l 1,15,-1
 805 0 l 1,0,-1
EndSplineSet
Position2: "'cpsp' Capital Spacing lookup 0 subtable" dx=5 dy=0 dh=10 dv=0
EndChar

StartChar: N
Encoding: 78 78 52
Width: 694
GlyphClass: 2
Flags: MW
HStem: 666 20G<148 234 234 234 569 658 658 658>
VStem: 51 607
AnchorPoint: "Bottom" 347 0 basechar 0
LayerCount: 2
Fore
SplineSet
561 0 m 1,0,-1
 478 0 l 1,1,-1
 214 502 l 1,2,-1
 211 501 l 1,3,-1
 140 0 l 1,4,-1
 51 0 l 1,5,-1
 148 686 l 1,6,-1
 234 686 l 1,7,-1
 496 190 l 1,8,-1
 499 191 l 1,9,-1
 569 686 l 1,10,-1
 658 686 l 1,11,-1
 561 0 l 1,0,-1
EndSplineSet
Position2: "'cpsp' Capital Spacing lookup 0 subtable" dx=5 dy=0 dh=10 dv=0
EndChar

StartChar: Nacute
Encoding: 323 323 53
Width: 694
GlyphClass: 2
Flags: MW
HStem: 666 20G<148 234 234 234 569 658 658 658> 750 145<354 559 354 559>
VStem: 51 607
AnchorPoint: "Bottom" 347 0 basechar 0
LayerCount: 2
Fore
SplineSet
559 891 m 1,0,-1
 423 750 l 1,1,-1
 354 750 l 1,2,-1
 469 895 l 1,3,-1
 559 895 l 1,4,-1
 559 891 l 1,0,-1
561 0 m 1,5,-1
 478 0 l 1,6,-1
 214 502 l 1,7,-1
 211 501 l 1,8,-1
 140 0 l 1,9,-1
 51 0 l 1,10,-1
 148 686 l 1,11,-1
 234 686 l 1,12,-1
 496 190 l 1,13,-1
 499 191 l 1,14,-1
 569 686 l 1,15,-1
 658 686 l 1,16,-1
 561 0 l 1,5,-1
EndSplineSet
EndChar

StartChar: Ncaron
Encoding: 327 327 54
Width: 694
GlyphClass: 2
Flags: MW
HStem: 666 20G<148 234 234 234 569 658 658 658> 750 145<262 455 262 377>
VStem: 51 607
AnchorPoint: "Bottom" 347 0 basechar 0
LayerCount: 2
Fore
SplineSet
455 750 m 1,0,-1
 377 750 l 1,1,-1
 262 895 l 1,2,-1
 342 895 l 1,3,-1
 424 806 l 1,4,-1
 531 895 l 1,5,-1
 611 895 l 1,6,-1
 455 750 l 1,0,-1
561 0 m 1,7,-1
 478 0 l 1,8,-1
 214 502 l 1,9,-1
 211 501 l 1,10,-1
 140 0 l 1,11,-1
 51 0 l 1,12,-1
 148 686 l 1,13,-1
 234 686 l 1,14,-1
 496 190 l 1,15,-1
 499 191 l 1,16,-1
 569 686 l 1,17,-1
 658 686 l 1,18,-1
 561 0 l 1,7,-1
EndSplineSet
EndChar

StartChar: Ncommaaccent
Encoding: 325 325 55
Width: 694
GlyphClass: 2
Flags: MW
HStem: -151 111<290 315 274 391> 666 20G<148 234 234 234 569 658 658 658>
VStem: 51 607
AnchorPoint: "Bottom" 347 0 basechar 0
LayerCount: 2
Fore
SplineSet
561 0 m 1,0,-1
 478 0 l 1,1,-1
 214 502 l 1,2,-1
 211 501 l 1,3,-1
 140 0 l 1,4,-1
 51 0 l 1,5,-1
 148 686 l 1,6,-1
 234 686 l 1,7,-1
 496 190 l 1,8,-1
 499 191 l 1,9,-1
 569 686 l 1,10,-1
 658 686 l 1,11,-1
 561 0 l 1,0,-1
379 -125 m 1,12,-1
 332 -250 l 1,13,-1
 279 -250 l 1,14,-1
 315 -151 l 1,15,-1
 274 -151 l 1,16,-1
 290 -40 l 1,17,-1
 391 -40 l 1,18,-1
 379 -125 l 1,12,-1
EndSplineSet
EndChar

StartChar: Ntilde
Encoding: 209 209 56
Width: 694
GlyphClass: 2
Flags: MW
HStem: 666 20G<148 234 234 234 569 658 658 658> 750 69<484.5 526 484.5 533> 784 70<315 357>
VStem: 51 607
LayerCount: 2
Fore
SplineSet
571 854 m 1,0,-1
 621 854 l 1,1,2
 614 813 614 813 581 781.5 c 128,-1,3
 548 750 548 750 494 750 c 0,4,5
 461 750 461 750 408.5 767 c 128,-1,6
 356 784 356 784 330 784 c 0,7,8
 285 784 285 784 270 750 c 1,9,-1
 222 750 l 1,10,11
 229 790 229 790 262 822 c 128,-1,12
 295 854 295 854 348 854 c 0,13,14
 381 854 381 854 433.5 836.5 c 128,-1,15
 486 819 486 819 511 819 c 0,16,17
 556 819 556 819 571 854 c 1,0,-1
561 0 m 1,18,-1
 478 0 l 1,19,-1
 214 502 l 1,20,-1
 211 501 l 1,21,-1
 140 0 l 1,22,-1
 51 0 l 1,23,-1
 148 686 l 1,24,-1
 234 686 l 1,25,-1
 496 190 l 1,26,-1
 499 191 l 1,27,-1
 569 686 l 1,28,-1
 658 686 l 1,29,-1
 561 0 l 1,18,-1
EndSplineSet
Position2: "'cpsp' Capital Spacing lookup 0 subtable" dx=5 dy=0 dh=10 dv=0
EndChar

StartChar: O
Encoding: 79 79 57
Width: 690
GlyphClass: 2
Flags: MW
HStem: -10 89<267.5 369 267.5 388.5> 607 89<335 437>
VStem: 57 99<185.5 235> 549 98<440.5 500>
LayerCount: 2
Fore
SplineSet
402 696 m 0,0,1
 512 696 512 696 579.5 633 c 128,-1,2
 647 570 647 570 647 450 c 0,3,4
 647 417 647 417 630 298 c 0,5,6
 609 146 609 146 522 68 c 128,-1,7
 435 -10 435 -10 303 -10 c 0,8,9
 193 -10 193 -10 125 53 c 128,-1,10
 57 116 57 116 57 235 c 0,11,12
 56 250 56 250 75.5 394.5 c 128,-1,13
 95 539 95 539 183 617.5 c 128,-1,14
 271 696 271 696 402 696 c 0,0,1
549 442 m 0,15,16
 549 607 549 607 383.5 607 c 0,17,18
 303 607 303 607 246 553.5 c 128,-1,19
 189 500 189 500 172.5 381.5 c 128,-1,20
 156 263 156 263 156 244 c 0,21,22
 156 160 156 160 198 119.5 c 128,-1,23
 240 79 240 79 320 79 c 128,-1,24
 400 79 400 79 457.5 132.5 c 128,-1,25
 515 186 515 186 532 299.5 c 128,-1,26
 549 413 549 413 549 442 c 0,15,16
EndSplineSet
Substitution2: "Single Substitution lookup 5 subtable" ordmasculine
Substitution2: "'aalt' Access All Alternates lookup 0 subtable" ordmasculine
Position2: "'cpsp' Capital Spacing lookup 0 subtable" dx=5 dy=0 dh=10 dv=0
EndChar

StartChar: Oacute
Encoding: 211 211 58
Width: 690
GlyphClass: 2
Flags: MW
HStem: -10 89<267.5 369 267.5 388.5> 607 89<335 437> 750 145<373 578 373 578>
VStem: 57 99<185.5 235> 549 98<440.5 500>
LayerCount: 2
Fore
SplineSet
578 891 m 1,0,-1
 442 750 l 1,1,-1
 373 750 l 1,2,-1
 488 895 l 1,3,-1
 578 895 l 1,4,-1
 578 891 l 1,0,-1
402 696 m 0,5,6
 512 696 512 696 579.5 633 c 128,-1,7
 647 570 647 570 647 450 c 0,8,9
 647 417 647 417 630 298 c 0,10,11
 609 146 609 146 522 68 c 128,-1,12
 435 -10 435 -10 303 -10 c 0,13,14
 193 -10 193 -10 125 53 c 128,-1,15
 57 116 57 116 57 235 c 0,16,17
 56 250 56 250 75.5 394.5 c 128,-1,18
 95 539 95 539 183 617.5 c 128,-1,19
 271 696 271 696 402 696 c 0,5,6
549 442 m 0,20,21
 549 607 549 607 383.5 607 c 0,22,23
 303 607 303 607 246 553.5 c 128,-1,24
 189 500 189 500 172.5 381.5 c 128,-1,25
 156 263 156 263 156 244 c 0,26,27
 156 160 156 160 198 119.5 c 128,-1,28
 240 79 240 79 320 79 c 128,-1,29
 400 79 400 79 457.5 132.5 c 128,-1,30
 515 186 515 186 532 299.5 c 128,-1,31
 549 413 549 413 549 442 c 0,20,21
EndSplineSet
Position2: "'cpsp' Capital Spacing lookup 0 subtable" dx=5 dy=0 dh=10 dv=0
EndChar

StartChar: Ocircumflex
Encoding: 212 212 59
Width: 690
GlyphClass: 2
Flags: MW
HStem: -10 89<267.5 369 267.5 388.5> 607 89<335 437> 750 145<249 484 406 598 406 518>
VStem: 57 99<185.5 235> 549 98<440.5 500>
LayerCount: 2
Fore
SplineSet
598 750 m 1,0,-1
 518 750 l 1,1,-1
 437 839 l 1,2,-1
 329 750 l 1,3,-1
 249 750 l 1,4,-1
 406 895 l 1,5,-1
 484 895 l 1,6,-1
 598 750 l 1,0,-1
402 696 m 0,7,8
 512 696 512 696 579.5 633 c 128,-1,9
 647 570 647 570 647 450 c 0,10,11
 647 417 647 417 630 298 c 0,12,13
 609 146 609 146 522 68 c 128,-1,14
 435 -10 435 -10 303 -10 c 0,15,16
 193 -10 193 -10 125 53 c 128,-1,17
 57 116 57 116 57 235 c 0,18,19
 56 250 56 250 75.5 394.5 c 128,-1,20
 95 539 95 539 183 617.5 c 128,-1,21
 271 696 271 696 402 696 c 0,7,8
549 442 m 0,22,23
 549 607 549 607 383.5 607 c 0,24,25
 303 607 303 607 246 553.5 c 128,-1,26
 189 500 189 500 172.5 381.5 c 128,-1,27
 156 263 156 263 156 244 c 0,28,29
 156 160 156 160 198 119.5 c 128,-1,30
 240 79 240 79 320 79 c 128,-1,31
 400 79 400 79 457.5 132.5 c 128,-1,32
 515 186 515 186 532 299.5 c 128,-1,33
 549 413 549 413 549 442 c 0,22,23
EndSplineSet
Position2: "'cpsp' Capital Spacing lookup 0 subtable" dx=5 dy=0 dh=10 dv=0
EndChar

StartChar: Odieresis
Encoding: 214 214 60
Width: 690
GlyphClass: 2
Flags: MW
HStem: -10 89<267.5 369 267.5 388.5> 607 89<335 437> 750 98<288 365 275 378 288 463 476 554>
VStem: 57 99<185.5 235> 549 98<440.5 500>
LayerCount: 2
Fore
SplineSet
365 750 m 1,0,-1
 275 750 l 1,1,-1
 288 848 l 1,2,-1
 378 848 l 1,3,-1
 365 750 l 1,0,-1
554 750 m 1,4,-1
 463 750 l 1,5,-1
 476 848 l 1,6,-1
 567 848 l 1,7,-1
 554 750 l 1,4,-1
402 696 m 0,8,9
 512 696 512 696 579.5 633 c 128,-1,10
 647 570 647 570 647 450 c 0,11,12
 647 417 647 417 630 298 c 0,13,14
 609 146 609 146 522 68 c 128,-1,15
 435 -10 435 -10 303 -10 c 0,16,17
 193 -10 193 -10 125 53 c 128,-1,18
 57 116 57 116 57 235 c 0,19,20
 56 250 56 250 75.5 394.5 c 128,-1,21
 95 539 95 539 183 617.5 c 128,-1,22
 271 696 271 696 402 696 c 0,8,9
549 442 m 0,23,24
 549 607 549 607 383.5 607 c 0,25,26
 303 607 303 607 246 553.5 c 128,-1,27
 189 500 189 500 172.5 381.5 c 128,-1,28
 156 263 156 263 156 244 c 0,29,30
 156 160 156 160 198 119.5 c 128,-1,31
 240 79 240 79 320 79 c 128,-1,32
 400 79 400 79 457.5 132.5 c 128,-1,33
 515 186 515 186 532 299.5 c 128,-1,34
 549 413 549 413 549 442 c 0,23,24
EndSplineSet
Position2: "'cpsp' Capital Spacing lookup 0 subtable" dx=5 dy=0 dh=10 dv=0
EndChar

StartChar: Ograve
Encoding: 210 210 61
Width: 690
GlyphClass: 2
Flags: MW
HStem: -10 89<267.5 369 267.5 388.5> 607 89<335 437> 750 145<273 436 273 366>
VStem: 57 99<185.5 235> 549 98<440.5 500>
LayerCount: 2
Fore
SplineSet
436 750 m 1,0,-1
 366 750 l 1,1,-1
 271 892 l 1,2,-1
 273 895 l 1,3,-1
 362 895 l 1,4,-1
 436 750 l 1,0,-1
402 696 m 0,5,6
 512 696 512 696 579.5 633 c 128,-1,7
 647 570 647 570 647 450 c 0,8,9
 647 417 647 417 630 298 c 0,10,11
 609 146 609 146 522 68 c 128,-1,12
 435 -10 435 -10 303 -10 c 0,13,14
 193 -10 193 -10 125 53 c 128,-1,15
 57 116 57 116 57 235 c 0,16,17
 56 250 56 250 75.5 394.5 c 128,-1,18
 95 539 95 539 183 617.5 c 128,-1,19
 271 696 271 696 402 696 c 0,5,6
549 442 m 0,20,21
 549 607 549 607 383.5 607 c 0,22,23
 303 607 303 607 246 553.5 c 128,-1,24
 189 500 189 500 172.5 381.5 c 128,-1,25
 156 263 156 263 156 244 c 0,26,27
 156 160 156 160 198 119.5 c 128,-1,28
 240 79 240 79 320 79 c 128,-1,29
 400 79 400 79 457.5 132.5 c 128,-1,30
 515 186 515 186 532 299.5 c 128,-1,31
 549 413 549 413 549 442 c 0,20,21
EndSplineSet
Position2: "'cpsp' Capital Spacing lookup 0 subtable" dx=5 dy=0 dh=10 dv=0
EndChar

StartChar: Ohungarumlaut
Encoding: 336 336 62
Width: 690
GlyphClass: 2
Flags: MW
HStem: -10 89<267.5 369 267.5 388.5> 607 89<335 437> 750 145<265 470 265 470 420 420 420 470 381 490>
VStem: 57 99<185.5 235> 549 98<440.5 500>
LayerCount: 2
Fore
SplineSet
470 890 m 1,0,-1
 335 750 l 1,1,-1
 265 750 l 1,2,-1
 381 895 l 1,3,-1
 470 895 l 1,4,-1
 470 890 l 1,0,-1
625 890 m 1,5,-1
 490 750 l 1,6,-1
 420 750 l 1,7,-1
 535 895 l 1,8,-1
 625 895 l 1,9,-1
 625 890 l 1,5,-1
402 696 m 0,10,11
 512 696 512 696 579.5 633 c 128,-1,12
 647 570 647 570 647 450 c 0,13,14
 647 417 647 417 630 298 c 0,15,16
 609 146 609 146 522 68 c 128,-1,17
 435 -10 435 -10 303 -10 c 0,18,19
 193 -10 193 -10 125 53 c 128,-1,20
 57 116 57 116 57 235 c 0,21,22
 56 250 56 250 75.5 394.5 c 128,-1,23
 95 539 95 539 183 617.5 c 128,-1,24
 271 696 271 696 402 696 c 0,10,11
549 442 m 0,25,26
 549 607 549 607 383.5 607 c 0,27,28
 303 607 303 607 246 553.5 c 128,-1,29
 189 500 189 500 172.5 381.5 c 128,-1,30
 156 263 156 263 156 244 c 0,31,32
 156 160 156 160 198 119.5 c 128,-1,33
 240 79 240 79 320 79 c 128,-1,34
 400 79 400 79 457.5 132.5 c 128,-1,35
 515 186 515 186 532 299.5 c 128,-1,36
 549 413 549 413 549 442 c 0,25,26
EndSplineSet
EndChar

StartChar: Omacron
Encoding: 332 332 63
Width: 690
GlyphClass: 2
Flags: MW
HStem: -10 89<267.5 369 267.5 388.5> 607 89<335 437> 837 74<261 568 250 579>
VStem: 57 99<185.5 235> 549 98<440.5 500>
LayerCount: 2
Fore
SplineSet
568 837 m 1,0,-1
 250 837 l 1,1,-1
 261 911 l 1,2,-1
 579 911 l 1,3,-1
 568 837 l 1,0,-1
402 696 m 0,4,5
 512 696 512 696 579.5 633 c 128,-1,6
 647 570 647 570 647 450 c 0,7,8
 647 417 647 417 630 298 c 0,9,10
 609 146 609 146 522 68 c 128,-1,11
 435 -10 435 -10 303 -10 c 0,12,13
 193 -10 193 -10 125 53 c 128,-1,14
 57 116 57 116 57 235 c 0,15,16
 56 250 56 250 75.5 394.5 c 128,-1,17
 95 539 95 539 183 617.5 c 128,-1,18
 271 696 271 696 402 696 c 0,4,5
549 442 m 0,19,20
 549 607 549 607 383.5 607 c 0,21,22
 303 607 303 607 246 553.5 c 128,-1,23
 189 500 189 500 172.5 381.5 c 128,-1,24
 156 263 156 263 156 244 c 0,25,26
 156 160 156 160 198 119.5 c 128,-1,27
 240 79 240 79 320 79 c 128,-1,28
 400 79 400 79 457.5 132.5 c 128,-1,29
 515 186 515 186 532 299.5 c 128,-1,30
 549 413 549 413 549 442 c 0,19,20
EndSplineSet
EndChar

StartChar: Oslash
Encoding: 216 216 64
Width: 690
GlyphClass: 2
Flags: MW
HStem: -10 89<293.5 369 293.5 388.5> 607 89<335 411>
VStem: 57 99<224 249.5> 549 98<440.5 461.5>
LayerCount: 2
Fore
SplineSet
689 754 m 1,0,-1
 590 621 l 1,1,2
 647 556 647 556 647 450 c 0,3,4
 647 417 647 417 630 298 c 0,5,6
 609 146 609 146 522 68 c 128,-1,7
 435 -10 435 -10 303 -10 c 0,8,9
 215 -10 215 -10 154 30 c 1,10,-1
 84 -65 l 1,11,-1
 20 -65 l 1,12,-1
 115 63 l 1,13,14
 57 127 57 127 57 235 c 0,15,16
 57 252 57 252 76 395.5 c 0,17,18
 95 539 95 539 183 617.5 c 128,-1,19
 271 696 271 696 402 696 c 0,20,21
 490 696 490 696 552 655 c 1,22,-1
 625 754 l 1,23,-1
 689 754 l 1,0,-1
390 607 m 0,24,25
 303 607 303 607 246 553.5 c 128,-1,26
 189 500 189 500 172.5 381.5 c 0,27,28
 156 263 156 263 156 244 c 0,29,30
 156 184 156 184 177 147 c 1,31,-1
 494 577 l 1,32,33
 453 607 453 607 390 607 c 0,24,25
528 537 m 1,34,-1
 211 107 l 1,35,36
 251 79 251 79 315 79 c 0,37,38
 400 79 400 79 457.5 132.5 c 128,-1,39
 515 186 515 186 532 299.5 c 0,40,41
 549 413 549 413 549 455 c 0,42,43
 549 497 549 497 528 537 c 1,34,-1
EndSplineSet
Position2: "'cpsp' Capital Spacing lookup 0 subtable" dx=5 dy=0 dh=10 dv=0
EndChar

StartChar: Otilde
Encoding: 213 213 65
Width: 690
GlyphClass: 2
Flags: MW
HStem: -10 89<267.5 369 267.5 388.5> 607 89<335 437> 750 69<490.5 532 490.5 539> 784 70<321 363>
VStem: 57 99<185.5 235> 549 98<440.5 500>
LayerCount: 2
Fore
SplineSet
577 854 m 1,0,-1
 627 854 l 1,1,2
 620 813 620 813 587 781.5 c 128,-1,3
 554 750 554 750 500 750 c 0,4,5
 467 750 467 750 414.5 767 c 128,-1,6
 362 784 362 784 336 784 c 0,7,8
 291 784 291 784 276 750 c 1,9,-1
 228 750 l 1,10,11
 235 790 235 790 268 822 c 128,-1,12
 301 854 301 854 354 854 c 0,13,14
 387 854 387 854 439.5 836.5 c 128,-1,15
 492 819 492 819 517 819 c 0,16,17
 562 819 562 819 577 854 c 1,0,-1
402 696 m 0,18,19
 512 696 512 696 579.5 633 c 128,-1,20
 647 570 647 570 647 450 c 0,21,22
 647 417 647 417 630 298 c 0,23,24
 609 146 609 146 522 68 c 128,-1,25
 435 -10 435 -10 303 -10 c 0,26,27
 193 -10 193 -10 125 53 c 128,-1,28
 57 116 57 116 57 235 c 0,29,30
 56 250 56 250 75.5 394.5 c 128,-1,31
 95 539 95 539 183 617.5 c 128,-1,32
 271 696 271 696 402 696 c 0,18,19
549 442 m 0,33,34
 549 607 549 607 383.5 607 c 0,35,36
 303 607 303 607 246 553.5 c 128,-1,37
 189 500 189 500 172.5 381.5 c 128,-1,38
 156 263 156 263 156 244 c 0,39,40
 156 160 156 160 198 119.5 c 128,-1,41
 240 79 240 79 320 79 c 128,-1,42
 400 79 400 79 457.5 132.5 c 128,-1,43
 515 186 515 186 532 299.5 c 128,-1,44
 549 413 549 413 549 442 c 0,33,34
EndSplineSet
Position2: "'cpsp' Capital Spacing lookup 0 subtable" dx=5 dy=0 dh=10 dv=0
EndChar

StartChar: OE
Encoding: 338 338 66
Width: 1031
GlyphClass: 2
Flags: MW
HStem: -10 89<267.5 341> 0 89<601 946 601 946> 306 89<644 938 631 951> 597 89<672 1011 672 672> 607 89<335 437>
VStem: 57 99<185.5 235>
LayerCount: 2
Fore
SplineSet
183 617.5 m 128,-1,1
 271 696 271 696 393 696 c 128,-1,2
 515 696 515 696 579 633 c 1,3,-1
 587 686 l 1,4,-1
 1037 686 l 1,5,-1
 1011 597 l 1,6,-1
 672 597 l 1,7,-1
 644 395 l 1,8,-1
 951 395 l 1,9,-1
 938 306 l 1,10,-1
 631 306 l 1,11,-1
 601 89 l 1,12,-1
 946 89 l 1,13,-1
 946 0 l 1,14,-1
 490 0 l 1,15,-1
 496 47 l 1,16,17
 419 -10 419 -10 306 -10 c 128,-1,18
 193 -10 193 -10 125 53 c 128,-1,19
 57 116 57 116 57 235 c 0,20,21
 56 250 56 250 75.5 394.5 c 128,-1,0
 95 539 95 539 183 617.5 c 128,-1,1
549 442 m 0,22,23
 549 607 549 607 383.5 607 c 0,24,25
 303 607 303 607 246 553.5 c 128,-1,26
 189 500 189 500 172.5 381.5 c 128,-1,27
 156 263 156 263 156 244 c 0,28,29
 156 160 156 160 198 119.5 c 128,-1,30
 240 79 240 79 320 79 c 128,-1,31
 400 79 400 79 457.5 132.5 c 128,-1,32
 515 186 515 186 532 299.5 c 128,-1,33
 549 413 549 413 549 442 c 0,22,23
EndSplineSet
Position2: "'cpsp' Capital Spacing lookup 0 subtable" dx=5 dy=0 dh=10 dv=0
EndChar

StartChar: P
Encoding: 80 80 67
Width: 626
GlyphClass: 2
Flags: MW
HStem: 286 89<202 387 189 391> 597 89<233 233 233 422>
VStem: 524 99<466.5 528>
LayerCount: 2
Fore
SplineSet
148 686 m 1,0,-1
 444 686 l 2,1,2
 522 686 522 686 572.5 639.5 c 128,-1,3
 623 593 623 593 623 517 c 0,4,5
 623 413 623 413 557.5 349.5 c 128,-1,6
 492 286 492 286 387 286 c 2,7,-1
 189 286 l 1,8,-1
 149 0 l 1,9,-1
 51 0 l 1,10,-1
 148 686 l 1,0,-1
233 597 m 1,11,-1
 202 375 l 1,12,-1
 391 375 l 2,13,14
 443 375 443 375 483.5 412.5 c 128,-1,15
 524 450 524 450 524 496 c 0,16,17
 524 542 524 542 495.5 569.5 c 128,-1,18
 467 597 467 597 422 597 c 2,19,-1
 233 597 l 1,11,-1
EndSplineSet
Position2: "'cpsp' Capital Spacing lookup 0 subtable" dx=5 dy=0 dh=10 dv=0
EndChar

StartChar: Thorn
Encoding: 222 222 68
Width: 633
GlyphClass: 2
Flags: MW
HStem: 162 89<185 370 172 374> 473 89<216 426 228 405> 666 20G<148 246 246 246>
VStem: 506 99<344 404.5>
LayerCount: 2
Fore
SplineSet
228 562 m 1,0,-1
 426 562 l 2,1,2
 504 562 504 562 554.5 515.5 c 128,-1,3
 605 469 605 469 605 393 c 0,4,5
 605 287 605 287 535.5 224.5 c 128,-1,6
 466 162 466 162 370 162 c 2,7,-1
 172 162 l 1,8,-1
 149 0 l 1,9,-1
 51 0 l 1,10,-1
 148 686 l 1,11,-1
 246 686 l 1,12,-1
 228 562 l 1,0,-1
216 473 m 1,13,-1
 185 251 l 1,14,-1
 374 251 l 2,15,16
 426 251 426 251 466 289 c 128,-1,17
 506 327 506 327 506 372.5 c 0,18,19
 506 418 506 418 477.5 445.5 c 128,-1,20
 449 473 449 473 405 473 c 2,21,-1
 216 473 l 1,13,-1
EndSplineSet
Position2: "'cpsp' Capital Spacing lookup 0 subtable" dx=5 dy=0 dh=10 dv=0
EndChar

StartChar: Q
Encoding: 81 81 69
Width: 690
GlyphClass: 2
Flags: MW
HStem: -145 75<418.5 455.5> -26 20G 607 89<335 437>
VStem: 57 99<185.5 235> 263 97 549 98<440.5 500>
LayerCount: 2
Fore
SplineSet
402 696 m 0,0,1
 512 696 512 696 579.5 633 c 128,-1,2
 647 570 647 570 647 450 c 0,3,4
 647 417 647 417 628.5 290 c 128,-1,5
 610 163 610 163 539.5 86 c 128,-1,6
 469 9 469 9 360 -6 c 1,7,8
 363 -32 363 -32 385 -51 c 128,-1,9
 407 -70 407 -70 446.5 -70 c 128,-1,10
 486 -70 486 -70 558 -46 c 1,11,-1
 571 -42 l 1,12,-1
 561 -112 l 1,13,14
 505 -145 505 -145 430.5 -145 c 128,-1,15
 356 -145 356 -145 309.5 -110 c 128,-1,16
 263 -75 263 -75 263 -8 c 1,17,18
 168 2 168 2 112.5 64 c 128,-1,19
 57 126 57 126 57 235 c 0,20,21
 56 250 56 250 75.5 394.5 c 128,-1,22
 95 539 95 539 183 617.5 c 128,-1,23
 271 696 271 696 402 696 c 0,0,1
549 442 m 0,24,25
 549 607 549 607 383.5 607 c 0,26,27
 303 607 303 607 246 553.5 c 128,-1,28
 189 500 189 500 172.5 381.5 c 128,-1,29
 156 263 156 263 156 244 c 0,30,31
 156 160 156 160 198 119.5 c 128,-1,32
 240 79 240 79 320 79 c 128,-1,33
 400 79 400 79 457.5 132.5 c 128,-1,34
 515 186 515 186 532 299.5 c 128,-1,35
 549 413 549 413 549 442 c 0,24,25
EndSplineSet
Position2: "'cpsp' Capital Spacing lookup 0 subtable" dx=5 dy=0 dh=10 dv=0
EndChar

StartChar: R
Encoding: 82 82 70
Width: 670
GlyphClass: 2
Flags: MW
HStem: 302 89<204 365 191 399> 597 89<233 233 233 428>
VStem: 461 102<186.5 223> 523 102<502 536.5>
AnchorPoint: "Bottom" 335 0 basechar 0
LayerCount: 2
Fore
SplineSet
454 85 m 1,0,-1
 461 173 l 1,1,2
 461 241 461 241 432.5 271.5 c 128,-1,3
 404 302 404 302 365 302 c 2,4,-1
 191 302 l 1,5,-1
 149 0 l 1,6,-1
 51 0 l 1,7,-1
 147 686 l 1,8,-1
 439 686 l 2,9,10
 520 686 520 686 572.5 649.5 c 128,-1,11
 625 613 625 613 625 545 c 128,-1,12
 625 477 625 477 585 421 c 128,-1,13
 545 365 545 365 477 354 c 1,14,-1
 477 349 l 1,15,16
 563 311 563 311 563 202 c 1,17,-1
 555 104 l 1,18,19
 555 46 555 46 593 31 c 1,20,-1
 589 3 l 1,21,22
 567 -5 567 -5 532.5 -5 c 128,-1,23
 498 -5 498 -5 476 14 c 128,-1,24
 454 33 454 33 454 85 c 1,0,-1
233 597 m 1,25,-1
 204 391 l 1,26,-1
 399 391 l 2,27,28
 446 391 446 391 484.5 426 c 128,-1,29
 523 461 523 461 523 505.5 c 128,-1,30
 523 550 523 550 497.5 573.5 c 128,-1,31
 472 597 472 597 428 597 c 2,32,-1
 233 597 l 1,25,-1
EndSplineSet
Position2: "'cpsp' Capital Spacing lookup 0 subtable" dx=5 dy=0 dh=10 dv=0
EndChar

StartChar: Racute
Encoding: 340 340 71
Width: 670
GlyphClass: 2
Flags: MW
HStem: 302 89<204 365 191 399> 597 89<233 233 233 428> 750 145<302 507 302 507>
VStem: 461 102<186.5 223> 523 102<502 536.5>
AnchorPoint: "Bottom" 335 0 basechar 0
LayerCount: 2
Fore
SplineSet
507 891 m 1,0,-1
 371 750 l 1,1,-1
 302 750 l 1,2,-1
 417 895 l 1,3,-1
 507 895 l 1,4,-1
 507 891 l 1,0,-1
454 85 m 1,5,-1
 461 173 l 1,6,7
 461 241 461 241 432.5 271.5 c 128,-1,8
 404 302 404 302 365 302 c 2,9,-1
 191 302 l 1,10,-1
 149 0 l 1,11,-1
 51 0 l 1,12,-1
 147 686 l 1,13,-1
 439 686 l 2,14,15
 520 686 520 686 572.5 649.5 c 128,-1,16
 625 613 625 613 625 545 c 128,-1,17
 625 477 625 477 585 421 c 128,-1,18
 545 365 545 365 477 354 c 1,19,-1
 477 349 l 1,20,21
 563 311 563 311 563 202 c 1,22,-1
 555 104 l 1,23,24
 555 46 555 46 593 31 c 1,25,-1
 589 3 l 1,26,27
 567 -5 567 -5 532.5 -5 c 128,-1,28
 498 -5 498 -5 476 14 c 128,-1,29
 454 33 454 33 454 85 c 1,5,-1
233 597 m 1,30,-1
 204 391 l 1,31,-1
 399 391 l 2,32,33
 446 391 446 391 484.5 426 c 128,-1,34
 523 461 523 461 523 505.5 c 128,-1,35
 523 550 523 550 497.5 573.5 c 128,-1,36
 472 597 472 597 428 597 c 2,37,-1
 233 597 l 1,30,-1
EndSplineSet
EndChar

StartChar: Rcaron
Encoding: 344 344 72
Width: 670
GlyphClass: 2
Flags: MW
HStem: 302 89<204 365 191 399> 597 89<233 233 233 428> 750 145<210 403 210 325>
VStem: 461 102<186.5 223> 523 102<502 536.5>
AnchorPoint: "Bottom" 335 0 basechar 0
LayerCount: 2
Fore
SplineSet
403 750 m 1,0,-1
 325 750 l 1,1,-1
 210 895 l 1,2,-1
 290 895 l 1,3,-1
 372 806 l 1,4,-1
 479 895 l 1,5,-1
 559 895 l 1,6,-1
 403 750 l 1,0,-1
454 85 m 1,7,-1
 461 173 l 1,8,9
 461 241 461 241 432.5 271.5 c 128,-1,10
 404 302 404 302 365 302 c 2,11,-1
 191 302 l 1,12,-1
 149 0 l 1,13,-1
 51 0 l 1,14,-1
 147 686 l 1,15,-1
 439 686 l 2,16,17
 520 686 520 686 572.5 649.5 c 128,-1,18
 625 613 625 613 625 545 c 128,-1,19
 625 477 625 477 585 421 c 128,-1,20
 545 365 545 365 477 354 c 1,21,-1
 477 349 l 1,22,23
 563 311 563 311 563 202 c 1,24,-1
 555 104 l 1,25,26
 555 46 555 46 593 31 c 1,27,-1
 589 3 l 1,28,29
 567 -5 567 -5 532.5 -5 c 128,-1,30
 498 -5 498 -5 476 14 c 128,-1,31
 454 33 454 33 454 85 c 1,7,-1
233 597 m 1,32,-1
 204 391 l 1,33,-1
 399 391 l 2,34,35
 446 391 446 391 484.5 426 c 128,-1,36
 523 461 523 461 523 505.5 c 128,-1,37
 523 550 523 550 497.5 573.5 c 128,-1,38
 472 597 472 597 428 597 c 2,39,-1
 233 597 l 1,32,-1
EndSplineSet
EndChar

StartChar: Rcommaaccent
Encoding: 342 342 73
Width: 670
GlyphClass: 2
Flags: MW
HStem: -151 111<278 303 262 379> 302 89<204 365 191 399> 597 89<233 233 233 428>
VStem: 461 102<186.5 223> 523 102<502 536.5>
AnchorPoint: "Bottom" 335 0 basechar 0
LayerCount: 2
Fore
SplineSet
454 85 m 1,0,-1
 461 173 l 1,1,2
 461 241 461 241 432.5 271.5 c 128,-1,3
 404 302 404 302 365 302 c 2,4,-1
 191 302 l 1,5,-1
 149 0 l 1,6,-1
 51 0 l 1,7,-1
 147 686 l 1,8,-1
 439 686 l 2,9,10
 520 686 520 686 572.5 649.5 c 128,-1,11
 625 613 625 613 625 545 c 128,-1,12
 625 477 625 477 585 421 c 128,-1,13
 545 365 545 365 477 354 c 1,14,-1
 477 349 l 1,15,16
 563 311 563 311 563 202 c 1,17,-1
 555 104 l 1,18,19
 555 46 555 46 593 31 c 1,20,-1
 589 3 l 1,21,22
 567 -5 567 -5 532.5 -5 c 128,-1,23
 498 -5 498 -5 476 14 c 128,-1,24
 454 33 454 33 454 85 c 1,0,-1
233 597 m 1,25,-1
 204 391 l 1,26,-1
 399 391 l 2,27,28
 446 391 446 391 484.5 426 c 128,-1,29
 523 461 523 461 523 505.5 c 128,-1,30
 523 550 523 550 497.5 573.5 c 128,-1,31
 472 597 472 597 428 597 c 2,32,-1
 233 597 l 1,25,-1
367 -125 m 1,33,-1
 320 -250 l 1,34,-1
 267 -250 l 1,35,-1
 303 -151 l 1,36,-1
 262 -151 l 1,37,-1
 278 -40 l 1,38,-1
 379 -40 l 1,39,-1
 367 -125 l 1,33,-1
EndSplineSet
EndChar

StartChar: S
Encoding: 83 83 74
Width: 629
GlyphClass: 2
Flags: MW
HStem: -10 89<236 334 236 355.5> 607 89<316 399>
VStem: 36 99<141.5 168.5> 97 100<430.5 539.5 430.5 566.5> 463 101<160.5 277.5> 490 98<530.5 548.5>
AnchorPoint: "Bottom" 285 0 basechar 0
LayerCount: 2
Fore
SplineSet
173 646 m 128,-1,1
 249 696 249 696 359 696 c 128,-1,2
 469 696 469 696 528.5 656.5 c 128,-1,3
 588 617 588 617 588 536 c 0,4,5
 588 515 588 515 584 492 c 1,6,-1
 486 492 l 1,7,8
 490 512 490 512 490 520 c 0,9,10
 490 562 490 562 455 584.5 c 128,-1,11
 420 607 420 607 354.5 607 c 128,-1,12
 289 607 289 607 243 581 c 128,-1,13
 197 555 197 555 197 509.5 c 128,-1,14
 197 464 197 464 235 440.5 c 128,-1,15
 273 417 273 417 327 404 c 128,-1,16
 381 391 381 391 434.5 374 c 128,-1,17
 488 357 488 357 526 316.5 c 128,-1,18
 564 276 564 276 564 211 c 0,19,20
 564 -10 564 -10 271 -10 c 0,21,22
 165 -10 165 -10 100.5 31 c 128,-1,23
 36 72 36 72 36 160 c 0,24,25
 36 194 36 194 43 215 c 1,26,-1
 141 215 l 1,27,28
 135 209 135 209 135 175 c 0,29,30
 135 127 135 127 173.5 103 c 128,-1,31
 212 79 212 79 288 79 c 128,-1,32
 364 79 364 79 413.5 110.5 c 128,-1,33
 463 142 463 142 463 201 c 0,34,35
 463 228 463 228 447.5 248 c 128,-1,36
 432 268 432 268 406 278.5 c 128,-1,37
 380 289 380 289 347 299.5 c 128,-1,38
 314 310 314 310 280 318 c 128,-1,39
 246 326 246 326 213 340.5 c 128,-1,40
 180 355 180 355 154 373.5 c 0,41,42
 97 414.057692308 97 414.057692308 97 505.028846154 c 128,-1,0
 97 596 97 596 173 646 c 128,-1,1
EndSplineSet
Position2: "'cpsp' Capital Spacing lookup 0 subtable" dx=5 dy=0 dh=10 dv=0
EndChar

StartChar: Sacute
Encoding: 346 346 75
Width: 629
GlyphClass: 2
Flags: MW
HStem: -10 89<236 334 236 355.5> 607 89<316 399> 750 145<302 507 302 507>
VStem: 36 99<141.5 168.5> 97 100<430.5 539.5 430.5 566.5> 463 101<160.5 277.5> 490 98<530.5 548.5>
AnchorPoint: "Bottom" 285 0 basechar 0
LayerCount: 2
Fore
SplineSet
507 891 m 1,0,-1
 371 750 l 1,1,-1
 302 750 l 1,2,-1
 417 895 l 1,3,-1
 507 895 l 1,4,-1
 507 891 l 1,0,-1
173 646 m 128,-1,6
 249 696 249 696 359 696 c 128,-1,7
 469 696 469 696 528.5 656.5 c 128,-1,8
 588 617 588 617 588 536 c 0,9,10
 588 515 588 515 584 492 c 1,11,-1
 486 492 l 1,12,13
 490 512 490 512 490 520 c 0,14,15
 490 562 490 562 455 584.5 c 128,-1,16
 420 607 420 607 354.5 607 c 128,-1,17
 289 607 289 607 243 581 c 128,-1,18
 197 555 197 555 197 509.5 c 128,-1,19
 197 464 197 464 235 440.5 c 128,-1,20
 273 417 273 417 327 404 c 128,-1,21
 381 391 381 391 434.5 374 c 128,-1,22
 488 357 488 357 526 316.5 c 128,-1,23
 564 276 564 276 564 211 c 0,24,25
 564 -10 564 -10 271 -10 c 0,26,27
 165 -10 165 -10 100.5 31 c 128,-1,28
 36 72 36 72 36 160 c 0,29,30
 36 194 36 194 43 215 c 1,31,-1
 141 215 l 1,32,33
 135 209 135 209 135 175 c 0,34,35
 135 127 135 127 173.5 103 c 128,-1,36
 212 79 212 79 288 79 c 128,-1,37
 364 79 364 79 413.5 110.5 c 128,-1,38
 463 142 463 142 463 201 c 0,39,40
 463 228 463 228 447.5 248 c 128,-1,41
 432 268 432 268 406 278.5 c 128,-1,42
 380 289 380 289 347 299.5 c 128,-1,43
 314 310 314 310 280 318 c 128,-1,44
 246 326 246 326 213 340.5 c 128,-1,45
 180 355 180 355 154 373.5 c 0,46,47
 97 414.057692308 97 414.057692308 97 505.028846154 c 128,-1,5
 97 596 97 596 173 646 c 128,-1,6
EndSplineSet
EndChar

StartChar: Scaron
Encoding: 352 352 76
Width: 629
GlyphClass: 2
Flags: MW
HStem: -10 89<236 334 236 355.5> 607 89<316 399> 750 145<224 417 224 339>
VStem: 36 99<141.5 168.5> 97 100<430.5 539.5 430.5 566.5> 463 101<160.5 277.5> 490 98<530.5 548.5>
LayerCount: 2
Fore
SplineSet
417 750 m 1,0,-1
 339 750 l 1,1,-1
 224 895 l 1,2,-1
 304 895 l 1,3,-1
 386 806 l 1,4,-1
 493 895 l 1,5,-1
 573 895 l 1,6,-1
 417 750 l 1,0,-1
173 646 m 128,-1,8
 249 696 249 696 359 696 c 128,-1,9
 469 696 469 696 528.5 656.5 c 128,-1,10
 588 617 588 617 588 536 c 0,11,12
 588 515 588 515 584 492 c 1,13,-1
 486 492 l 1,14,15
 490 512 490 512 490 520 c 0,16,17
 490 562 490 562 455 584.5 c 128,-1,18
 420 607 420 607 354.5 607 c 128,-1,19
 289 607 289 607 243 581 c 128,-1,20
 197 555 197 555 197 509.5 c 128,-1,21
 197 464 197 464 235 440.5 c 128,-1,22
 273 417 273 417 327 404 c 128,-1,23
 381 391 381 391 434.5 374 c 128,-1,24
 488 357 488 357 526 316.5 c 128,-1,25
 564 276 564 276 564 211 c 0,26,27
 564 -10 564 -10 271 -10 c 0,28,29
 165 -10 165 -10 100.5 31 c 128,-1,30
 36 72 36 72 36 160 c 0,31,32
 36 194 36 194 43 215 c 1,33,-1
 141 215 l 1,34,35
 135 209 135 209 135 175 c 0,36,37
 135 127 135 127 173.5 103 c 128,-1,38
 212 79 212 79 288 79 c 128,-1,39
 364 79 364 79 413.5 110.5 c 128,-1,40
 463 142 463 142 463 201 c 0,41,42
 463 228 463 228 447.5 248 c 128,-1,43
 432 268 432 268 406 278.5 c 128,-1,44
 380 289 380 289 347 299.5 c 128,-1,45
 314 310 314 310 280 318 c 128,-1,46
 246 326 246 326 213 340.5 c 128,-1,47
 180 355 180 355 154 373.5 c 0,48,49
 97 414.057692308 97 414.057692308 97 505.028846154 c 128,-1,7
 97 596 97 596 173 646 c 128,-1,8
EndSplineSet
Position2: "'cpsp' Capital Spacing lookup 0 subtable" dx=5 dy=0 dh=10 dv=0
EndChar

StartChar: Scedilla
Encoding: 350 350 77
Width: 629
GlyphClass: 2
Flags: MW
HStem: -197 51<251 286 248.5 290> -60 43<272 287 266 296> -10 89<236 334 236 355.5> 607 89<316 399>
VStem: 36 99<141.5 168.5> 97 100<430.5 539.5 430.5 566.5> 333 63<-113 -83.5> 463 101<160.5 277.5> 490 98<530.5 548.5>
AnchorPoint: "Bottom" 285 0 basechar 0
LayerCount: 2
Fore
SplineSet
173 646 m 128,-1,1
 249 696 249 696 359 696 c 128,-1,2
 469 696 469 696 528.5 656.5 c 128,-1,3
 588 617 588 617 588 536 c 0,4,5
 588 515 588 515 584 492 c 1,6,-1
 486 492 l 1,7,8
 490 512 490 512 490 520 c 0,9,10
 490 562 490 562 455 584.5 c 128,-1,11
 420 607 420 607 354.5 607 c 128,-1,12
 289 607 289 607 243 581 c 128,-1,13
 197 555 197 555 197 509.5 c 128,-1,14
 197 464 197 464 235 440.5 c 128,-1,15
 273 417 273 417 327 404 c 128,-1,16
 381 391 381 391 434.5 374 c 128,-1,17
 488 357 488 357 526 316.5 c 128,-1,18
 564 276 564 276 564 211 c 0,19,20
 564 -10 564 -10 271 -10 c 0,21,22
 165 -10 165 -10 100.5 31 c 128,-1,23
 36 72 36 72 36 160 c 0,24,25
 36 194 36 194 43 215 c 1,26,-1
 141 215 l 1,27,28
 135 209 135 209 135 175 c 0,29,30
 135 127 135 127 173.5 103 c 128,-1,31
 212 79 212 79 288 79 c 128,-1,32
 364 79 364 79 413.5 110.5 c 128,-1,33
 463 142 463 142 463 201 c 0,34,35
 463 228 463 228 447.5 248 c 128,-1,36
 432 268 432 268 406 278.5 c 128,-1,37
 380 289 380 289 347 299.5 c 128,-1,38
 314 310 314 310 280 318 c 128,-1,39
 246 326 246 326 213 340.5 c 128,-1,40
 180 355 180 355 154 373.5 c 0,41,42
 97 414.057692308 97 414.057692308 97 505.028846154 c 128,-1,0
 97 596 97 596 173 646 c 128,-1,1
272 -17 m 1,43,-1
 296 -17 l 2,44,45
 396 -17 396 -17 396 -90 c 0,46,47
 396 -130 396 -130 372 -155.5 c 0,48,49
 332.941176471 -197 332.941176471 -197 272.470588235 -197 c 128,-1,50
 212 -197 212 -197 175 -175 c 1,51,-1
 191 -126 l 1,52,53
 227 -146 227 -146 261.5 -146 c 0,54,55
 333 -146 333 -146 333 -95 c 0,56,57
 333 -60 333 -60 287 -60 c 2,58,-1
 266 -60 l 1,59,-1
 272 -17 l 1,43,-1
EndSplineSet
EndChar

StartChar: Scommaaccent
Encoding: 536 536 78
Width: 629
GlyphClass: 2
Flags: MW
HStem: -151 111<228 253 212 329> -10 89<236 334 236 355.5> 607 89<316 399>
VStem: 36 99<141.5 168.5> 97 100<430.5 539.5 430.5 566.5> 463 101<160.5 277.5> 490 98<530.5 548.5>
AnchorPoint: "Bottom" 285 0 basechar 0
LayerCount: 2
Fore
SplineSet
173 646 m 128,-1,1
 249 696 249 696 359 696 c 128,-1,2
 469 696 469 696 528.5 656.5 c 128,-1,3
 588 617 588 617 588 536 c 0,4,5
 588 515 588 515 584 492 c 1,6,-1
 486 492 l 1,7,8
 490 512 490 512 490 520 c 0,9,10
 490 562 490 562 455 584.5 c 128,-1,11
 420 607 420 607 354.5 607 c 128,-1,12
 289 607 289 607 243 581 c 128,-1,13
 197 555 197 555 197 509.5 c 128,-1,14
 197 464 197 464 235 440.5 c 128,-1,15
 273 417 273 417 327 404 c 128,-1,16
 381 391 381 391 434.5 374 c 128,-1,17
 488 357 488 357 526 316.5 c 128,-1,18
 564 276 564 276 564 211 c 0,19,20
 564 -10 564 -10 271 -10 c 0,21,22
 165 -10 165 -10 100.5 31 c 128,-1,23
 36 72 36 72 36 160 c 0,24,25
 36 194 36 194 43 215 c 1,26,-1
 141 215 l 1,27,28
 135 209 135 209 135 175 c 0,29,30
 135 127 135 127 173.5 103 c 128,-1,31
 212 79 212 79 288 79 c 128,-1,32
 364 79 364 79 413.5 110.5 c 128,-1,33
 463 142 463 142 463 201 c 0,34,35
 463 228 463 228 447.5 248 c 128,-1,36
 432 268 432 268 406 278.5 c 128,-1,37
 380 289 380 289 347 299.5 c 128,-1,38
 314 310 314 310 280 318 c 128,-1,39
 246 326 246 326 213 340.5 c 128,-1,40
 180 355 180 355 154 373.5 c 0,41,42
 97 414.057692308 97 414.057692308 97 505.028846154 c 128,-1,0
 97 596 97 596 173 646 c 128,-1,1
317 -125 m 1,43,-1
 270 -250 l 1,44,-1
 217 -250 l 1,45,-1
 253 -151 l 1,46,-1
 212 -151 l 1,47,-1
 228 -40 l 1,48,-1
 329 -40 l 1,49,-1
 317 -125 l 1,43,-1
EndSplineSet
EndChar

StartChar: T
Encoding: 84 84 79
Width: 575
GlyphClass: 2
Flags: MW
HStem: 597 89<80 281 67 607 379 594 379 379>
VStem: 67 540<597 686>
AnchorPoint: "Bottom" 246 0 basechar 0
LayerCount: 2
Fore
SplineSet
594 597 m 1,0,-1
 379 597 l 1,1,-1
 295 0 l 1,2,-1
 197 0 l 1,3,-1
 281 597 l 1,4,-1
 67 597 l 1,5,-1
 80 686 l 1,6,-1
 607 686 l 1,7,-1
 594 597 l 1,0,-1
EndSplineSet
Position2: "'cpsp' Capital Spacing lookup 0 subtable" dx=5 dy=0 dh=10 dv=0
EndChar

StartChar: Tcaron
Encoding: 356 356 80
Width: 575
GlyphClass: 2
Flags: MW
HStem: 597 89<80 281 67 607 379 594 379 379> 750 145<189 382 189 304>
VStem: 67 540<597 686>
AnchorPoint: "Bottom" 246 0 basechar 0
LayerCount: 2
Fore
SplineSet
382 750 m 1,0,-1
 304 750 l 1,1,-1
 189 895 l 1,2,-1
 269 895 l 1,3,-1
 351 806 l 1,4,-1
 458 895 l 1,5,-1
 538 895 l 1,6,-1
 382 750 l 1,0,-1
594 597 m 1,7,-1
 379 597 l 1,8,-1
 295 0 l 1,9,-1
 197 0 l 1,10,-1
 281 597 l 1,11,-1
 67 597 l 1,12,-1
 80 686 l 1,13,-1
 607 686 l 1,14,-1
 594 597 l 1,7,-1
EndSplineSet
EndChar

StartChar: Tcedilla
Encoding: 354 354 81
Width: 575
GlyphClass: 2
Flags: MW
HStem: -197 51<212 247 209.5 251> -60 43<233 248 227 257> 597 89<80 281 67 607 379 594 379 379>
VStem: 294 63<-113 -83.5>
AnchorPoint: "Bottom" 246 0 basechar 0
LayerCount: 2
Fore
SplineSet
594 597 m 1,0,-1
 379 597 l 1,1,-1
 295 0 l 1,2,-1
 197 0 l 1,3,-1
 281 597 l 1,4,-1
 67 597 l 1,5,-1
 80 686 l 1,6,-1
 607 686 l 1,7,-1
 594 597 l 1,0,-1
233 -17 m 1,8,-1
 257 -17 l 2,9,10
 357 -17 357 -17 357 -90 c 0,11,12
 357 -130 357 -130 333 -155.5 c 0,13,14
 293.941176471 -197 293.941176471 -197 233.470588235 -197 c 128,-1,15
 173 -197 173 -197 136 -175 c 1,16,-1
 152 -126 l 1,17,18
 188 -146 188 -146 222.5 -146 c 0,19,20
 294 -146 294 -146 294 -95 c 0,21,22
 294 -60 294 -60 248 -60 c 2,23,-1
 227 -60 l 1,24,-1
 233 -17 l 1,8,-1
EndSplineSet
EndChar

StartChar: Tcommaaccent
Encoding: 538 538 82
Width: 575
GlyphClass: 2
Flags: MW
HStem: -151 111<189 214 173 290> 597 89<80 281 67 607 379 594 379 379>
VStem: 67 540<597 686>
AnchorPoint: "Bottom" 246 0 basechar 0
LayerCount: 2
Fore
SplineSet
594 597 m 1,0,-1
 379 597 l 1,1,-1
 295 0 l 1,2,-1
 197 0 l 1,3,-1
 281 597 l 1,4,-1
 67 597 l 1,5,-1
 80 686 l 1,6,-1
 607 686 l 1,7,-1
 594 597 l 1,0,-1
278 -125 m 1,8,-1
 231 -250 l 1,9,-1
 178 -250 l 1,10,-1
 214 -151 l 1,11,-1
 173 -151 l 1,12,-1
 189 -40 l 1,13,-1
 290 -40 l 1,14,-1
 278 -125 l 1,8,-1
EndSplineSet
EndChar

StartChar: U
Encoding: 85 85 83
Width: 682
GlyphClass: 2
Flags: MW
HStem: -10 89<267 292 292 305> 666 20G<142 240 240 240 552 650 650 650>
VStem: 74 99<164.5 190.5>
LayerCount: 2
Fore
SplineSet
650 686 m 1,0,-1
 585 219 l 2,1,2
 570 112 570 112 497.5 51 c 128,-1,3
 425 -10 425 -10 305 -10 c 2,4,-1
 292 -10 l 2,5,6
 190 -10 190 -10 132 41 c 128,-1,7
 74 92 74 92 74 180 c 0,8,9
 74 189 74 189 142 686 c 1,10,-1
 240 686 l 1,11,12
 207.2 440 207.2 440 182 272 c 1,13,-1
 176 228 l 2,14,15
 173 209 173 209 173 200 c 0,16,17
 173 146 173 146 209.5 112.5 c 128,-1,18
 246 79 246 79 314.5 79 c 128,-1,19
 383 79 383 79 430.5 118 c 128,-1,20
 478 157 478 157 487 221 c 2,21,-1
 552 686 l 1,22,-1
 650 686 l 1,0,-1
EndSplineSet
Position2: "'cpsp' Capital Spacing lookup 0 subtable" dx=5 dy=0 dh=10 dv=0
EndChar

StartChar: Uacute
Encoding: 218 218 84
Width: 682
GlyphClass: 2
Flags: MW
HStem: -10 89<267 292 292 305> 666 20G<142 240 240 240 552 650 650 650> 750 145<367 572 367 572>
VStem: 74 99<164.5 190.5>
LayerCount: 2
Fore
SplineSet
572 891 m 1,0,-1
 436 750 l 1,1,-1
 367 750 l 1,2,-1
 482 895 l 1,3,-1
 572 895 l 1,4,-1
 572 891 l 1,0,-1
650 686 m 1,5,-1
 585 219 l 2,6,7
 570 112 570 112 497.5 51 c 128,-1,8
 425 -10 425 -10 305 -10 c 2,9,-1
 292 -10 l 2,10,11
 190 -10 190 -10 132 41 c 128,-1,12
 74 92 74 92 74 180 c 0,13,14
 74 189 74 189 142 686 c 1,15,-1
 240 686 l 1,16,17
 207.2 440 207.2 440 182 272 c 1,18,-1
 176 228 l 2,19,20
 173 209 173 209 173 200 c 0,21,22
 173 146 173 146 209.5 112.5 c 128,-1,23
 246 79 246 79 314.5 79 c 128,-1,24
 383 79 383 79 430.5 118 c 128,-1,25
 478 157 478 157 487 221 c 2,26,-1
 552 686 l 1,27,-1
 650 686 l 1,5,-1
EndSplineSet
Position2: "'cpsp' Capital Spacing lookup 0 subtable" dx=5 dy=0 dh=10 dv=0
EndChar

StartChar: Ucircumflex
Encoding: 219 219 85
Width: 682
GlyphClass: 2
Flags: MW
HStem: -10 89<267 292 292 305> 666 20G<142 240 240 240 552 650 650 650> 750 145<223 458 380 572 380 492>
VStem: 74 99<164.5 190.5>
LayerCount: 2
Fore
SplineSet
572 750 m 1,0,-1
 492 750 l 1,1,-1
 411 839 l 1,2,-1
 303 750 l 1,3,-1
 223 750 l 1,4,-1
 380 895 l 1,5,-1
 458 895 l 1,6,-1
 572 750 l 1,0,-1
650 686 m 1,7,-1
 585 219 l 2,8,9
 570 112 570 112 497.5 51 c 128,-1,10
 425 -10 425 -10 305 -10 c 2,11,-1
 292 -10 l 2,12,13
 190 -10 190 -10 132 41 c 128,-1,14
 74 92 74 92 74 180 c 0,15,16
 74 189 74 189 142 686 c 1,17,-1
 240 686 l 1,18,19
 207.2 440 207.2 440 182 272 c 1,20,-1
 176 228 l 2,21,22
 173 209 173 209 173 200 c 0,23,24
 173 146 173 146 209.5 112.5 c 128,-1,25
 246 79 246 79 314.5 79 c 128,-1,26
 383 79 383 79 430.5 118 c 128,-1,27
 478 157 478 157 487 221 c 2,28,-1
 552 686 l 1,29,-1
 650 686 l 1,7,-1
EndSplineSet
Position2: "'cpsp' Capital Spacing lookup 0 subtable" dx=5 dy=0 dh=10 dv=0
EndChar

StartChar: Udieresis
Encoding: 220 220 86
Width: 682
GlyphClass: 2
Flags: MW
HStem: -10 89<267 292 292 305> 666 20G<142 240 240 240 552 650 650 650> 749 98<278 355 265 368 278 453 466 544>
VStem: 74 99<164.5 190.5>
LayerCount: 2
Fore
SplineSet
355 749 m 1,0,-1
 265 749 l 1,1,-1
 278 847 l 1,2,-1
 368 847 l 1,3,-1
 355 749 l 1,0,-1
544 749 m 1,4,-1
 453 749 l 1,5,-1
 466 847 l 1,6,-1
 557 847 l 1,7,-1
 544 749 l 1,4,-1
650 686 m 1,8,-1
 585 219 l 2,9,10
 570 112 570 112 497.5 51 c 128,-1,11
 425 -10 425 -10 305 -10 c 2,12,-1
 292 -10 l 2,13,14
 190 -10 190 -10 132 41 c 128,-1,15
 74 92 74 92 74 180 c 0,16,17
 74 189 74 189 142 686 c 1,18,-1
 240 686 l 1,19,20
 207.2 440 207.2 440 182 272 c 1,21,-1
 176 228 l 2,22,23
 173 209 173 209 173 200 c 0,24,25
 173 146 173 146 209.5 112.5 c 128,-1,26
 246 79 246 79 314.5 79 c 128,-1,27
 383 79 383 79 430.5 118 c 128,-1,28
 478 157 478 157 487 221 c 2,29,-1
 552 686 l 1,30,-1
 650 686 l 1,8,-1
EndSplineSet
Position2: "'cpsp' Capital Spacing lookup 0 subtable" dx=5 dy=0 dh=10 dv=0
EndChar

StartChar: Ugrave
Encoding: 217 217 87
Width: 682
GlyphClass: 2
Flags: MW
HStem: -10 89<267 292 292 305> 666 20G<142 240 240 240 552 650 650 650> 750 145<279 442 279 372>
VStem: 74 99<164.5 190.5>
LayerCount: 2
Fore
SplineSet
442 750 m 1,0,-1
 372 750 l 1,1,-1
 277 892 l 1,2,-1
 279 895 l 1,3,-1
 368 895 l 1,4,-1
 442 750 l 1,0,-1
650 686 m 1,5,-1
 585 219 l 2,6,7
 570 112 570 112 497.5 51 c 128,-1,8
 425 -10 425 -10 305 -10 c 2,9,-1
 292 -10 l 2,10,11
 190 -10 190 -10 132 41 c 128,-1,12
 74 92 74 92 74 180 c 0,13,14
 74 189 74 189 142 686 c 1,15,-1
 240 686 l 1,16,17
 207.2 440 207.2 440 182 272 c 1,18,-1
 176 228 l 2,19,20
 173 209 173 209 173 200 c 0,21,22
 173 146 173 146 209.5 112.5 c 128,-1,23
 246 79 246 79 314.5 79 c 128,-1,24
 383 79 383 79 430.5 118 c 128,-1,25
 478 157 478 157 487 221 c 2,26,-1
 552 686 l 1,27,-1
 650 686 l 1,5,-1
EndSplineSet
Position2: "'cpsp' Capital Spacing lookup 0 subtable" dx=5 dy=0 dh=10 dv=0
EndChar

StartChar: Uhungarumlaut
Encoding: 368 368 88
Width: 682
GlyphClass: 2
Flags: MW
HStem: -10 89<267 292 292 305> 666 20G<142 240 240 240 552 650 650 650> 750 145<266 471 266 471 421 421 421 471 382 491>
VStem: 74 99<164.5 190.5>
LayerCount: 2
Fore
SplineSet
471 890 m 1,0,-1
 336 750 l 1,1,-1
 266 750 l 1,2,-1
 382 895 l 1,3,-1
 471 895 l 1,4,-1
 471 890 l 1,0,-1
626 890 m 1,5,-1
 491 750 l 1,6,-1
 421 750 l 1,7,-1
 536 895 l 1,8,-1
 626 895 l 1,9,-1
 626 890 l 1,5,-1
650 686 m 1,10,-1
 585 219 l 2,11,12
 570 112 570 112 497.5 51 c 128,-1,13
 425 -10 425 -10 305 -10 c 2,14,-1
 292 -10 l 2,15,16
 190 -10 190 -10 132 41 c 128,-1,17
 74 92 74 92 74 180 c 0,18,19
 74 189 74 189 142 686 c 1,20,-1
 240 686 l 1,21,22
 207.2 440 207.2 440 182 272 c 1,23,-1
 176 228 l 2,24,25
 173 209 173 209 173 200 c 0,26,27
 173 146 173 146 209.5 112.5 c 128,-1,28
 246 79 246 79 314.5 79 c 128,-1,29
 383 79 383 79 430.5 118 c 128,-1,30
 478 157 478 157 487 221 c 2,31,-1
 552 686 l 1,32,-1
 650 686 l 1,10,-1
EndSplineSet
EndChar

StartChar: Umacron
Encoding: 362 362 89
Width: 682
GlyphClass: 2
Flags: MW
HStem: -10 89<267 292 292 305> 666 20G<142 240 240 240 552 650 650 650> 837 74<262 569 251 580>
VStem: 74 99<164.5 190.5>
LayerCount: 2
Fore
SplineSet
569 837 m 1,0,-1
 251 837 l 1,1,-1
 262 911 l 1,2,-1
 580 911 l 1,3,-1
 569 837 l 1,0,-1
650 686 m 1,4,-1
 585 219 l 2,5,6
 570 112 570 112 497.5 51 c 128,-1,7
 425 -10 425 -10 305 -10 c 2,8,-1
 292 -10 l 2,9,10
 190 -10 190 -10 132 41 c 128,-1,11
 74 92 74 92 74 180 c 0,12,13
 74 189 74 189 142 686 c 1,14,-1
 240 686 l 1,15,16
 207.2 440 207.2 440 182 272 c 1,17,-1
 176 228 l 2,18,19
 173 209 173 209 173 200 c 0,20,21
 173 146 173 146 209.5 112.5 c 128,-1,22
 246 79 246 79 314.5 79 c 128,-1,23
 383 79 383 79 430.5 118 c 128,-1,24
 478 157 478 157 487 221 c 2,25,-1
 552 686 l 1,26,-1
 650 686 l 1,4,-1
EndSplineSet
EndChar

StartChar: Uogonek
Encoding: 370 370 90
Width: 682
GlyphClass: 2
Flags: MW
HStem: -143 47<396.5 406.5> -20 20G<393 422 422 422> -10 89<267 292 292 305> 666 20G<142 240 240 240 552 650 650 650>
VStem: 74 99<164.5 190.5> 303 63<-76.5 -65.5>
LayerCount: 2
Fore
SplineSet
650 686 m 1,0,-1
 585 219 l 2,1,2
 573 134 573 134 523.5 77 c 128,-1,3
 474 20 474 20 393 0 c 1,4,-1
 422 0 l 1,5,6
 401 -9 401 -9 383.5 -28 c 128,-1,7
 366 -47 366 -47 366 -65 c 0,8,9
 366 -96 366 -96 406 -96 c 0,10,11
 429 -96 429 -96 475 -82 c 1,12,-1
 483 -119 l 1,13,14
 439.5 -143 439.5 -143 396.25 -143 c 0,15,16
 303 -143 303 -143 303 -83 c 0,17,18
 303 -42 303 -42 357 -7 c 1,19,20
 333 -10 333 -10 305 -10 c 2,21,-1
 292 -10 l 2,22,23
 190 -10 190 -10 132 41 c 128,-1,24
 74 92 74 92 74 180 c 0,25,26
 74 189 74 189 142 686 c 1,27,-1
 240 686 l 1,28,29
 207.2 440 207.2 440 182 272 c 1,30,-1
 176 228 l 2,31,32
 173 209 173 209 173 200 c 0,33,34
 173 146 173 146 209.5 112.5 c 128,-1,35
 246 79 246 79 314.5 79 c 128,-1,36
 383 79 383 79 430.5 118 c 128,-1,37
 478 157 478 157 487 221 c 2,38,-1
 552 686 l 1,39,-1
 650 686 l 1,0,-1
EndSplineSet
EndChar

StartChar: Uring
Encoding: 366 366 91
Width: 682
GlyphClass: 2
Flags: MW
HStem: -10 89<267 292 292 305> 666 20G<142 240 240 240 552 650 650 650> 720 41<377 408.5 377 418> 881 41<384 416>
VStem: 74 99<164.5 190.5> 294 45<801.5 835.5 801.5 846> 454 45<807 840.5>
LayerCount: 2
Fore
SplineSet
327 891 m 128,-1,1
 360 922 360 922 402.5 922 c 128,-1,2
 445 922 445 922 472 895.5 c 128,-1,3
 499 869 499 869 499 826.5 c 128,-1,4
 499 784 499 784 466 752 c 128,-1,5
 433 720 433 720 390.5 720 c 128,-1,6
 348 720 348 720 321 746 c 128,-1,7
 294 772 294 772 294 816 c 128,-1,0
 294 860 294 860 327 891 c 128,-1,1
439 865 m 128,-1,9
 424 881 424 881 399.5 881 c 128,-1,10
 375 881 375 881 357 862.5 c 128,-1,11
 339 844 339 844 339 818.5 c 128,-1,12
 339 793 339 793 354 777 c 128,-1,13
 369 761 369 761 393 761 c 128,-1,14
 417 761 417 761 435.5 780 c 128,-1,15
 454 799 454 799 454 824 c 128,-1,8
 454 849 454 849 439 865 c 128,-1,9
650 686 m 1,16,-1
 585 219 l 2,17,18
 570 112 570 112 497.5 51 c 128,-1,19
 425 -10 425 -10 305 -10 c 2,20,-1
 292 -10 l 2,21,22
 190 -10 190 -10 132 41 c 128,-1,23
 74 92 74 92 74 180 c 0,24,25
 74 189 74 189 142 686 c 1,26,-1
 240 686 l 1,27,28
 207.2 440 207.2 440 182 272 c 1,29,-1
 176 228 l 2,30,31
 173 209 173 209 173 200 c 0,32,33
 173 146 173 146 209.5 112.5 c 128,-1,34
 246 79 246 79 314.5 79 c 128,-1,35
 383 79 383 79 430.5 118 c 128,-1,36
 478 157 478 157 487 221 c 2,37,-1
 552 686 l 1,38,-1
 650 686 l 1,16,-1
EndSplineSet
EndChar

StartChar: V
Encoding: 86 86 92
Width: 602
GlyphClass: 2
Flags: MW
HStem: 0 133<278 284 278 310 205 284> 666 20G<59 163 163 163 556 651 651 651>
VStem: 59 592<686 686>
LayerCount: 2
Fore
SplineSet
310 0 m 1,0,-1
 205 0 l 1,1,-1
 59 686 l 1,2,-1
 163 686 l 1,3,-1
 278 133 l 1,4,-1
 284 133 l 1,5,-1
 556 686 l 1,6,-1
 651 686 l 1,7,-1
 310 0 l 1,0,-1
EndSplineSet
Position2: "'cpsp' Capital Spacing lookup 0 subtable" dx=5 dy=0 dh=10 dv=0
EndChar

StartChar: W
Encoding: 87 87 93
Width: 914
GlyphClass: 2
Flags: MW
HStem: 0 169<243 249 243 265 165 249 635 641> 496 190<480 487 480 480> 666 20G<67 171 171 171 468 563 563 563 860 955 955 955>
VStem: 67 888<686 686>
LayerCount: 2
Fore
SplineSet
657 0 m 1,0,-1
 557 0 l 1,1,-1
 487 496 l 1,2,-1
 480 496 l 1,3,-1
 265 0 l 1,4,-1
 165 0 l 1,5,-1
 67 686 l 1,6,-1
 171 686 l 1,7,-1
 243 169 l 1,8,-1
 249 169 l 1,9,-1
 468 686 l 1,10,-1
 563 686 l 1,11,-1
 635 169 l 1,12,-1
 641 169 l 1,13,-1
 860 686 l 1,14,-1
 955 686 l 1,15,-1
 657 0 l 1,0,-1
EndSplineSet
Position2: "'cpsp' Capital Spacing lookup 0 subtable" dx=5 dy=0 dh=10 dv=0
EndChar

StartChar: X
Encoding: 88 88 94
Width: 628
GlyphClass: 2
Flags: MW
HStem: 665 20G
VStem: -32 686<0 685>
LayerCount: 2
Fore
SplineSet
310 276 m 1,0,-1
 76 0 l 1,1,-1
 -32 0 l 1,2,-1
 267 355 l 1,3,-1
 88 685 l 1,4,-1
 205 685 l 1,5,-1
 338 440 l 1,6,7
 384 494 384 494 449 571.5 c 128,-1,8
 514 649 514 649 528 665 c 2,9,-1
 545 685 l 1,10,-1
 654 685 l 1,11,-1
 630 658 l 2,12,13
 607 632 607 632 520.5 527.5 c 128,-1,14
 434 423 434 423 381 361 c 1,15,-1
 579 0 l 1,16,-1
 461 0 l 1,17,-1
 310 276 l 1,0,-1
EndSplineSet
Position2: "'cpsp' Capital Spacing lookup 0 subtable" dx=5 dy=0 dh=10 dv=0
EndChar

StartChar: Y
Encoding: 89 89 95
Width: 570
GlyphClass: 2
Flags: MW
HStem: 666 20G<49 160 160 160 528 629 629 629>
VStem: 49 580<686 686>
LayerCount: 2
Fore
SplineSet
329 265 m 1,0,-1
 291 0 l 1,1,-1
 193 0 l 1,2,-1
 231 265 l 1,3,-1
 49 686 l 1,4,-1
 160 686 l 1,5,-1
 298 367 l 1,6,-1
 302 367 l 1,7,-1
 528 686 l 1,8,-1
 629 686 l 1,9,-1
 329 265 l 1,0,-1
EndSplineSet
Position2: "'cpsp' Capital Spacing lookup 0 subtable" dx=5 dy=0 dh=10 dv=0
EndChar

StartChar: Yacute
Encoding: 221 221 96
Width: 570
GlyphClass: 2
Flags: MW
HStem: 666 20G<49 160 160 160 528 629 629 629> 750 145<305 510 305 510>
VStem: 49 580<686 686>
LayerCount: 2
Fore
SplineSet
510 891 m 1,0,-1
 374 750 l 1,1,-1
 305 750 l 1,2,-1
 420 895 l 1,3,-1
 510 895 l 1,4,-1
 510 891 l 1,0,-1
329 265 m 1,5,-1
 291 0 l 1,6,-1
 193 0 l 1,7,-1
 231 265 l 1,8,-1
 49 686 l 1,9,-1
 160 686 l 1,10,-1
 298 367 l 1,11,-1
 302 367 l 1,12,-1
 528 686 l 1,13,-1
 629 686 l 1,14,-1
 329 265 l 1,5,-1
EndSplineSet
Position2: "'cpsp' Capital Spacing lookup 0 subtable" dx=5 dy=0 dh=10 dv=0
EndChar

StartChar: Ydieresis
Encoding: 376 376 97
Width: 570
GlyphClass: 2
Flags: MW
HStem: 666 20G<49 160 160 160 528 629 629 629> 749 98<226 303 213 316 226 401 414 492>
VStem: 49 580<686 686>
LayerCount: 2
Fore
SplineSet
303 749 m 1,0,-1
 213 749 l 1,1,-1
 226 847 l 1,2,-1
 316 847 l 1,3,-1
 303 749 l 1,0,-1
492 749 m 1,4,-1
 401 749 l 1,5,-1
 414 847 l 1,6,-1
 505 847 l 1,7,-1
 492 749 l 1,4,-1
329 265 m 1,8,-1
 291 0 l 1,9,-1
 193 0 l 1,10,-1
 231 265 l 1,11,-1
 49 686 l 1,12,-1
 160 686 l 1,13,-1
 298 367 l 1,14,-1
 302 367 l 1,15,-1
 528 686 l 1,16,-1
 629 686 l 1,17,-1
 329 265 l 1,8,-1
EndSplineSet
Position2: "'cpsp' Capital Spacing lookup 0 subtable" dx=5 dy=0 dh=10 dv=0
EndChar

StartChar: Z
Encoding: 90 90 98
Width: 595
GlyphClass: 2
Flags: MW
HStem: 0 89<153 514> 597 89<112 440 99 603>
VStem: -9 612
LayerCount: 2
Fore
SplineSet
597 648 m 1,0,-1
 153 89 l 1,1,-1
 527 89 l 1,2,-1
 514 0 l 1,3,-1
 -9 0 l 1,4,-1
 -3 38 l 1,5,-1
 440 597 l 1,6,-1
 99 597 l 1,7,-1
 112 686 l 1,8,-1
 603 686 l 1,9,-1
 597 648 l 1,0,-1
EndSplineSet
Position2: "'cpsp' Capital Spacing lookup 0 subtable" dx=5 dy=0 dh=10 dv=0
EndChar

StartChar: Zacute
Encoding: 377 377 99
Width: 595
GlyphClass: 2
Flags: MW
HStem: 0 89<153 514> 597 89<112 440 99 603> 750 145<295 500 295 500>
VStem: -9 612
LayerCount: 2
Fore
SplineSet
500 891 m 1,0,-1
 364 750 l 1,1,-1
 295 750 l 1,2,-1
 410 895 l 1,3,-1
 500 895 l 1,4,-1
 500 891 l 1,0,-1
597 648 m 1,5,-1
 153 89 l 1,6,-1
 527 89 l 1,7,-1
 514 0 l 1,8,-1
 -9 0 l 1,9,-1
 -3 38 l 1,10,-1
 440 597 l 1,11,-1
 99 597 l 1,12,-1
 112 686 l 1,13,-1
 603 686 l 1,14,-1
 597 648 l 1,5,-1
EndSplineSet
EndChar

StartChar: Zcaron
Encoding: 381 381 100
Width: 595
GlyphClass: 2
Flags: MW
HStem: 0 89<153 514> 597 89<112 440 99 603> 750 145<202 395 202 317>
VStem: -9 612
LayerCount: 2
Fore
SplineSet
395 750 m 1,0,-1
 317 750 l 1,1,-1
 202 895 l 1,2,-1
 282 895 l 1,3,-1
 364 806 l 1,4,-1
 471 895 l 1,5,-1
 551 895 l 1,6,-1
 395 750 l 1,0,-1
597 648 m 1,7,-1
 153 89 l 1,8,-1
 527 89 l 1,9,-1
 514 0 l 1,10,-1
 -9 0 l 1,11,-1
 -3 38 l 1,12,-1
 440 597 l 1,13,-1
 99 597 l 1,14,-1
 112 686 l 1,15,-1
 603 686 l 1,16,-1
 597 648 l 1,7,-1
EndSplineSet
Position2: "'cpsp' Capital Spacing lookup 0 subtable" dx=5 dy=0 dh=10 dv=0
EndChar

StartChar: Zdotaccent
Encoding: 379 379 101
Width: 595
GlyphClass: 2
Flags: MW
HStem: 0 89<153 514> 597 89<112 440 99 603> 779 132<362.5 388.5>
VStem: 311 133<832.5 854.5>
LayerCount: 2
Fore
SplineSet
331.5 888.5 m 128,-1,1
 352 911 352 911 382 911 c 128,-1,2
 412 911 412 911 428 894 c 128,-1,3
 444 877 444 877 444 849.5 c 128,-1,4
 444 822 444 822 421.5 800.5 c 128,-1,5
 399 779 399 779 371 779 c 128,-1,6
 343 779 343 779 327 794.5 c 128,-1,7
 311 810 311 810 311 838 c 128,-1,0
 311 866 311 866 331.5 888.5 c 128,-1,1
597 648 m 1,8,-1
 153 89 l 1,9,-1
 527 89 l 1,10,-1
 514 0 l 1,11,-1
 -9 0 l 1,12,-1
 -3 38 l 1,13,-1
 440 597 l 1,14,-1
 99 597 l 1,15,-1
 112 686 l 1,16,-1
 603 686 l 1,17,-1
 597 648 l 1,8,-1
EndSplineSet
EndChar

StartChar: a
Encoding: 97 97 102
Width: 607
GlyphClass: 2
Flags: MW
HStem: -10 75<210.5 250.5> 446 75<231.5 318.5 218.5 329.5> 491 20G<465 530 530 530>
VStem: 42 93<145 244 145 297.5>
LayerCount: 2
Fore
SplineSet
111.5 433 m 128,-1,1
 181 521 181 521 283.5 521 c 128,-1,2
 386 521 386 521 427 446 c 1,3,-1
 434 446 l 1,4,-1
 465 511 l 1,5,-1
 530 511 l 1,6,7
 513.883280757 411.820189274 513.883280757 411.820189274 492.941640379 252.910094637 c 128,-1,8
 472 94 472 94 472 92 c 0,9,10
 472 65 472 65 496.5 65 c 128,-1,11
 521 65 521 65 543 79 c 1,12,-1
 534 10 l 1,13,14
 502 -10 502 -10 457 -10 c 0,15,16
 381 -10 381 -10 381 65 c 1,17,18
 312 -10 312 -10 216 -10 c 0,19,20
 137 -10 137 -10 89.5 40.5 c 128,-1,21
 42 91 42 91 42 190 c 0,22,0
 42 345 42 345 111.5 433 c 128,-1,1
297 446 m 0,23,24
 251 446 251 446 217 421.5 c 128,-1,25
 183 397 183 397 166.5 357 c 0,26,27
 135 280.636363636 135 280.636363636 135 202.318181818 c 128,-1,28
 135 124 135 124 163 94.5 c 128,-1,29
 191 65 191 65 244 65 c 0,30,31
 324 65 324 65 365 136 c 128,-1,32
 406 207 406 207 406 318 c 0,33,34
 406 446 406 446 297 446 c 0,23,24
EndSplineSet
Substitution2: "Single Substitution lookup 5 subtable" ordfeminine
Substitution2: "'aalt' Access All Alternates lookup 0 subtable" ordfeminine
EndChar

StartChar: aacute
Encoding: 225 225 103
Width: 607
GlyphClass: 2
Flags: MW
HStem: -10 75<210.5 250.5> 446 75<231.5 318.5 218.5 329.5> 491 20G<465 530 530 530> 575 145<262 467 262 467>
VStem: 42 93<145 244 145 297.5>
LayerCount: 2
Fore
SplineSet
467 716 m 1,0,-1
 331 575 l 1,1,-1
 262 575 l 1,2,-1
 377 720 l 1,3,-1
 467 720 l 1,4,-1
 467 716 l 1,0,-1
111.5 433 m 128,-1,6
 181 521 181 521 283.5 521 c 128,-1,7
 386 521 386 521 427 446 c 1,8,-1
 434 446 l 1,9,-1
 465 511 l 1,10,-1
 530 511 l 1,11,12
 513.883280757 411.820189274 513.883280757 411.820189274 492.941640379 252.910094637 c 128,-1,13
 472 94 472 94 472 92 c 0,14,15
 472 65 472 65 496.5 65 c 128,-1,16
 521 65 521 65 543 79 c 1,17,-1
 534 10 l 1,18,19
 502 -10 502 -10 457 -10 c 0,20,21
 381 -10 381 -10 381 65 c 1,22,23
 312 -10 312 -10 216 -10 c 0,24,25
 137 -10 137 -10 89.5 40.5 c 128,-1,26
 42 91 42 91 42 190 c 0,27,5
 42 345 42 345 111.5 433 c 128,-1,6
297 446 m 0,28,29
 251 446 251 446 217 421.5 c 128,-1,30
 183 397 183 397 166.5 357 c 0,31,32
 135 280.636363636 135 280.636363636 135 202.318181818 c 128,-1,33
 135 124 135 124 163 94.5 c 128,-1,34
 191 65 191 65 244 65 c 0,35,36
 324 65 324 65 365 136 c 128,-1,37
 406 207 406 207 406 318 c 0,38,39
 406 446 406 446 297 446 c 0,28,29
EndSplineSet
EndChar

StartChar: abreve
Encoding: 259 259 104
Width: 607
GlyphClass: 2
Flags: MW
HStem: -10 75<210.5 250.5> 446 75<231.5 318.5 218.5 329.5> 491 20G<465 530 530 530> 613 62<285.5 347.5 285.5 361>
VStem: 42 93<145 244 145 297.5>
LayerCount: 2
Fore
SplineSet
449 737 m 1,0,-1
 517 737 l 1,1,2
 511 693 511 693 448 653 c 128,-1,3
 385 613 385 613 310 613 c 128,-1,4
 235 613 235 613 183 649.5 c 128,-1,5
 131 686 131 686 131 729 c 0,6,7
 131 735 131 735 132 737 c 1,8,-1
 199 737 l 1,9,10
 204 710 204 710 237 692.5 c 128,-1,11
 270 675 270 675 316.5 675 c 128,-1,12
 363 675 363 675 400 692.5 c 128,-1,13
 437 710 437 710 449 737 c 1,0,-1
111.5 433 m 128,-1,15
 181 521 181 521 283.5 521 c 128,-1,16
 386 521 386 521 427 446 c 1,17,-1
 434 446 l 1,18,-1
 465 511 l 1,19,-1
 530 511 l 1,20,21
 513.883280757 411.820189274 513.883280757 411.820189274 492.941640379 252.910094637 c 128,-1,22
 472 94 472 94 472 92 c 0,23,24
 472 65 472 65 496.5 65 c 128,-1,25
 521 65 521 65 543 79 c 1,26,-1
 534 10 l 1,27,28
 502 -10 502 -10 457 -10 c 0,29,30
 381 -10 381 -10 381 65 c 1,31,32
 312 -10 312 -10 216 -10 c 0,33,34
 137 -10 137 -10 89.5 40.5 c 128,-1,35
 42 91 42 91 42 190 c 0,36,14
 42 345 42 345 111.5 433 c 128,-1,15
297 446 m 0,37,38
 251 446 251 446 217 421.5 c 128,-1,39
 183 397 183 397 166.5 357 c 0,40,41
 135 280.636363636 135 280.636363636 135 202.318181818 c 128,-1,42
 135 124 135 124 163 94.5 c 128,-1,43
 191 65 191 65 244 65 c 0,44,45
 324 65 324 65 365 136 c 128,-1,46
 406 207 406 207 406 318 c 0,47,48
 406 446 406 446 297 446 c 0,37,38
EndSplineSet
EndChar

StartChar: acircumflex
Encoding: 226 226 105
Width: 607
GlyphClass: 2
Flags: MW
HStem: -10 75<210.5 250.5> 446 75<231.5 318.5 218.5 329.5> 491 20G<465 530 530 530> 575 145<145 380 302 494 302 414> 664 56<333 333>
VStem: 42 93<145 244 145 297.5>
LayerCount: 2
Fore
SplineSet
494 575 m 1,0,-1
 414 575 l 1,1,-1
 333 664 l 1,2,-1
 225 575 l 1,3,-1
 145 575 l 1,4,-1
 302 720 l 1,5,-1
 380 720 l 1,6,-1
 494 575 l 1,0,-1
111.5 433 m 128,-1,8
 181 521 181 521 283.5 521 c 128,-1,9
 386 521 386 521 427 446 c 1,10,-1
 434 446 l 1,11,-1
 465 511 l 1,12,-1
 530 511 l 1,13,14
 513.883280757 411.820189274 513.883280757 411.820189274 492.941640379 252.910094637 c 128,-1,15
 472 94 472 94 472 92 c 0,16,17
 472 65 472 65 496.5 65 c 128,-1,18
 521 65 521 65 543 79 c 1,19,-1
 534 10 l 1,20,21
 502 -10 502 -10 457 -10 c 0,22,23
 381 -10 381 -10 381 65 c 1,24,25
 312 -10 312 -10 216 -10 c 0,26,27
 137 -10 137 -10 89.5 40.5 c 128,-1,28
 42 91 42 91 42 190 c 0,29,7
 42 345 42 345 111.5 433 c 128,-1,8
297 446 m 0,30,31
 251 446 251 446 217 421.5 c 128,-1,32
 183 397 183 397 166.5 357 c 0,33,34
 135 280.636363636 135 280.636363636 135 202.318181818 c 128,-1,35
 135 124 135 124 163 94.5 c 128,-1,36
 191 65 191 65 244 65 c 0,37,38
 324 65 324 65 365 136 c 128,-1,39
 406 207 406 207 406 318 c 0,40,41
 406 446 406 446 297 446 c 0,30,31
EndSplineSet
EndChar

StartChar: adieresis
Encoding: 228 228 106
Width: 607
GlyphClass: 2
Flags: MW
HStem: -10 75<210.5 250.5> 446 75<231.5 318.5 218.5 329.5> 491 20G<465 530 530 530> 622 98<193 270 180 283 193 368 381 459>
VStem: 42 93<145 244 145 297.5>
LayerCount: 2
Fore
SplineSet
270 622 m 1,0,-1
 180 622 l 1,1,-1
 193 720 l 1,2,-1
 283 720 l 1,3,-1
 270 622 l 1,0,-1
459 622 m 1,4,-1
 368 622 l 1,5,-1
 381 720 l 1,6,-1
 472 720 l 1,7,-1
 459 622 l 1,4,-1
111.5 433 m 128,-1,9
 181 521 181 521 283.5 521 c 128,-1,10
 386 521 386 521 427 446 c 1,11,-1
 434 446 l 1,12,-1
 465 511 l 1,13,-1
 530 511 l 1,14,15
 513.883280757 411.820189274 513.883280757 411.820189274 492.941640379 252.910094637 c 128,-1,16
 472 94 472 94 472 92 c 0,17,18
 472 65 472 65 496.5 65 c 128,-1,19
 521 65 521 65 543 79 c 1,20,-1
 534 10 l 1,21,22
 502 -10 502 -10 457 -10 c 0,23,24
 381 -10 381 -10 381 65 c 1,25,26
 312 -10 312 -10 216 -10 c 0,27,28
 137 -10 137 -10 89.5 40.5 c 128,-1,29
 42 91 42 91 42 190 c 0,30,8
 42 345 42 345 111.5 433 c 128,-1,9
297 446 m 0,31,32
 251 446 251 446 217 421.5 c 128,-1,33
 183 397 183 397 166.5 357 c 0,34,35
 135 280.636363636 135 280.636363636 135 202.318181818 c 128,-1,36
 135 124 135 124 163 94.5 c 128,-1,37
 191 65 191 65 244 65 c 0,38,39
 324 65 324 65 365 136 c 128,-1,40
 406 207 406 207 406 318 c 0,41,42
 406 446 406 446 297 446 c 0,31,32
EndSplineSet
EndChar

StartChar: agrave
Encoding: 224 224 107
Width: 607
GlyphClass: 2
Flags: MW
HStem: -10 75<210.5 250.5> 446 75<231.5 318.5 218.5 329.5> 491 20G<465 530 530 530> 575 145<181 344 181 274>
VStem: 42 93<145 244 145 297.5>
LayerCount: 2
Fore
SplineSet
344 575 m 1,0,-1
 274 575 l 1,1,-1
 179 717 l 1,2,-1
 181 720 l 1,3,-1
 270 720 l 1,4,-1
 344 575 l 1,0,-1
111.5 433 m 128,-1,6
 181 521 181 521 283.5 521 c 128,-1,7
 386 521 386 521 427 446 c 1,8,-1
 434 446 l 1,9,-1
 465 511 l 1,10,-1
 530 511 l 1,11,12
 513.883280757 411.820189274 513.883280757 411.820189274 492.941640379 252.910094637 c 128,-1,13
 472 94 472 94 472 92 c 0,14,15
 472 65 472 65 496.5 65 c 128,-1,16
 521 65 521 65 543 79 c 1,17,-1
 534 10 l 1,18,19
 502 -10 502 -10 457 -10 c 0,20,21
 381 -10 381 -10 381 65 c 1,22,23
 312 -10 312 -10 216 -10 c 0,24,25
 137 -10 137 -10 89.5 40.5 c 128,-1,26
 42 91 42 91 42 190 c 0,27,5
 42 345 42 345 111.5 433 c 128,-1,6
297 446 m 0,28,29
 251 446 251 446 217 421.5 c 128,-1,30
 183 397 183 397 166.5 357 c 0,31,32
 135 280.636363636 135 280.636363636 135 202.318181818 c 128,-1,33
 135 124 135 124 163 94.5 c 128,-1,34
 191 65 191 65 244 65 c 0,35,36
 324 65 324 65 365 136 c 128,-1,37
 406 207 406 207 406 318 c 0,38,39
 406 446 406 446 297 446 c 0,28,29
EndSplineSet
EndChar

StartChar: amacron
Encoding: 257 257 108
Width: 607
GlyphClass: 2
Flags: MW
HStem: -10 75<210.5 250.5> 446 75<231.5 318.5 218.5 329.5> 491 20G<465 530 530 530> 662 74<170 477 159 488>
VStem: 42 93<145 244 145 297.5>
LayerCount: 2
Fore
SplineSet
477 662 m 1,0,-1
 159 662 l 1,1,-1
 170 736 l 1,2,-1
 488 736 l 1,3,-1
 477 662 l 1,0,-1
111.5 433 m 128,-1,5
 181 521 181 521 283.5 521 c 128,-1,6
 386 521 386 521 427 446 c 1,7,-1
 434 446 l 1,8,-1
 465 511 l 1,9,-1
 530 511 l 1,10,11
 513.883280757 411.820189274 513.883280757 411.820189274 492.941640379 252.910094637 c 128,-1,12
 472 94 472 94 472 92 c 0,13,14
 472 65 472 65 496.5 65 c 128,-1,15
 521 65 521 65 543 79 c 1,16,-1
 534 10 l 1,17,18
 502 -10 502 -10 457 -10 c 0,19,20
 381 -10 381 -10 381 65 c 1,21,22
 312 -10 312 -10 216 -10 c 0,23,24
 137 -10 137 -10 89.5 40.5 c 128,-1,25
 42 91 42 91 42 190 c 0,26,4
 42 345 42 345 111.5 433 c 128,-1,5
297 446 m 0,27,28
 251 446 251 446 217 421.5 c 128,-1,29
 183 397 183 397 166.5 357 c 0,30,31
 135 280.636363636 135 280.636363636 135 202.318181818 c 128,-1,32
 135 124 135 124 163 94.5 c 128,-1,33
 191 65 191 65 244 65 c 0,34,35
 324 65 324 65 365 136 c 128,-1,36
 406 207 406 207 406 318 c 0,37,38
 406 446 406 446 297 446 c 0,27,28
EndSplineSet
EndChar

StartChar: aogonek
Encoding: 261 261 109
Width: 607
GlyphClass: 2
Flags: MW
HStem: -143 47<478.5 488.5> -10 75<210.5 250.5> 446 75<231.5 318.5 218.5 329.5> 491 20G<465 530 530 530>
VStem: 42 93<145 244 145 297.5> 385 63<-76.5 -66>
LayerCount: 2
Fore
SplineSet
557 -82 m 1,0,-1
 565 -119 l 1,1,2
 521.5 -143 521.5 -143 478.25 -143 c 0,3,4
 385 -143 385 -143 385 -83 c 0,5,6
 385 -41 385 -41 437 -8 c 1,7,8
 381 1 381 1 381 65 c 1,9,10
 312 -10 312 -10 216 -10 c 0,11,12
 137 -10 137 -10 89.5 40.5 c 128,-1,13
 42 91 42 91 42 190 c 0,14,15
 42 345 42 345 111.5 433 c 128,-1,16
 181 521 181 521 283.5 521 c 128,-1,17
 386 521 386 521 427 446 c 1,18,-1
 434 446 l 1,19,-1
 465 511 l 1,20,-1
 530 511 l 1,21,22
 513.883280757 411.820189274 513.883280757 411.820189274 492.941640379 252.910094637 c 128,-1,23
 472 94 472 94 472 92 c 0,24,25
 472 65 472 65 496.5 65 c 128,-1,26
 521 65 521 65 543 79 c 1,27,-1
 534 10 l 1,28,29
 517 -1 517 -1 493 -6 c 1,30,31
 474 -17 474 -17 461 -33.5 c 128,-1,32
 448 -50 448 -50 448 -65 c 0,33,34
 448 -96 448 -96 488 -96 c 0,35,36
 511 -96 511 -96 557 -82 c 1,0,-1
244 65 m 0,37,38
 324 65 324 65 365 136 c 128,-1,39
 406 207 406 207 406 318 c 0,40,41
 406 446 406 446 297 446 c 0,42,43
 251 446 251 446 217 421.5 c 128,-1,44
 183 397 183 397 166.5 357 c 0,45,46
 135 280.636363636 135 280.636363636 135 202.318181818 c 128,-1,47
 135 124 135 124 163 94.5 c 128,-1,48
 191 65 191 65 244 65 c 0,37,38
EndSplineSet
EndChar

StartChar: aring
Encoding: 229 229 110
Width: 607
GlyphClass: 2
Flags: MW
HStem: -10 75<210.5 250.5> 446 75<231.5 318.5 218.5 329.5> 491 20G<465 530 530 530> 548 41<308 339.5 308 349> 709 41<315 347>
VStem: 42 93<145 244 145 297.5> 225 45<629.5 663.5 629.5 674> 385 45<635 668.5>
LayerCount: 2
Fore
SplineSet
258 719 m 128,-1,1
 291 750 291 750 333.5 750 c 128,-1,2
 376 750 376 750 403 723.5 c 128,-1,3
 430 697 430 697 430 654.5 c 128,-1,4
 430 612 430 612 397 580 c 128,-1,5
 364 548 364 548 321.5 548 c 128,-1,6
 279 548 279 548 252 574 c 128,-1,7
 225 600 225 600 225 644 c 128,-1,0
 225 688 225 688 258 719 c 128,-1,1
370 693 m 128,-1,9
 355 709 355 709 330.5 709 c 128,-1,10
 306 709 306 709 288 690.5 c 128,-1,11
 270 672 270 672 270 646.5 c 128,-1,12
 270 621 270 621 285 605 c 128,-1,13
 300 589 300 589 324 589 c 128,-1,14
 348 589 348 589 366.5 608 c 128,-1,15
 385 627 385 627 385 652 c 128,-1,8
 385 677 385 677 370 693 c 128,-1,9
111.5 433 m 128,-1,17
 181 521 181 521 283.5 521 c 128,-1,18
 386 521 386 521 427 446 c 1,19,-1
 434 446 l 1,20,-1
 465 511 l 1,21,-1
 530 511 l 1,22,23
 513.883280757 411.820189274 513.883280757 411.820189274 492.941640379 252.910094637 c 128,-1,24
 472 94 472 94 472 92 c 0,25,26
 472 65 472 65 496.5 65 c 128,-1,27
 521 65 521 65 543 79 c 1,28,-1
 534 10 l 1,29,30
 502 -10 502 -10 457 -10 c 0,31,32
 381 -10 381 -10 381 65 c 1,33,34
 312 -10 312 -10 216 -10 c 0,35,36
 137 -10 137 -10 89.5 40.5 c 128,-1,37
 42 91 42 91 42 190 c 0,38,16
 42 345 42 345 111.5 433 c 128,-1,17
297 446 m 0,39,40
 251 446 251 446 217 421.5 c 128,-1,41
 183 397 183 397 166.5 357 c 0,42,43
 135 280.636363636 135 280.636363636 135 202.318181818 c 128,-1,44
 135 124 135 124 163 94.5 c 128,-1,45
 191 65 191 65 244 65 c 0,46,47
 324 65 324 65 365 136 c 128,-1,48
 406 207 406 207 406 318 c 0,49,50
 406 446 406 446 297 446 c 0,39,40
EndSplineSet
EndChar

StartChar: atilde
Encoding: 227 227 111
Width: 607
GlyphClass: 2
Flags: MW
HStem: -10 75<210.5 250.5> 446 75<231.5 318.5 218.5 329.5> 491 20G<465 530 530 530> 616 69<391.5 433 391.5 440> 650 70<222 264>
VStem: 42 93<145 244 145 297.5>
LayerCount: 2
Fore
SplineSet
478 720 m 1,0,-1
 528 720 l 1,1,2
 521 679 521 679 488 647.5 c 128,-1,3
 455 616 455 616 401 616 c 0,4,5
 368 616 368 616 315.5 633 c 128,-1,6
 263 650 263 650 237 650 c 0,7,8
 192 650 192 650 177 616 c 1,9,-1
 129 616 l 1,10,11
 136 656 136 656 169 688 c 128,-1,12
 202 720 202 720 255 720 c 0,13,14
 288 720 288 720 340.5 702.5 c 128,-1,15
 393 685 393 685 418 685 c 0,16,17
 463 685 463 685 478 720 c 1,0,-1
111.5 433 m 128,-1,19
 181 521 181 521 283.5 521 c 128,-1,20
 386 521 386 521 427 446 c 1,21,-1
 434 446 l 1,22,-1
 465 511 l 1,23,-1
 530 511 l 1,24,25
 513.883280757 411.820189274 513.883280757 411.820189274 492.941640379 252.910094637 c 128,-1,26
 472 94 472 94 472 92 c 0,27,28
 472 65 472 65 496.5 65 c 128,-1,29
 521 65 521 65 543 79 c 1,30,-1
 534 10 l 1,31,32
 502 -10 502 -10 457 -10 c 0,33,34
 381 -10 381 -10 381 65 c 1,35,36
 312 -10 312 -10 216 -10 c 0,37,38
 137 -10 137 -10 89.5 40.5 c 128,-1,39
 42 91 42 91 42 190 c 0,40,18
 42 345 42 345 111.5 433 c 128,-1,19
297 446 m 0,41,42
 251 446 251 446 217 421.5 c 128,-1,43
 183 397 183 397 166.5 357 c 0,44,45
 135 280.636363636 135 280.636363636 135 202.318181818 c 128,-1,46
 135 124 135 124 163 94.5 c 128,-1,47
 191 65 191 65 244 65 c 0,48,49
 324 65 324 65 365 136 c 128,-1,50
 406 207 406 207 406 318 c 0,51,52
 406 446 406 446 297 446 c 0,41,42
EndSplineSet
EndChar

StartChar: ae
Encoding: 230 230 112
Width: 895
GlyphClass: 2
Flags: MW
HStem: -10 75<182.5 225 551 581 581 585> 234 73<304 382 489 751> 446 75<308 317 317 340 653 660 660 676.5>
VStem: 25 95<107 176.5 107 201> 76 93 381 93 754 92<339 377>
LayerCount: 2
Fore
SplineSet
653 521 m 2,0,-1
 660 521 l 2,1,2
 745 521 745 521 795.5 474 c 128,-1,3
 846 427 846 427 846 344 c 0,4,5
 846 302 846 302 833 234 c 1,6,-1
 476 234 l 1,7,8
 474 212 474 212 474 202 c 0,9,10
 474 65 474 65 595 65 c 0,11,12
 634 65 634 65 663.5 79 c 128,-1,13
 693 93 693 93 707.5 116 c 0,14,15
 732.1953125 155.171875 732.1953125 155.171875 738 190 c 1,16,-1
 827 190 l 1,17,18
 815 99 815 99 747 44.5 c 128,-1,19
 679 -10 679 -10 585 -10 c 2,20,-1
 581 -10 l 2,21,22
 445 -10 445 -10 397 101 c 1,23,24
 353 45 353 45 300.5 17.5 c 128,-1,25
 248 -10 248 -10 177.5 -10 c 0,26,27
 25 -10 25 -10 25 117 c 0,28,29
 25 210.870967742 25 210.870967742 94 256.5 c 0,30,31
 151.972137931 294.836413793 151.972137931 294.836413793 274.5 303.5 c 0,32,33
 324 307 324 307 393 307 c 1,34,35
 400 352 400 352 400 368 c 2,36,-1
 400 374 l 2,37,38
 400 446 400 446 293.5 446 c 128,-1,39
 187 446 187 446 170 366 c 1,40,-1
 168 354 l 1,41,-1
 76 354 l 1,42,43
 76 428 76 428 142 474.5 c 128,-1,44
 208 521 208 521 308 521 c 2,45,-1
 317 521 l 2,46,47
 442 521 442 521 481 457 c 1,48,49
 551 521 551 521 653 521 c 2,0,-1
724 419.5 m 128,-1,51
 694 446 694 446 640.5 446 c 128,-1,52
 587 446 587 446 546.5 411 c 128,-1,53
 506 376 506 376 489 307 c 1,54,-1
 751 307 l 1,55,56
 754 327 754 327 754 343 c 0,57,50
 754 393 754 393 724 419.5 c 128,-1,51
380 214 m 1,58,-1
 382 234 l 1,59,60
 258.19047619 234 258.19047619 234 207.095238095 219.5 c 128,-1,61
 156 205 156 205 138 185 c 128,-1,62
 120 165 120 165 120 129.5 c 128,-1,63
 120 94 120 94 142 79.5 c 128,-1,64
 164 65 164 65 218.5 65 c 128,-1,65
 273 65 273 65 322 106 c 128,-1,66
 371 147 371 147 380 214 c 1,58,-1
EndSplineSet
EndChar

StartChar: b
Encoding: 98 98 113
Width: 582
GlyphClass: 2
Flags: MW
HStem: -10 75<243 324 240.5 373.5> 446 75<327 359.5> 700 20G<143 237 237 237>
VStem: 436 95<254.5 366>
LayerCount: 2
Fore
SplineSet
237 720 m 1,0,-1
 198 446 l 1,1,2
 262 521 262 521 363 521 c 0,3,4
 438 521 438 521 484.5 470 c 128,-1,5
 531 419 531 419 531 325 c 0,6,7
 531 206.660714286 531 206.660714286 476 105.5 c 0,8,9
 448 54 448 54 397.5 22 c 128,-1,10
 347 -10 347 -10 281 -10 c 0,11,12
 167 -10 167 -10 122 81 c 1,13,-1
 78 0 l 1,14,-1
 42 0 l 1,15,-1
 143 720 l 1,16,-1
 237 720 l 1,0,-1
327 446 m 0,17,18
 269 446 269 446 231 406.5 c 128,-1,19
 193 367 193 367 179 313 c 128,-1,20
 165 259 165 259 165 191.5 c 128,-1,21
 165 124 165 124 193 94.5 c 128,-1,22
 221 65 221 65 274 65 c 0,23,24
 350 65 350 65 393 130 c 128,-1,25
 436 195 436 195 436 320.5 c 128,-1,26
 436 446 436 446 327 446 c 0,17,18
EndSplineSet
EndChar

StartChar: c
Encoding: 99 99 114
Width: 546
GlyphClass: 2
Flags: MW
HStem: -10 75<216 235 235 243> 446 75<309 317 317 337.5>
VStem: 42 93<148 247.5 148 278.5> 408 94<340.5 368.5>
AnchorPoint: "Bottom" 273 0 basechar 0
LayerCount: 2
Fore
SplineSet
309 521 m 2,0,-1
 317 521 l 2,1,2
 401 521 401 521 451.5 474 c 128,-1,3
 502 427 502 427 502 346 c 0,4,5
 502 329.5 502 329.5 499 310 c 1,6,-1
 406 310 l 1,7,8
 408 328 408 328 408 337 c 0,9,10
 408 386 408 386 381 416 c 128,-1,11
 354 446 354 446 304 446 c 128,-1,12
 254 446 254 446 219.5 422.5 c 128,-1,13
 185 399 185 399 167.5 360 c 0,14,15
 135 287.571428571 135 287.571428571 135 192 c 0,16,17
 135 65 135 65 252 65 c 0,18,19
 313 65 313 65 349 101.5 c 128,-1,20
 385 138 385 138 394 200 c 1,21,-1
 484 200 l 1,22,23
 470 99 470 99 407 44.5 c 128,-1,24
 344 -10 344 -10 243 -10 c 2,25,-1
 235 -10 l 2,26,27
 147 -10 147 -10 94.5 43 c 128,-1,28
 42 96 42 96 42 191 c 0,29,30
 42 333 42 333 110 427 c 128,-1,31
 178 521 178 521 309 521 c 2,0,-1
EndSplineSet
EndChar

StartChar: cacute
Encoding: 263 263 115
Width: 546
GlyphClass: 2
Flags: MW
HStem: -10 75<216 235 235 243> 446 75<309 317 317 337.5> 575 145<240 445 240 445>
VStem: 42 93<148 247.5 148 278.5> 408 94<340.5 368.5>
AnchorPoint: "Bottom" 273 0 basechar 0
LayerCount: 2
Fore
SplineSet
445 716 m 1,0,-1
 309 575 l 1,1,-1
 240 575 l 1,2,-1
 355 720 l 1,3,-1
 445 720 l 1,4,-1
 445 716 l 1,0,-1
309 521 m 2,5,-1
 317 521 l 2,6,7
 401 521 401 521 451.5 474 c 128,-1,8
 502 427 502 427 502 346 c 0,9,10
 502 329.5 502 329.5 499 310 c 1,11,-1
 406 310 l 1,12,13
 408 328 408 328 408 337 c 0,14,15
 408 386 408 386 381 416 c 128,-1,16
 354 446 354 446 304 446 c 128,-1,17
 254 446 254 446 219.5 422.5 c 128,-1,18
 185 399 185 399 167.5 360 c 0,19,20
 135 287.571428571 135 287.571428571 135 192 c 0,21,22
 135 65 135 65 252 65 c 0,23,24
 313 65 313 65 349 101.5 c 128,-1,25
 385 138 385 138 394 200 c 1,26,-1
 484 200 l 1,27,28
 470 99 470 99 407 44.5 c 128,-1,29
 344 -10 344 -10 243 -10 c 2,30,-1
 235 -10 l 2,31,32
 147 -10 147 -10 94.5 43 c 128,-1,33
 42 96 42 96 42 191 c 0,34,35
 42 333 42 333 110 427 c 128,-1,36
 178 521 178 521 309 521 c 2,5,-1
EndSplineSet
EndChar

StartChar: ccaron
Encoding: 269 269 116
Width: 546
GlyphClass: 2
Flags: MW
HStem: -10 75<216 235 235 243> 446 75<309 317 317 337.5> 575 145<148 341 148 263>
VStem: 42 93<148 247.5 148 278.5> 408 94<340.5 368.5>
AnchorPoint: "Bottom" 273 0 basechar 0
LayerCount: 2
Fore
SplineSet
341 575 m 1,0,-1
 263 575 l 1,1,-1
 148 720 l 1,2,-1
 228 720 l 1,3,-1
 310 631 l 1,4,-1
 417 720 l 1,5,-1
 497 720 l 1,6,-1
 341 575 l 1,0,-1
309 521 m 2,7,-1
 317 521 l 2,8,9
 401 521 401 521 451.5 474 c 128,-1,10
 502 427 502 427 502 346 c 0,11,12
 502 329.5 502 329.5 499 310 c 1,13,-1
 406 310 l 1,14,15
 408 328 408 328 408 337 c 0,16,17
 408 386 408 386 381 416 c 128,-1,18
 354 446 354 446 304 446 c 128,-1,19
 254 446 254 446 219.5 422.5 c 128,-1,20
 185 399 185 399 167.5 360 c 0,21,22
 135 287.571428571 135 287.571428571 135 192 c 0,23,24
 135 65 135 65 252 65 c 0,25,26
 313 65 313 65 349 101.5 c 128,-1,27
 385 138 385 138 394 200 c 1,28,-1
 484 200 l 1,29,30
 470 99 470 99 407 44.5 c 128,-1,31
 344 -10 344 -10 243 -10 c 2,32,-1
 235 -10 l 2,33,34
 147 -10 147 -10 94.5 43 c 128,-1,35
 42 96 42 96 42 191 c 0,36,37
 42 333 42 333 110 427 c 128,-1,38
 178 521 178 521 309 521 c 2,7,-1
EndSplineSet
EndChar

StartChar: ccedilla
Encoding: 231 231 117
Width: 546
GlyphClass: 2
Flags: MW
HStem: -197 51<183 218 180.5 222> -60 43<204 219 198 228> -10 75<216 235 235 243> 446 75<309 317 317 337.5>
VStem: 42 93<148 247.5 148 278.5> 265 63<-113 -83.5> 408 94<340.5 368.5>
LayerCount: 2
Fore
SplineSet
309 521 m 2,0,-1
 317 521 l 2,1,2
 401 521 401 521 451.5 474 c 128,-1,3
 502 427 502 427 502 346 c 0,4,5
 502 329.5 502 329.5 499 310 c 1,6,-1
 406 310 l 1,7,8
 408 328 408 328 408 337 c 0,9,10
 408 386 408 386 381 416 c 128,-1,11
 354 446 354 446 304 446 c 128,-1,12
 254 446 254 446 219.5 422.5 c 128,-1,13
 185 399 185 399 167.5 360 c 0,14,15
 135 287.571428571 135 287.571428571 135 192 c 0,16,17
 135 65 135 65 252 65 c 0,18,19
 313 65 313 65 349 101.5 c 128,-1,20
 385 138 385 138 394 200 c 1,21,-1
 484 200 l 1,22,23
 470 99 470 99 407 44.5 c 128,-1,24
 344 -10 344 -10 243 -10 c 2,25,-1
 235 -10 l 2,26,27
 147 -10 147 -10 94.5 43 c 128,-1,28
 42 96 42 96 42 191 c 0,29,30
 42 333 42 333 110 427 c 128,-1,31
 178 521 178 521 309 521 c 2,0,-1
204 -17 m 1,32,-1
 228 -17 l 2,33,34
 328 -17 328 -17 328 -90 c 0,35,36
 328 -130 328 -130 304 -155.5 c 0,37,38
 264.941176471 -197 264.941176471 -197 204.470588235 -197 c 128,-1,39
 144 -197 144 -197 107 -175 c 1,40,-1
 123 -126 l 1,41,42
 159 -146 159 -146 193.5 -146 c 0,43,44
 265 -146 265 -146 265 -95 c 0,45,46
 265 -60 265 -60 219 -60 c 2,47,-1
 198 -60 l 1,48,-1
 204 -17 l 1,32,-1
EndSplineSet
EndChar

StartChar: d
Encoding: 100 100 118
Width: 612
GlyphClass: 2
Flags: MW
HStem: -10 75<210.5 250.5> 446 75<231.5 318.5 218.5 329.5> 700 20G<466 560 560 560>
VStem: 42 93<145 244 145 297.5> 381 91<44.5 106.5>
LayerCount: 2
Fore
SplineSet
466 720 m 1,0,-1
 560 720 l 1,1,2
 472 114 472 114 472 89.5 c 128,-1,3
 472 65 472 65 496.5 65 c 128,-1,4
 521 65 521 65 543 79 c 1,5,-1
 534 10 l 1,6,7
 502 -10 502 -10 457 -10 c 0,8,9
 381 -10 381 -10 381 65 c 1,10,11
 312 -10 312 -10 216 -10 c 0,12,13
 137 -10 137 -10 89.5 40.5 c 128,-1,14
 42 91 42 91 42 190 c 0,15,16
 42 345 42 345 111.5 433 c 128,-1,17
 181 521 181 521 283.5 521 c 128,-1,18
 386 521 386 521 427 446 c 1,19,-1
 466 720 l 1,0,-1
297 446 m 0,20,21
 251 446 251 446 217 421.5 c 128,-1,22
 183 397 183 397 166.5 357 c 0,23,24
 135 280.636363636 135 280.636363636 135 202.318181818 c 128,-1,25
 135 124 135 124 163 94.5 c 128,-1,26
 191 65 191 65 244 65 c 0,27,28
 324 65 324 65 365 136 c 128,-1,29
 406 207 406 207 406 318 c 0,30,31
 406 446 406 446 297 446 c 0,20,21
EndSplineSet
EndChar

StartChar: eth
Encoding: 240 240 119
Width: 576
GlyphClass: 2
Flags: MW
HStem: -10 75<221 317 221 342> 446 75<245 324 221 343> 498 20G 709 20G
VStem: 40 96<150.5 254 150.5 270> 427 95<253 359>
LayerCount: 2
Fore
SplineSet
171 700 m 1,0,-1
 234 729 l 1,1,2
 283 701 283 701 322 673 c 1,3,-1
 422 717 l 1,4,5
 425 712 425 712 435 701 c 128,-1,6
 445 690 445 690 449 683 c 1,7,-1
 356 643 l 1,8,9
 522 492 522 492 522 322 c 0,10,11
 522 171 522 171 453 80.5 c 128,-1,12
 384 -10 384 -10 245 -10 c 0,13,14
 153 -10 153 -10 96.5 40.5 c 128,-1,15
 40 91 40 91 40 188 c 0,16,17
 40 317.753846154 40 317.753846154 105.5 415.5 c 0,18,19
 138 464 138 464 193 492.5 c 128,-1,20
 248 521 248 521 319 521 c 0,21,22
 334 521 334 521 351 518 c 1,23,24
 319 565 319 565 280 605 c 1,25,26
 271 600.5 271 600.5 183 562 c 1,27,-1
 152 595 l 1,28,-1
 252 639 l 1,29,30
 235 655 235 655 204 677 c 128,-1,31
 173 699 173 699 171 700 c 1,0,-1
395 413 m 128,-1,33
 363 446 363 446 306 446 c 128,-1,34
 249 446 249 446 208 406 c 0,35,36
 136 335.756097561 136 335.756097561 136 198 c 0,37,38
 136 130 136 130 168.5 97.5 c 128,-1,39
 201 65 201 65 257.5 65 c 128,-1,40
 314 65 314 65 354 103.5 c 0,41,42
 427 173.7625 427 173.7625 427 311 c 0,43,32
 427 380 427 380 395 413 c 128,-1,33
EndSplineSet
EndChar

StartChar: dcaron
Encoding: 271 271 120
Width: 612
GlyphClass: 2
Flags: MW
HStem: -10 75<210.5 250.5> 446 75<231.5 318.5 218.5 329.5> 575 111<606 631 590 707> 575 145<466 631 466 590>
VStem: 42 93<145 244 145 297.5> 381 91<44.5 106.5>
LayerCount: 2
Fore
SplineSet
466 720 m 1,0,-1
 560 720 l 1,1,2
 472 114 472 114 472 89.5 c 128,-1,3
 472 65 472 65 496.5 65 c 128,-1,4
 521 65 521 65 543 79 c 1,5,-1
 534 10 l 1,6,7
 502 -10 502 -10 457 -10 c 0,8,9
 381 -10 381 -10 381 65 c 1,10,11
 312 -10 312 -10 216 -10 c 0,12,13
 137 -10 137 -10 89.5 40.5 c 128,-1,14
 42 91 42 91 42 190 c 0,15,16
 42 345 42 345 111.5 433 c 128,-1,17
 181 521 181 521 283.5 521 c 128,-1,18
 386 521 386 521 427 446 c 1,19,-1
 466 720 l 1,0,-1
695 601 m 1,20,-1
 639 451 l 1,21,-1
 587 451 l 1,22,-1
 631 575 l 1,23,-1
 590 575 l 1,24,-1
 606 686 l 1,25,-1
 707 686 l 1,26,-1
 695 601 l 1,20,-1
297 446 m 0,27,28
 251 446 251 446 217 421.5 c 128,-1,29
 183 397 183 397 166.5 357 c 0,30,31
 135 280.636363636 135 280.636363636 135 202.318181818 c 128,-1,32
 135 124 135 124 163 94.5 c 128,-1,33
 191 65 191 65 244 65 c 0,34,35
 324 65 324 65 365 136 c 128,-1,36
 406 207 406 207 406 318 c 0,37,38
 406 446 406 446 297 446 c 0,27,28
EndSplineSet
EndChar

StartChar: dcroat
Encoding: 273 273 121
Width: 612
GlyphClass: 2
Flags: MW
HStem: -10 75<210.5 250.5> 446 75<231.5 318.5 218.5 329.5> 590 74<260 447 247 458 552 628> 590 130<247 560 541 560 466 628 541 541>
VStem: 42 93<145 244 145 297.5> 381 91<44.5 104.5> 462 94
LayerCount: 2
Fore
SplineSet
628 590 m 1,0,-1
 541 590 l 1,1,2
 472 113 472 113 472 89 c 128,-1,3
 472 65 472 65 496.5 65 c 128,-1,4
 521 65 521 65 543 79 c 1,5,-1
 534 10 l 1,6,7
 502 -10 502 -10 457 -10 c 0,8,9
 381 -10 381 -10 381 65 c 1,10,11
 312 -10 312 -10 216 -10 c 0,12,13
 137 -10 137 -10 89.5 40.5 c 128,-1,14
 42 91 42 91 42 190 c 0,15,16
 42 345 42 345 111.5 433 c 128,-1,17
 181 521 181 521 283.5 521 c 128,-1,18
 386 521 386 521 427 446 c 1,19,-1
 447 590 l 1,20,-1
 247 590 l 1,21,-1
 260 664 l 1,22,-1
 458 664 l 1,23,-1
 466 720 l 1,24,-1
 560 720 l 1,25,-1
 552 664 l 1,26,-1
 642 664 l 1,27,-1
 628 590 l 1,0,-1
244 65 m 0,28,29
 324 65 324 65 365 136 c 128,-1,30
 406 207 406 207 406 318 c 0,31,32
 406 446 406 446 297 446 c 0,33,34
 251 446 251 446 217 421.5 c 128,-1,35
 183 397 183 397 166.5 357 c 0,36,37
 135 280.636363636 135 280.636363636 135 202.318181818 c 128,-1,38
 135 124 135 124 163 94.5 c 128,-1,39
 191 65 191 65 244 65 c 0,28,29
EndSplineSet
EndChar

StartChar: e
Encoding: 101 101 122
Width: 556
GlyphClass: 2
Flags: MW
HStem: -10 75<212 242 242 246> 234 73<150 412 150 494 137 412> 446 75<314 321 321 337.5>
VStem: 41 94<162.5 207.5 162.5 279.5> 415 92<339 344 327 377>
AnchorPoint: "Bottom" 278 0 basechar 0
LayerCount: 2
Fore
SplineSet
314 521 m 2,0,-1
 321 521 l 2,1,2
 406 521 406 521 456.5 474 c 128,-1,3
 507 427 507 427 507 344 c 2,4,-1
 507 333 l 2,5,6
 507 312 507 312 494 234 c 1,7,-1
 137 234 l 1,8,9
 135 212 135 212 135 202 c 0,10,11
 135 65 135 65 256 65 c 0,12,13
 295 65 295 65 324.5 79 c 128,-1,14
 354 93 354 93 368.5 116 c 0,15,16
 393.1953125 155.171875 393.1953125 155.171875 399 190 c 1,17,-1
 488 190 l 1,18,19
 475 96 475 96 411.5 43 c 128,-1,20
 348 -10 348 -10 246 -10 c 2,21,-1
 242 -10 l 2,22,23
 150 -10 150 -10 95.5 43 c 128,-1,24
 41 96 41 96 41 189 c 128,-1,25
 41 282 41 282 70 355 c 128,-1,26
 99 428 99 428 162 474.5 c 128,-1,27
 225 521 225 521 314 521 c 2,0,-1
385 419.5 m 128,-1,29
 355 446 355 446 301.5 446 c 128,-1,30
 248 446 248 446 207.5 411 c 128,-1,31
 167 376 167 376 150 307 c 1,32,-1
 412 307 l 1,33,34
 415 327 415 327 415 343 c 0,35,28
 415 393 415 393 385 419.5 c 128,-1,29
EndSplineSet
EndChar

StartChar: eacute
Encoding: 233 233 123
Width: 556
GlyphClass: 2
Flags: MW
HStem: -10 75<212 242 242 246> 234 73<150 412 150 494 137 412> 446 75<314 321 321 337.5> 575 145<275 480 275 480>
VStem: 41 94<162.5 207.5 162.5 279.5> 415 92<339 344 327 377>
LayerCount: 2
Fore
SplineSet
480 716 m 1,0,-1
 344 575 l 1,1,-1
 275 575 l 1,2,-1
 390 720 l 1,3,-1
 480 720 l 1,4,-1
 480 716 l 1,0,-1
314 521 m 2,5,-1
 321 521 l 2,6,7
 406 521 406 521 456.5 474 c 128,-1,8
 507 427 507 427 507 344 c 2,9,-1
 507 333 l 2,10,11
 507 312 507 312 494 234 c 1,12,-1
 137 234 l 1,13,14
 135 212 135 212 135 202 c 0,15,16
 135 65 135 65 256 65 c 0,17,18
 295 65 295 65 324.5 79 c 128,-1,19
 354 93 354 93 368.5 116 c 0,20,21
 393.1953125 155.171875 393.1953125 155.171875 399 190 c 1,22,-1
 488 190 l 1,23,24
 475 96 475 96 411.5 43 c 128,-1,25
 348 -10 348 -10 246 -10 c 2,26,-1
 242 -10 l 2,27,28
 150 -10 150 -10 95.5 43 c 128,-1,29
 41 96 41 96 41 189 c 128,-1,30
 41 282 41 282 70 355 c 128,-1,31
 99 428 99 428 162 474.5 c 128,-1,32
 225 521 225 521 314 521 c 2,5,-1
385 419.5 m 128,-1,34
 355 446 355 446 301.5 446 c 128,-1,35
 248 446 248 446 207.5 411 c 128,-1,36
 167 376 167 376 150 307 c 1,37,-1
 412 307 l 1,38,39
 415 327 415 327 415 343 c 0,40,33
 415 393 415 393 385 419.5 c 128,-1,34
EndSplineSet
EndChar

StartChar: ecaron
Encoding: 283 283 124
Width: 556
GlyphClass: 2
Flags: MW
HStem: -10 75<212 242 242 246> 234 73<150 412 150 494 137 412> 446 75<314 321 321 337.5> 575 145<153 346 153 268>
VStem: 41 94<162.5 207.5 162.5 279.5> 415 92<339 344 327 377>
AnchorPoint: "Bottom" 278 0 basechar 0
LayerCount: 2
Fore
SplineSet
346 575 m 1,0,-1
 268 575 l 1,1,-1
 153 720 l 1,2,-1
 233 720 l 1,3,-1
 315 631 l 1,4,-1
 422 720 l 1,5,-1
 502 720 l 1,6,-1
 346 575 l 1,0,-1
314 521 m 2,7,-1
 321 521 l 2,8,9
 406 521 406 521 456.5 474 c 128,-1,10
 507 427 507 427 507 344 c 2,11,-1
 507 333 l 2,12,13
 507 312 507 312 494 234 c 1,14,-1
 137 234 l 1,15,16
 135 212 135 212 135 202 c 0,17,18
 135 65 135 65 256 65 c 0,19,20
 295 65 295 65 324.5 79 c 128,-1,21
 354 93 354 93 368.5 116 c 0,22,23
 393.1953125 155.171875 393.1953125 155.171875 399 190 c 1,24,-1
 488 190 l 1,25,26
 475 96 475 96 411.5 43 c 128,-1,27
 348 -10 348 -10 246 -10 c 2,28,-1
 242 -10 l 2,29,30
 150 -10 150 -10 95.5 43 c 128,-1,31
 41 96 41 96 41 189 c 128,-1,32
 41 282 41 282 70 355 c 128,-1,33
 99 428 99 428 162 474.5 c 128,-1,34
 225 521 225 521 314 521 c 2,7,-1
385 419.5 m 128,-1,36
 355 446 355 446 301.5 446 c 128,-1,37
 248 446 248 446 207.5 411 c 128,-1,38
 167 376 167 376 150 307 c 1,39,-1
 412 307 l 1,40,41
 415 327 415 327 415 343 c 0,42,35
 415 393 415 393 385 419.5 c 128,-1,36
EndSplineSet
EndChar

StartChar: ecircumflex
Encoding: 234 234 125
Width: 556
GlyphClass: 2
Flags: MW
HStem: -10 75<212 242 242 246> 234 73<150 412 150 494 137 412> 446 75<314 321 321 337.5> 575 145<142 377 299 491 299 411> 664 56<330 330>
VStem: 41 94<162.5 207.5 162.5 279.5> 415 92<339 344 327 377>
LayerCount: 2
Fore
SplineSet
491 575 m 1,0,-1
 411 575 l 1,1,-1
 330 664 l 1,2,-1
 222 575 l 1,3,-1
 142 575 l 1,4,-1
 299 720 l 1,5,-1
 377 720 l 1,6,-1
 491 575 l 1,0,-1
314 521 m 2,7,-1
 321 521 l 2,8,9
 406 521 406 521 456.5 474 c 128,-1,10
 507 427 507 427 507 344 c 2,11,-1
 507 333 l 2,12,13
 507 312 507 312 494 234 c 1,14,-1
 137 234 l 1,15,16
 135 212 135 212 135 202 c 0,17,18
 135 65 135 65 256 65 c 0,19,20
 295 65 295 65 324.5 79 c 128,-1,21
 354 93 354 93 368.5 116 c 0,22,23
 393.1953125 155.171875 393.1953125 155.171875 399 190 c 1,24,-1
 488 190 l 1,25,26
 475 96 475 96 411.5 43 c 128,-1,27
 348 -10 348 -10 246 -10 c 2,28,-1
 242 -10 l 2,29,30
 150 -10 150 -10 95.5 43 c 128,-1,31
 41 96 41 96 41 189 c 128,-1,32
 41 282 41 282 70 355 c 128,-1,33
 99 428 99 428 162 474.5 c 128,-1,34
 225 521 225 521 314 521 c 2,7,-1
385 419.5 m 128,-1,36
 355 446 355 446 301.5 446 c 128,-1,37
 248 446 248 446 207.5 411 c 128,-1,38
 167 376 167 376 150 307 c 1,39,-1
 412 307 l 1,40,41
 415 327 415 327 415 343 c 0,42,35
 415 393 415 393 385 419.5 c 128,-1,36
EndSplineSet
EndChar

StartChar: edieresis
Encoding: 235 235 126
Width: 556
GlyphClass: 2
Flags: MW
HStem: -10 75<212 242 242 246> 234 73<150 412 150 494 137 412> 446 75<314 321 321 337.5> 622 98<196 273 183 286 196 371 384 462>
VStem: 41 94<162.5 207.5 162.5 279.5> 415 92<339 344 327 377>
LayerCount: 2
Fore
SplineSet
273 622 m 1,0,-1
 183 622 l 1,1,-1
 196 720 l 1,2,-1
 286 720 l 1,3,-1
 273 622 l 1,0,-1
462 622 m 1,4,-1
 371 622 l 1,5,-1
 384 720 l 1,6,-1
 475 720 l 1,7,-1
 462 622 l 1,4,-1
314 521 m 2,8,-1
 321 521 l 2,9,10
 406 521 406 521 456.5 474 c 128,-1,11
 507 427 507 427 507 344 c 2,12,-1
 507 333 l 2,13,14
 507 312 507 312 494 234 c 1,15,-1
 137 234 l 1,16,17
 135 212 135 212 135 202 c 0,18,19
 135 65 135 65 256 65 c 0,20,21
 295 65 295 65 324.5 79 c 128,-1,22
 354 93 354 93 368.5 116 c 0,23,24
 393.1953125 155.171875 393.1953125 155.171875 399 190 c 1,25,-1
 488 190 l 1,26,27
 475 96 475 96 411.5 43 c 128,-1,28
 348 -10 348 -10 246 -10 c 2,29,-1
 242 -10 l 2,30,31
 150 -10 150 -10 95.5 43 c 128,-1,32
 41 96 41 96 41 189 c 128,-1,33
 41 282 41 282 70 355 c 128,-1,34
 99 428 99 428 162 474.5 c 128,-1,35
 225 521 225 521 314 521 c 2,8,-1
385 419.5 m 128,-1,37
 355 446 355 446 301.5 446 c 128,-1,38
 248 446 248 446 207.5 411 c 128,-1,39
 167 376 167 376 150 307 c 1,40,-1
 412 307 l 1,41,42
 415 327 415 327 415 343 c 0,43,36
 415 393 415 393 385 419.5 c 128,-1,37
EndSplineSet
EndChar

StartChar: edotaccent
Encoding: 279 279 127
Width: 556
GlyphClass: 2
Flags: MW
HStem: -10 75<212 242 242 246> 234 73<150 412 150 494 137 412> 446 75<314 321 321 337.5> 604 132<312.5 338.5>
VStem: 41 94<162.5 207.5 162.5 279.5> 261 133<657.5 679.5> 415 92<339 344 327 377>
AnchorPoint: "Bottom" 278 0 basechar 0
LayerCount: 2
Fore
SplineSet
281.5 713.5 m 128,-1,1
 302 736 302 736 332 736 c 128,-1,2
 362 736 362 736 378 719 c 128,-1,3
 394 702 394 702 394 674.5 c 128,-1,4
 394 647 394 647 371.5 625.5 c 128,-1,5
 349 604 349 604 321 604 c 128,-1,6
 293 604 293 604 277 619.5 c 128,-1,7
 261 635 261 635 261 663 c 128,-1,0
 261 691 261 691 281.5 713.5 c 128,-1,1
314 521 m 2,8,-1
 321 521 l 2,9,10
 406 521 406 521 456.5 474 c 128,-1,11
 507 427 507 427 507 344 c 2,12,-1
 507 333 l 2,13,14
 507 312 507 312 494 234 c 1,15,-1
 137 234 l 1,16,17
 135 212 135 212 135 202 c 0,18,19
 135 65 135 65 256 65 c 0,20,21
 295 65 295 65 324.5 79 c 128,-1,22
 354 93 354 93 368.5 116 c 0,23,24
 393.1953125 155.171875 393.1953125 155.171875 399 190 c 1,25,-1
 488 190 l 1,26,27
 475 96 475 96 411.5 43 c 128,-1,28
 348 -10 348 -10 246 -10 c 2,29,-1
 242 -10 l 2,30,31
 150 -10 150 -10 95.5 43 c 128,-1,32
 41 96 41 96 41 189 c 128,-1,33
 41 282 41 282 70 355 c 128,-1,34
 99 428 99 428 162 474.5 c 128,-1,35
 225 521 225 521 314 521 c 2,8,-1
385 419.5 m 128,-1,37
 355 446 355 446 301.5 446 c 128,-1,38
 248 446 248 446 207.5 411 c 128,-1,39
 167 376 167 376 150 307 c 1,40,-1
 412 307 l 1,41,42
 415 327 415 327 415 343 c 0,43,36
 415 393 415 393 385 419.5 c 128,-1,37
EndSplineSet
EndChar

StartChar: egrave
Encoding: 232 232 128
Width: 556
GlyphClass: 2
Flags: MW
HStem: -10 75<212 242 242 246> 234 73<150 412 150 494 137 412> 446 75<314 321 321 337.5> 575 145<193 356 193 286>
VStem: 41 94<162.5 207.5 162.5 279.5> 415 92<339 344 327 377>
LayerCount: 2
Fore
SplineSet
356 575 m 1,0,-1
 286 575 l 1,1,-1
 191 717 l 1,2,-1
 193 720 l 1,3,-1
 282 720 l 1,4,-1
 356 575 l 1,0,-1
314 521 m 2,5,-1
 321 521 l 2,6,7
 406 521 406 521 456.5 474 c 128,-1,8
 507 427 507 427 507 344 c 2,9,-1
 507 333 l 2,10,11
 507 312 507 312 494 234 c 1,12,-1
 137 234 l 1,13,14
 135 212 135 212 135 202 c 0,15,16
 135 65 135 65 256 65 c 0,17,18
 295 65 295 65 324.5 79 c 128,-1,19
 354 93 354 93 368.5 116 c 0,20,21
 393.1953125 155.171875 393.1953125 155.171875 399 190 c 1,22,-1
 488 190 l 1,23,24
 475 96 475 96 411.5 43 c 128,-1,25
 348 -10 348 -10 246 -10 c 2,26,-1
 242 -10 l 2,27,28
 150 -10 150 -10 95.5 43 c 128,-1,29
 41 96 41 96 41 189 c 128,-1,30
 41 282 41 282 70 355 c 128,-1,31
 99 428 99 428 162 474.5 c 128,-1,32
 225 521 225 521 314 521 c 2,5,-1
385 419.5 m 128,-1,34
 355 446 355 446 301.5 446 c 128,-1,35
 248 446 248 446 207.5 411 c 128,-1,36
 167 376 167 376 150 307 c 1,37,-1
 412 307 l 1,38,39
 415 327 415 327 415 343 c 0,40,33
 415 393 415 393 385 419.5 c 128,-1,34
EndSplineSet
EndChar

StartChar: emacron
Encoding: 275 275 129
Width: 556
GlyphClass: 2
Flags: MW
HStem: -10 75<212 242 242 246> 234 73<150 412 150 494 137 412> 446 75<314 321 321 337.5> 662 74<174 481 163 492>
VStem: 41 94<162.5 207.5 162.5 279.5> 415 92<339 344 327 377>
AnchorPoint: "Bottom" 278 0 basechar 0
LayerCount: 2
Fore
SplineSet
481 662 m 1,0,-1
 163 662 l 1,1,-1
 174 736 l 1,2,-1
 492 736 l 1,3,-1
 481 662 l 1,0,-1
314 521 m 2,4,-1
 321 521 l 2,5,6
 406 521 406 521 456.5 474 c 128,-1,7
 507 427 507 427 507 344 c 2,8,-1
 507 333 l 2,9,10
 507 312 507 312 494 234 c 1,11,-1
 137 234 l 1,12,13
 135 212 135 212 135 202 c 0,14,15
 135 65 135 65 256 65 c 0,16,17
 295 65 295 65 324.5 79 c 128,-1,18
 354 93 354 93 368.5 116 c 0,19,20
 393.1953125 155.171875 393.1953125 155.171875 399 190 c 1,21,-1
 488 190 l 1,22,23
 475 96 475 96 411.5 43 c 128,-1,24
 348 -10 348 -10 246 -10 c 2,25,-1
 242 -10 l 2,26,27
 150 -10 150 -10 95.5 43 c 128,-1,28
 41 96 41 96 41 189 c 128,-1,29
 41 282 41 282 70 355 c 128,-1,30
 99 428 99 428 162 474.5 c 128,-1,31
 225 521 225 521 314 521 c 2,4,-1
385 419.5 m 128,-1,33
 355 446 355 446 301.5 446 c 128,-1,34
 248 446 248 446 207.5 411 c 128,-1,35
 167 376 167 376 150 307 c 1,36,-1
 412 307 l 1,37,38
 415 327 415 327 415 343 c 0,39,32
 415 393 415 393 385 419.5 c 128,-1,33
EndSplineSet
EndChar

StartChar: eogonek
Encoding: 281 281 130
Width: 556
GlyphClass: 2
Flags: MW
HStem: -143 47<322.5 332.5> -20 20G<326 348 348 348> -10 75<212 242 242 246> 234 73<150 412 150 494 137 412> 446 75<314 321 321 337.5>
VStem: 41 94<162.5 207.5 162.5 279.5> 229 63<-76.5 -66> 415 92<339 344 327 377>
AnchorPoint: "Bottom" 278 0 basechar 0
LayerCount: 2
Fore
SplineSet
314 521 m 2,0,-1
 321 521 l 2,1,2
 406 521 406 521 456.5 474 c 128,-1,3
 507 427 507 427 507 344 c 2,4,-1
 507 333 l 2,5,6
 507 312 507 312 494 234 c 1,7,-1
 137 234 l 1,8,9
 135 212 135 212 135 202 c 0,10,11
 135 65 135 65 256 65 c 0,12,13
 295 65 295 65 324.5 79 c 128,-1,14
 354 93 354 93 368.5 116 c 0,15,16
 393.1953125 155.171875 393.1953125 155.171875 399 190 c 1,17,-1
 488 190 l 1,18,19
 478 117 478 117 436 67.5 c 128,-1,20
 394 18 394 18 326 0 c 1,21,-1
 348 0 l 1,22,23
 327 -9 327 -9 309.5 -28 c 128,-1,24
 292 -47 292 -47 292 -65 c 0,25,26
 292 -96 292 -96 332 -96 c 0,27,28
 355 -96 355 -96 401 -82 c 1,29,-1
 409 -119 l 1,30,31
 365.5 -143 365.5 -143 322.25 -143 c 0,32,33
 229 -143 229 -143 229 -83 c 0,34,35
 229 -41 229 -41 281 -8 c 1,36,37
 259 -10 259 -10 246 -10 c 2,38,-1
 242 -10 l 2,39,40
 150 -10 150 -10 95.5 43 c 128,-1,41
 41 96 41 96 41 189 c 128,-1,42
 41 282 41 282 70 355 c 128,-1,43
 99 428 99 428 162 474.5 c 128,-1,44
 225 521 225 521 314 521 c 2,0,-1
150 307 m 1,45,-1
 412 307 l 1,46,47
 415 327 415 327 415 343 c 0,48,49
 415 393 415 393 385 419.5 c 128,-1,50
 355 446 355 446 301.5 446 c 128,-1,51
 248 446 248 446 207.5 411 c 128,-1,52
 167 376 167 376 150 307 c 1,45,-1
EndSplineSet
EndChar

StartChar: f
Encoding: 102 102 131
Width: 340
GlyphClass: 2
Flags: MW
HStem: -184 74<-10 2 -18.5 40.5> 436 75<76 125 66 134 227 338> 654 74<290.5 304 252 312.5> 708 20G<252 304>
VStem: -80 454
LayerCount: 2
Fore
SplineSet
290 728 m 0,0,1
 342 728 342 728 374 709 c 1,2,-1
 365 640 l 1,3,4
 335 654 335 654 311.5 654 c 0,5,6
 288 654 288 654 276.5 650.5 c 128,-1,7
 265 647 265 647 254 632 c 128,-1,8
 243 617 243 617 239 590 c 2,9,-1
 227 511 l 1,10,-1
 347 511 l 1,11,-1
 338 436 l 1,12,-1
 218 436 l 1,13,-1
 147 -58 l 2,14,15
 138 -122 138 -122 100 -153 c 128,-1,16
 62 -184 62 -184 6 -184 c 0,17,18
 -50 -184 -50 -184 -80 -165 c 1,19,-1
 -72 -96 l 1,20,21
 -42 -110 -42 -110 -18.5 -110 c 0,22,23
 5 -110 5 -110 16 -106.5 c 128,-1,24
 27 -103 27 -103 38.5 -88 c 128,-1,25
 50 -73 50 -73 54 -46 c 2,26,-1
 125 436 l 1,27,-1
 66 436 l 1,28,-1
 76 511 l 1,29,-1
 134 511 l 1,30,-1
 147 602 l 2,31,32
 165 728 165 728 290 728 c 0,0,1
EndSplineSet
EndChar

StartChar: g
Encoding: 103 103 132
Width: 583
GlyphClass: 2
Flags: MW
HStem: -186 75<188.5 264 188.5 294> 20 75<217 251> 446 75<259.5 330.5 208 333> 491 20G<496 532 532 532>
VStem: 21 93<-47 -19 -47 -19> 44 96<172 288>
LayerCount: 2
Fore
SplineSet
292 521 m 0,0,1
 408 521 408 521 451 430 c 1,2,-1
 496 511 l 1,3,-1
 532 511 l 1,4,-1
 465 34 l 2,5,6
 452 -65 452 -65 390 -125.5 c 128,-1,7
 328 -186 328 -186 213 -186 c 0,8,9
 119 -186 119 -186 70 -139 c 128,-1,10
 21 -92 21 -92 21 -19 c 1,11,-1
 114 -19 l 1,12,13
 114 -61 114 -61 143 -86 c 128,-1,14
 172 -111 172 -111 227 -111 c 128,-1,15
 282 -111 282 -111 321 -75 c 128,-1,16
 360 -39 360 -39 368 15 c 2,17,-1
 379 95 l 1,18,19
 318 20 318 20 215 20 c 0,20,21
 139 20 139 20 91.5 69 c 128,-1,22
 44 118 44 118 44 204.5 c 128,-1,23
 44 291 44 291 70 360.5 c 128,-1,24
 96 430 96 430 154 475.5 c 128,-1,25
 212 521 212 521 292 521 c 0,0,1
300 446 m 0,26,27
 231 446 231 446 185.5 393 c 128,-1,28
 140 340 140 340 140 217.5 c 128,-1,29
 140 95 140 95 250 95 c 0,30,31
 305 95 305 95 342.5 131.5 c 0,32,33
 409 196.226666667 409 196.226666667 409 326 c 0,34,35
 409 391 409 391 381 418.5 c 128,-1,36
 353 446 353 446 300 446 c 0,26,27
EndSplineSet
EndChar

StartChar: gbreve
Encoding: 287 287 133
Width: 583
GlyphClass: 2
Flags: MW
HStem: -186 75<188.5 264 188.5 294> 20 75<217 251> 446 75<259.5 330.5 208 333> 491 20G<496 532 532 532> 613 62<273.5 335.5 273.5 349>
VStem: 21 93<-47 -19 -47 -19> 44 96<172 288>
LayerCount: 2
Fore
SplineSet
437 737 m 1,0,-1
 505 737 l 1,1,2
 499 693 499 693 436 653 c 128,-1,3
 373 613 373 613 298 613 c 128,-1,4
 223 613 223 613 171 649.5 c 128,-1,5
 119 686 119 686 119 729 c 0,6,7
 119 735 119 735 120 737 c 1,8,-1
 187 737 l 1,9,10
 192 710 192 710 225 692.5 c 128,-1,11
 258 675 258 675 304.5 675 c 128,-1,12
 351 675 351 675 388 692.5 c 128,-1,13
 425 710 425 710 437 737 c 1,0,-1
292 521 m 0,14,15
 408 521 408 521 451 430 c 1,16,-1
 496 511 l 1,17,-1
 532 511 l 1,18,-1
 465 34 l 2,19,20
 452 -65 452 -65 390 -125.5 c 128,-1,21
 328 -186 328 -186 213 -186 c 0,22,23
 119 -186 119 -186 70 -139 c 128,-1,24
 21 -92 21 -92 21 -19 c 1,25,-1
 114 -19 l 1,26,27
 114 -61 114 -61 143 -86 c 128,-1,28
 172 -111 172 -111 227 -111 c 128,-1,29
 282 -111 282 -111 321 -75 c 128,-1,30
 360 -39 360 -39 368 15 c 2,31,-1
 379 95 l 1,32,33
 318 20 318 20 215 20 c 0,34,35
 139 20 139 20 91.5 69 c 128,-1,36
 44 118 44 118 44 204.5 c 128,-1,37
 44 291 44 291 70 360.5 c 128,-1,38
 96 430 96 430 154 475.5 c 128,-1,39
 212 521 212 521 292 521 c 0,14,15
300 446 m 0,40,41
 231 446 231 446 185.5 393 c 128,-1,42
 140 340 140 340 140 217.5 c 128,-1,43
 140 95 140 95 250 95 c 0,44,45
 305 95 305 95 342.5 131.5 c 0,46,47
 409 196.226666667 409 196.226666667 409 326 c 0,48,49
 409 391 409 391 381 418.5 c 128,-1,50
 353 446 353 446 300 446 c 0,40,41
EndSplineSet
EndChar

StartChar: gcommaaccent
Encoding: 291 291 134
Width: 583
GlyphClass: 2
Flags: MW
HStem: -186 75<188.5 264 188.5 294> 20 75<217 251> 446 75<259.5 330.5 208 333> 491 20G<496 532 532 532> 581 111<344 369 268 385>
VStem: 21 93<-47 -19 -47 -19> 44 96<172 288>
LayerCount: 2
Fore
SplineSet
280 666 m 1,0,-1
 327 791 l 1,1,-1
 380 791 l 1,2,-1
 344 692 l 1,3,-1
 385 692 l 1,4,-1
 369 581 l 1,5,-1
 268 581 l 1,6,-1
 280 666 l 1,0,-1
292 521 m 0,7,8
 408 521 408 521 451 430 c 1,9,-1
 496 511 l 1,10,-1
 532 511 l 1,11,-1
 465 34 l 2,12,13
 452 -65 452 -65 390 -125.5 c 128,-1,14
 328 -186 328 -186 213 -186 c 0,15,16
 119 -186 119 -186 70 -139 c 128,-1,17
 21 -92 21 -92 21 -19 c 1,18,-1
 114 -19 l 1,19,20
 114 -61 114 -61 143 -86 c 128,-1,21
 172 -111 172 -111 227 -111 c 128,-1,22
 282 -111 282 -111 321 -75 c 128,-1,23
 360 -39 360 -39 368 15 c 2,24,-1
 379 95 l 1,25,26
 318 20 318 20 215 20 c 0,27,28
 139 20 139 20 91.5 69 c 128,-1,29
 44 118 44 118 44 204.5 c 128,-1,30
 44 291 44 291 70 360.5 c 128,-1,31
 96 430 96 430 154 475.5 c 128,-1,32
 212 521 212 521 292 521 c 0,7,8
300 446 m 0,33,34
 231 446 231 446 185.5 393 c 128,-1,35
 140 340 140 340 140 217.5 c 128,-1,36
 140 95 140 95 250 95 c 0,37,38
 305 95 305 95 342.5 131.5 c 0,39,40
 409 196.226666667 409 196.226666667 409 326 c 0,41,42
 409 391 409 391 381 418.5 c 128,-1,43
 353 446 353 446 300 446 c 0,33,34
EndSplineSet
EndChar

StartChar: h
Encoding: 104 104 135
Width: 593
GlyphClass: 2
Flags: MW
HStem: 446 75<338.5 363> 700 20G<143 237 237 237>
VStem: 428 97<371 388>
LayerCount: 2
Fore
SplineSet
237 720 m 1,0,-1
 199 447 l 1,1,2
 272 521 272 521 367 521 c 0,3,4
 439 521 439 521 482 486 c 128,-1,5
 525 451 525 451 525 380 c 0,6,7
 525 359 525 359 499 177 c 2,8,-1
 474 0 l 1,9,-1
 380 0 l 1,10,-1
 404 167 l 2,11,12
 425 318 425 318 428 356 c 0,13,14
 428 446 428 446 335 446 c 0,15,16
 281 446 281 446 234 404.5 c 128,-1,17
 187 363 187 363 179 304 c 2,18,-1
 136 0 l 1,19,-1
 42 0 l 1,20,-1
 143 720 l 1,21,-1
 237 720 l 1,0,-1
EndSplineSet
EndChar

StartChar: i
Encoding: 105 105 136
Width: 260
GlyphClass: 2
Flags: MW
HStem: 491 20G<114 208 208 208> 633 87<141 227 129 239>
VStem: 42 197
LayerCount: 2
Fore
SplineSet
227 633 m 1,0,-1
 129 633 l 1,1,-1
 141 720 l 1,2,-1
 239 720 l 1,3,-1
 227 633 l 1,0,-1
136 0 m 1,4,-1
 42 0 l 1,5,-1
 114 511 l 1,6,-1
 208 511 l 1,7,-1
 136 0 l 1,4,-1
EndSplineSet
EndChar

StartChar: dotlessi
Encoding: 305 305 137
Width: 261
GlyphClass: 2
Flags: MW
HStem: 491 20G<114 208 208 208>
VStem: 43 165
LayerCount: 2
Fore
SplineSet
137 0 m 1,0,-1
 43 0 l 1,1,-1
 114 511 l 1,2,-1
 208 511 l 1,3,-1
 137 0 l 1,0,-1
EndSplineSet
EndChar

StartChar: iacute
Encoding: 237 237 138
Width: 261
GlyphClass: 2
Flags: MW
HStem: 491 20G<114 208 208 208> 575 145<117 322 117 322>
VStem: 43 279
LayerCount: 2
Fore
SplineSet
322 716 m 1,0,-1
 186 575 l 1,1,-1
 117 575 l 1,2,-1
 232 720 l 1,3,-1
 322 720 l 1,4,-1
 322 716 l 1,0,-1
137 0 m 1,5,-1
 43 0 l 1,6,-1
 114 511 l 1,7,-1
 208 511 l 1,8,-1
 137 0 l 1,5,-1
EndSplineSet
EndChar

StartChar: icircumflex
Encoding: 238 238 139
Width: 261
GlyphClass: 2
Flags: MW
HStem: 491 20G<114 208 208 208> 575 145<-10 225 147 339 147 259> 664 56<178 178>
VStem: -10 349<575 575>
LayerCount: 2
Fore
SplineSet
339 575 m 1,0,-1
 259 575 l 1,1,-1
 178 664 l 1,2,-1
 70 575 l 1,3,-1
 -10 575 l 1,4,-1
 147 720 l 1,5,-1
 225 720 l 1,6,-1
 339 575 l 1,0,-1
137 0 m 1,7,-1
 43 0 l 1,8,-1
 114 511 l 1,9,-1
 208 511 l 1,10,-1
 137 0 l 1,7,-1
EndSplineSet
EndChar

StartChar: idieresis
Encoding: 239 239 140
Width: 261
GlyphClass: 2
Flags: MW
HStem: 491 20G<114 208 208 208> 621 98<46 123 33 136 46 221 234 312>
VStem: 33 292<621 719>
LayerCount: 2
Fore
SplineSet
123 621 m 1,0,-1
 33 621 l 1,1,-1
 46 719 l 1,2,-1
 136 719 l 1,3,-1
 123 621 l 1,0,-1
312 621 m 1,4,-1
 221 621 l 1,5,-1
 234 719 l 1,6,-1
 325 719 l 1,7,-1
 312 621 l 1,4,-1
137 0 m 1,8,-1
 43 0 l 1,9,-1
 114 511 l 1,10,-1
 208 511 l 1,11,-1
 137 0 l 1,8,-1
EndSplineSet
EndChar

StartChar: igrave
Encoding: 236 236 141
Width: 261
GlyphClass: 2
Flags: MW
HStem: 491 20G<114 208 208 208> 575 145<37 200 37 130>
VStem: 35 173
LayerCount: 2
Fore
SplineSet
200 575 m 1,0,-1
 130 575 l 1,1,-1
 35 717 l 1,2,-1
 37 720 l 1,3,-1
 126 720 l 1,4,-1
 200 575 l 1,0,-1
137 0 m 1,5,-1
 43 0 l 1,6,-1
 114 511 l 1,7,-1
 208 511 l 1,8,-1
 137 0 l 1,5,-1
EndSplineSet
EndChar

StartChar: imacron
Encoding: 299 299 142
Width: 261
GlyphClass: 2
Flags: MW
HStem: 491 20G<114 208 208 208> 662 74<27 334 16 345>
VStem: 16 329<662 736>
LayerCount: 2
Fore
SplineSet
334 662 m 1,0,-1
 16 662 l 1,1,-1
 27 736 l 1,2,-1
 345 736 l 1,3,-1
 334 662 l 1,0,-1
137 0 m 1,4,-1
 43 0 l 1,5,-1
 114 511 l 1,6,-1
 208 511 l 1,7,-1
 137 0 l 1,4,-1
EndSplineSet
EndChar

StartChar: iogonek
Encoding: 303 303 143
Width: 261
GlyphClass: 2
Flags: MW
HStem: -143 47<107.5 117.5> 491 20G<114 208 208 208> 633 87<141 227 129 239>
VStem: 14 63<-76.5 -63.5>
LayerCount: 2
Fore
SplineSet
239 720 m 1,0,-1
 227 633 l 1,1,-1
 129 633 l 1,2,-1
 141 720 l 1,3,-1
 239 720 l 1,0,-1
137 0 m 1,4,-1
 133 0 l 1,5,6
 112 -9 112 -9 94.5 -28 c 128,-1,7
 77 -47 77 -47 77 -65 c 0,8,9
 77 -96 77 -96 117 -96 c 0,10,11
 140 -96 140 -96 186 -82 c 1,12,-1
 194 -119 l 1,13,14
 150.5 -143 150.5 -143 107.25 -143 c 0,15,16
 14 -143 14 -143 14 -83 c 0,17,18
 14 -39 14 -39 79 0 c 1,19,-1
 43 0 l 1,20,-1
 114 511 l 1,21,-1
 208 511 l 1,22,-1
 137 0 l 1,4,-1
EndSplineSet
EndChar

StartChar: j
Encoding: 106 106 144
Width: 260
GlyphClass: 2
Flags: MW
HStem: -186 74<-28 -16 -36.5 32> 491 20G<114 208 208 208> 633 87<141 227 129 239>
VStem: -96 335
LayerCount: 2
Fore
SplineSet
227 633 m 1,0,-1
 129 633 l 1,1,-1
 141 720 l 1,2,-1
 239 720 l 1,3,-1
 227 633 l 1,0,-1
208 511 m 1,4,-1
 134 -15 l 2,5,6
 121 -106 121 -106 87.5 -146 c 128,-1,7
 54 -186 54 -186 -6 -186 c 0,8,9
 -66 -186 -66 -186 -96 -167 c 1,10,-1
 -87 -97 l 1,11,12
 -55 -112 -55 -112 -29 -112 c 0,13,14
 27 -112 27 -112 36 -44 c 2,15,-1
 114 511 l 1,16,-1
 208 511 l 1,4,-1
EndSplineSet
EndChar

StartChar: k
Encoding: 107 107 145
Width: 534
GlyphClass: 2
Flags: MW
HStem: 491 20G<436 539 539 539> 700 20G<143 237 237 237>
VStem: 42 497
AnchorPoint: "Bottom" 267 0 basechar 0
LayerCount: 2
Fore
SplineSet
168 226 m 1,0,-1
 436 511 l 1,1,-1
 539 511 l 1,2,-1
 307 263 l 1,3,-1
 480 0 l 1,4,-1
 366 0 l 1,5,-1
 240 190 l 1,6,-1
 151 110 l 1,7,-1
 136 0 l 1,8,-1
 42 0 l 1,9,-1
 143 720 l 1,10,-1
 237 720 l 1,11,-1
 168 226 l 1,0,-1
EndSplineSet
EndChar

StartChar: kcommaaccent
Encoding: 311 311 146
Width: 534
GlyphClass: 2
Flags: MW
HStem: -151 111<210 235 194 311> 491 20G<436 539 539 539> 700 20G<143 237 237 237>
VStem: 42 497
AnchorPoint: "Bottom" 267 0 basechar 0
LayerCount: 2
Fore
SplineSet
168 226 m 1,0,-1
 436 511 l 1,1,-1
 539 511 l 1,2,-1
 307 263 l 1,3,-1
 480 0 l 1,4,-1
 366 0 l 1,5,-1
 240 190 l 1,6,-1
 151 110 l 1,7,-1
 136 0 l 1,8,-1
 42 0 l 1,9,-1
 143 720 l 1,10,-1
 237 720 l 1,11,-1
 168 226 l 1,0,-1
299 -125 m 1,12,-1
 252 -250 l 1,13,-1
 199 -250 l 1,14,-1
 235 -151 l 1,15,-1
 194 -151 l 1,16,-1
 210 -40 l 1,17,-1
 311 -40 l 1,18,-1
 299 -125 l 1,12,-1
EndSplineSet
EndChar

StartChar: l
Encoding: 108 108 147
Width: 268
GlyphClass: 2
Flags: MW
HStem: 700 20G<147 241 241 241>
VStem: 46 195
AnchorPoint: "Bottom" 93 0 basechar 0
LayerCount: 2
Fore
SplineSet
140 0 m 1,0,-1
 46 0 l 1,1,-1
 147 720 l 1,2,-1
 241 720 l 1,3,-1
 140 0 l 1,0,-1
EndSplineSet
EndChar

StartChar: lacute
Encoding: 314 314 148
Width: 268
GlyphClass: 2
Flags: MW
HStem: 700 20G<147 241 241 241> 750 145<134 339 134 339>
VStem: 46 293
AnchorPoint: "Bottom" 93 0 basechar 0
LayerCount: 2
Fore
SplineSet
339 891 m 1,0,-1
 203 750 l 1,1,-1
 134 750 l 1,2,-1
 249 895 l 1,3,-1
 339 895 l 1,4,-1
 339 891 l 1,0,-1
140 0 m 1,5,-1
 46 0 l 1,6,-1
 147 720 l 1,7,-1
 241 720 l 1,8,-1
 140 0 l 1,5,-1
EndSplineSet
EndChar

StartChar: lcaron
Encoding: 318 318 149
Width: 268
GlyphClass: 2
Flags: MW
HStem: 575 111<292 317 276 393> 575 145<147 317 147 276>
VStem: 46 347
AnchorPoint: "Bottom" 93 0 basechar 0
LayerCount: 2
Fore
SplineSet
140 0 m 1,0,-1
 46 0 l 1,1,-1
 147 720 l 1,2,-1
 241 720 l 1,3,-1
 140 0 l 1,0,-1
381 601 m 1,4,-1
 325 451 l 1,5,-1
 273 451 l 1,6,-1
 317 575 l 1,7,-1
 276 575 l 1,8,-1
 292 686 l 1,9,-1
 393 686 l 1,10,-1
 381 601 l 1,4,-1
EndSplineSet
EndChar

StartChar: lcommaaccent
Encoding: 316 316 150
Width: 268
GlyphClass: 2
Flags: MW
HStem: -151 111<36 61 20 137> 700 20G<147 241 241 241>
VStem: 20 221
AnchorPoint: "Bottom" 93 0 basechar 0
LayerCount: 2
Fore
SplineSet
140 0 m 1,0,-1
 46 0 l 1,1,-1
 147 720 l 1,2,-1
 241 720 l 1,3,-1
 140 0 l 1,0,-1
125 -125 m 1,4,-1
 78 -250 l 1,5,-1
 25 -250 l 1,6,-1
 61 -151 l 1,7,-1
 20 -151 l 1,8,-1
 36 -40 l 1,9,-1
 137 -40 l 1,10,-1
 125 -125 l 1,4,-1
EndSplineSet
EndChar

StartChar: lslash
Encoding: 322 322 151
Width: 297
GlyphClass: 2
Flags: MW
HStem: 700 20G<161 255 255 255>
VStem: 18 286<281 481>
LayerCount: 2
Fore
SplineSet
216 440 m 1,0,-1
 304 481 l 1,1,-1
 294 411 l 1,2,-1
 206 370 l 1,3,-1
 154 0 l 1,4,-1
 60 0 l 1,5,-1
 105 322 l 1,6,-1
 18 281 l 1,7,-1
 27 351 l 1,8,-1
 115 392 l 1,9,-1
 161 720 l 1,10,-1
 255 720 l 1,11,-1
 216 440 l 1,0,-1
EndSplineSet
EndChar

StartChar: m
Encoding: 109 109 152
Width: 867
GlyphClass: 2
Flags: MW
HStem: 446 75<322.5 343 629 649> 491 20G<114 184 184 184>
VStem: 702 97<374 394.5>
LayerCount: 2
Fore
SplineSet
657 521 m 0,0,1
 722 521 722 521 760.5 487 c 128,-1,2
 799 453 799 453 799 384 c 0,3,4
 799 359 799 359 773 177 c 2,5,-1
 748 0 l 1,6,-1
 654 0 l 1,7,-1
 678 170 l 2,8,9
 682 203 682 203 688.5 252 c 0,10,11
 702 353.769230769 702 353.769230769 702 361 c 0,12,13
 702 409 702 409 683 427.5 c 128,-1,14
 664 446 664 446 620 446 c 128,-1,15
 576 446 576 446 534.5 404.5 c 128,-1,16
 493 363 493 363 485 304 c 2,17,-1
 442 0 l 1,18,-1
 348 0 l 1,19,-1
 372 171 l 2,20,21
 395 341 395 341 397 361 c 0,22,23
 397 446 397 446 319 446 c 0,24,25
 270 446 270 446 228.5 404.5 c 128,-1,26
 187 363 187 363 179 304 c 2,27,-1
 136 0 l 1,28,-1
 42 0 l 1,29,-1
 114 511 l 1,30,-1
 184 511 l 1,31,-1
 184 436 l 1,32,33
 256 521 256 521 351 521 c 0,34,35
 458 521 458 521 485 436 c 1,36,37
 558 521 558 521 657 521 c 0,0,1
EndSplineSet
EndChar

StartChar: n
Encoding: 110 110 153
Width: 593
GlyphClass: 2
Flags: MW
HStem: 446 75<335.5 363> 491 20G<114 184 184 184>
VStem: 428 97<372 388>
AnchorPoint: "Bottom" 258 0 basechar 0
LayerCount: 2
Fore
SplineSet
367 521 m 0,0,1
 439 521 439 521 482 486 c 128,-1,2
 525 451 525 451 525 380 c 0,3,4
 525 358 525 358 499 178 c 2,5,-1
 474 0 l 1,6,-1
 380 0 l 1,7,-1
 404 167 l 1,8,9
 428 355 428 355 428 356 c 0,10,11
 428 446 428 446 335 446 c 0,12,13
 281 446 281 446 234 404.5 c 128,-1,14
 187 363 187 363 179 304 c 2,15,-1
 136 0 l 1,16,-1
 42 0 l 1,17,-1
 114 511 l 1,18,-1
 184 511 l 1,19,-1
 184 436 l 1,20,21
 262 521 262 521 367 521 c 0,0,1
EndSplineSet
EndChar

StartChar: nacute
Encoding: 324 324 154
Width: 593
GlyphClass: 2
Flags: MW
HStem: 446 75<335.5 363> 491 20G<114 184 184 184> 575 145<274 479 274 479>
VStem: 428 97<372 388>
AnchorPoint: "Bottom" 258 0 basechar 0
LayerCount: 2
Fore
SplineSet
479 716 m 1,0,-1
 343 575 l 1,1,-1
 274 575 l 1,2,-1
 389 720 l 1,3,-1
 479 720 l 1,4,-1
 479 716 l 1,0,-1
367 521 m 0,5,6
 439 521 439 521 482 486 c 128,-1,7
 525 451 525 451 525 380 c 0,8,9
 525 358 525 358 499 178 c 2,10,-1
 474 0 l 1,11,-1
 380 0 l 1,12,-1
 404 167 l 1,13,14
 428 355 428 355 428 356 c 0,15,16
 428 446 428 446 335 446 c 0,17,18
 281 446 281 446 234 404.5 c 128,-1,19
 187 363 187 363 179 304 c 2,20,-1
 136 0 l 1,21,-1
 42 0 l 1,22,-1
 114 511 l 1,23,-1
 184 511 l 1,24,-1
 184 436 l 1,25,26
 262 521 262 521 367 521 c 0,5,6
EndSplineSet
EndChar

StartChar: ncaron
Encoding: 328 328 155
Width: 593
GlyphClass: 2
Flags: MW
HStem: 446 75<335.5 363> 491 20G<114 184 184 184> 575 145<182 375 182 297>
VStem: 428 97<372 388>
AnchorPoint: "Bottom" 258 0 basechar 0
LayerCount: 2
Fore
SplineSet
375 575 m 1,0,-1
 297 575 l 1,1,-1
 182 720 l 1,2,-1
 262 720 l 1,3,-1
 344 631 l 1,4,-1
 451 720 l 1,5,-1
 531 720 l 1,6,-1
 375 575 l 1,0,-1
367 521 m 0,7,8
 439 521 439 521 482 486 c 128,-1,9
 525 451 525 451 525 380 c 0,10,11
 525 358 525 358 499 178 c 2,12,-1
 474 0 l 1,13,-1
 380 0 l 1,14,-1
 404 167 l 1,15,16
 428 355 428 355 428 356 c 0,17,18
 428 446 428 446 335 446 c 0,19,20
 281 446 281 446 234 404.5 c 128,-1,21
 187 363 187 363 179 304 c 2,22,-1
 136 0 l 1,23,-1
 42 0 l 1,24,-1
 114 511 l 1,25,-1
 184 511 l 1,26,-1
 184 436 l 1,27,28
 262 521 262 521 367 521 c 0,7,8
EndSplineSet
EndChar

StartChar: ncommaaccent
Encoding: 326 326 156
Width: 593
GlyphClass: 2
Flags: MW
HStem: -151 111<201 226 185 302> 446 75<335.5 363> 491 20G<114 184 184 184>
VStem: 428 97<372 388>
AnchorPoint: "Bottom" 258 0 basechar 0
LayerCount: 2
Fore
SplineSet
367 521 m 0,0,1
 439 521 439 521 482 486 c 128,-1,2
 525 451 525 451 525 380 c 0,3,4
 525 358 525 358 499 178 c 2,5,-1
 474 0 l 1,6,-1
 380 0 l 1,7,-1
 404 167 l 1,8,9
 428 355 428 355 428 356 c 0,10,11
 428 446 428 446 335 446 c 0,12,13
 281 446 281 446 234 404.5 c 128,-1,14
 187 363 187 363 179 304 c 2,15,-1
 136 0 l 1,16,-1
 42 0 l 1,17,-1
 114 511 l 1,18,-1
 184 511 l 1,19,-1
 184 436 l 1,20,21
 262 521 262 521 367 521 c 0,0,1
290 -125 m 1,22,-1
 243 -250 l 1,23,-1
 190 -250 l 1,24,-1
 226 -151 l 1,25,-1
 185 -151 l 1,26,-1
 201 -40 l 1,27,-1
 302 -40 l 1,28,-1
 290 -125 l 1,22,-1
EndSplineSet
EndChar

StartChar: ntilde
Encoding: 241 241 157
Width: 593
GlyphClass: 2
Flags: MW
HStem: 446 75<335.5 363> 491 20G<114 184 184 184> 616 69<416.5 458 416.5 465> 650 70<247 289>
VStem: 428 97<372 388>
LayerCount: 2
Fore
SplineSet
503 720 m 1,0,-1
 553 720 l 1,1,2
 546 679 546 679 513 647.5 c 128,-1,3
 480 616 480 616 426 616 c 0,4,5
 393 616 393 616 340.5 633 c 128,-1,6
 288 650 288 650 262 650 c 0,7,8
 217 650 217 650 202 616 c 1,9,-1
 154 616 l 1,10,11
 161 656 161 656 194 688 c 128,-1,12
 227 720 227 720 280 720 c 0,13,14
 313 720 313 720 365.5 702.5 c 128,-1,15
 418 685 418 685 443 685 c 0,16,17
 488 685 488 685 503 720 c 1,0,-1
367 521 m 0,18,19
 439 521 439 521 482 486 c 128,-1,20
 525 451 525 451 525 380 c 0,21,22
 525 358 525 358 499 178 c 2,23,-1
 474 0 l 1,24,-1
 380 0 l 1,25,-1
 404 167 l 1,26,27
 428 355 428 355 428 356 c 0,28,29
 428 446 428 446 335 446 c 0,30,31
 281 446 281 446 234 404.5 c 128,-1,32
 187 363 187 363 179 304 c 2,33,-1
 136 0 l 1,34,-1
 42 0 l 1,35,-1
 114 511 l 1,36,-1
 184 511 l 1,37,-1
 184 436 l 1,38,39
 262 521 262 521 367 521 c 0,18,19
EndSplineSet
EndChar

StartChar: o
Encoding: 111 111 158
Width: 576
GlyphClass: 2
Flags: MW
HStem: -10 75<222 321.5 222 350.5> 446 75<241 343>
VStem: 41 95<152.5 254.5 152.5 269> 428 96<255.5 358>
LayerCount: 2
Fore
SplineSet
327.5 521 m 0,0,1
 411 521 411 521 467.5 470.5 c 128,-1,2
 524 420 524 420 524 324 c 0,3,4
 524 190.838709677 524 190.838709677 464 96 c 0,5,6
 433 47 433 47 377 18.5 c 128,-1,7
 321 -10 321 -10 237.5 -10 c 128,-1,8
 154 -10 154 -10 97.5 40.5 c 128,-1,9
 41 91 41 91 41 187 c 0,10,11
 41 320.161290323 41 320.161290323 101 415 c 0,12,13
 168.06122449 521 168.06122449 521 327.5 521 c 0,0,1
395.5 412.5 m 128,-1,15
 363 446 363 446 311.5 446 c 128,-1,16
 260 446 260 446 225 423.5 c 128,-1,17
 190 401 190 401 171.5 363 c 0,18,19
 136 290.081081081 136 290.081081081 136 211.040540541 c 128,-1,20
 136 132 136 132 169 98.5 c 128,-1,21
 202 65 202 65 252.5 65 c 128,-1,22
 303 65 303 65 338 87.5 c 128,-1,23
 373 110 373 110 391.5 147 c 0,24,25
 428 220 428 220 428 299.5 c 128,-1,14
 428 379 428 379 395.5 412.5 c 128,-1,15
EndSplineSet
Substitution2: "Single Substitution lookup 5 subtable" ordmasculine
Substitution2: "'aalt' Access All Alternates lookup 0 subtable" ordmasculine
EndChar

StartChar: oacute
Encoding: 243 243 159
Width: 576
GlyphClass: 2
Flags: MW
HStem: -10 75<222 321.5 222 350.5> 446 75<241 343> 575 145<294 499 294 499>
VStem: 41 95<152.5 254.5 152.5 269> 428 96<255.5 358>
LayerCount: 2
Fore
SplineSet
499 716 m 1,0,-1
 363 575 l 1,1,-1
 294 575 l 1,2,-1
 409 720 l 1,3,-1
 499 720 l 1,4,-1
 499 716 l 1,0,-1
327.5 521 m 0,5,6
 411 521 411 521 467.5 470.5 c 128,-1,7
 524 420 524 420 524 324 c 0,8,9
 524 190.838709677 524 190.838709677 464 96 c 0,10,11
 433 47 433 47 377 18.5 c 128,-1,12
 321 -10 321 -10 237.5 -10 c 128,-1,13
 154 -10 154 -10 97.5 40.5 c 128,-1,14
 41 91 41 91 41 187 c 0,15,16
 41 320.161290323 41 320.161290323 101 415 c 0,17,18
 168.06122449 521 168.06122449 521 327.5 521 c 0,5,6
395.5 412.5 m 128,-1,20
 363 446 363 446 311.5 446 c 128,-1,21
 260 446 260 446 225 423.5 c 128,-1,22
 190 401 190 401 171.5 363 c 0,23,24
 136 290.081081081 136 290.081081081 136 211.040540541 c 128,-1,25
 136 132 136 132 169 98.5 c 128,-1,26
 202 65 202 65 252.5 65 c 128,-1,27
 303 65 303 65 338 87.5 c 128,-1,28
 373 110 373 110 391.5 147 c 0,29,30
 428 220 428 220 428 299.5 c 128,-1,19
 428 379 428 379 395.5 412.5 c 128,-1,20
EndSplineSet
EndChar

StartChar: ocircumflex
Encoding: 244 244 160
Width: 576
GlyphClass: 2
Flags: MW
HStem: -10 75<222 321.5 222 350.5> 446 75<241 343> 575 145<161 396 318 510 318 430> 664 56<349 349>
VStem: 41 95<152.5 254.5 152.5 269> 428 96<255.5 358>
LayerCount: 2
Fore
SplineSet
510 575 m 1,0,-1
 430 575 l 1,1,-1
 349 664 l 1,2,-1
 241 575 l 1,3,-1
 161 575 l 1,4,-1
 318 720 l 1,5,-1
 396 720 l 1,6,-1
 510 575 l 1,0,-1
327.5 521 m 0,7,8
 411 521 411 521 467.5 470.5 c 128,-1,9
 524 420 524 420 524 324 c 0,10,11
 524 190.838709677 524 190.838709677 464 96 c 0,12,13
 433 47 433 47 377 18.5 c 128,-1,14
 321 -10 321 -10 237.5 -10 c 128,-1,15
 154 -10 154 -10 97.5 40.5 c 128,-1,16
 41 91 41 91 41 187 c 0,17,18
 41 320.161290323 41 320.161290323 101 415 c 0,19,20
 168.06122449 521 168.06122449 521 327.5 521 c 0,7,8
395.5 412.5 m 128,-1,22
 363 446 363 446 311.5 446 c 128,-1,23
 260 446 260 446 225 423.5 c 128,-1,24
 190 401 190 401 171.5 363 c 0,25,26
 136 290.081081081 136 290.081081081 136 211.040540541 c 128,-1,27
 136 132 136 132 169 98.5 c 128,-1,28
 202 65 202 65 252.5 65 c 128,-1,29
 303 65 303 65 338 87.5 c 128,-1,30
 373 110 373 110 391.5 147 c 0,31,32
 428 220 428 220 428 299.5 c 128,-1,21
 428 379 428 379 395.5 412.5 c 128,-1,22
EndSplineSet
EndChar

StartChar: odieresis
Encoding: 246 246 161
Width: 576
GlyphClass: 2
Flags: MW
HStem: -10 75<222 321.5 222 350.5> 446 75<241 343> 621 98<205 282 192 295 205 380 393 471>
VStem: 41 95<152.5 254.5 152.5 269> 428 96<255.5 358>
LayerCount: 2
Fore
SplineSet
282 621 m 1,0,-1
 192 621 l 1,1,-1
 205 719 l 1,2,-1
 295 719 l 1,3,-1
 282 621 l 1,0,-1
471 621 m 1,4,-1
 380 621 l 1,5,-1
 393 719 l 1,6,-1
 484 719 l 1,7,-1
 471 621 l 1,4,-1
327.5 521 m 0,8,9
 411 521 411 521 467.5 470.5 c 128,-1,10
 524 420 524 420 524 324 c 0,11,12
 524 190.838709677 524 190.838709677 464 96 c 0,13,14
 433 47 433 47 377 18.5 c 128,-1,15
 321 -10 321 -10 237.5 -10 c 128,-1,16
 154 -10 154 -10 97.5 40.5 c 128,-1,17
 41 91 41 91 41 187 c 0,18,19
 41 320.161290323 41 320.161290323 101 415 c 0,20,21
 168.06122449 521 168.06122449 521 327.5 521 c 0,8,9
395.5 412.5 m 128,-1,23
 363 446 363 446 311.5 446 c 128,-1,24
 260 446 260 446 225 423.5 c 128,-1,25
 190 401 190 401 171.5 363 c 0,26,27
 136 290.081081081 136 290.081081081 136 211.040540541 c 128,-1,28
 136 132 136 132 169 98.5 c 128,-1,29
 202 65 202 65 252.5 65 c 128,-1,30
 303 65 303 65 338 87.5 c 128,-1,31
 373 110 373 110 391.5 147 c 0,32,33
 428 220 428 220 428 299.5 c 128,-1,22
 428 379 428 379 395.5 412.5 c 128,-1,23
EndSplineSet
EndChar

StartChar: ograve
Encoding: 242 242 162
Width: 576
GlyphClass: 2
Flags: MW
HStem: -10 75<222 321.5 222 350.5> 446 75<241 343> 575 145<203 366 203 296>
VStem: 41 95<152.5 254.5 152.5 269> 428 96<255.5 358>
LayerCount: 2
Fore
SplineSet
366 575 m 1,0,-1
 296 575 l 1,1,-1
 201 717 l 1,2,-1
 203 720 l 1,3,-1
 292 720 l 1,4,-1
 366 575 l 1,0,-1
327.5 521 m 0,5,6
 411 521 411 521 467.5 470.5 c 128,-1,7
 524 420 524 420 524 324 c 0,8,9
 524 190.838709677 524 190.838709677 464 96 c 0,10,11
 433 47 433 47 377 18.5 c 128,-1,12
 321 -10 321 -10 237.5 -10 c 128,-1,13
 154 -10 154 -10 97.5 40.5 c 128,-1,14
 41 91 41 91 41 187 c 0,15,16
 41 320.161290323 41 320.161290323 101 415 c 0,17,18
 168.06122449 521 168.06122449 521 327.5 521 c 0,5,6
395.5 412.5 m 128,-1,20
 363 446 363 446 311.5 446 c 128,-1,21
 260 446 260 446 225 423.5 c 128,-1,22
 190 401 190 401 171.5 363 c 0,23,24
 136 290.081081081 136 290.081081081 136 211.040540541 c 128,-1,25
 136 132 136 132 169 98.5 c 128,-1,26
 202 65 202 65 252.5 65 c 128,-1,27
 303 65 303 65 338 87.5 c 128,-1,28
 373 110 373 110 391.5 147 c 0,29,30
 428 220 428 220 428 299.5 c 128,-1,19
 428 379 428 379 395.5 412.5 c 128,-1,20
EndSplineSet
EndChar

StartChar: ohungarumlaut
Encoding: 337 337 163
Width: 576
GlyphClass: 2
Flags: MW
HStem: -10 75<222 321.5 222 350.5> 446 75<241 343> 575 145<208 413 208 413 363 363 363 413 324 433>
VStem: 41 95<152.5 254.5 152.5 269> 428 96<255.5 358>
LayerCount: 2
Fore
SplineSet
413 715 m 1,0,-1
 278 575 l 1,1,-1
 208 575 l 1,2,-1
 324 720 l 1,3,-1
 413 720 l 1,4,-1
 413 715 l 1,0,-1
568 715 m 1,5,-1
 433 575 l 1,6,-1
 363 575 l 1,7,-1
 478 720 l 1,8,-1
 568 720 l 1,9,-1
 568 715 l 1,5,-1
327.5 521 m 0,10,11
 411 521 411 521 467.5 470.5 c 128,-1,12
 524 420 524 420 524 324 c 0,13,14
 524 190.838709677 524 190.838709677 464 96 c 0,15,16
 433 47 433 47 377 18.5 c 128,-1,17
 321 -10 321 -10 237.5 -10 c 128,-1,18
 154 -10 154 -10 97.5 40.5 c 128,-1,19
 41 91 41 91 41 187 c 0,20,21
 41 320.161290323 41 320.161290323 101 415 c 0,22,23
 168.06122449 521 168.06122449 521 327.5 521 c 0,10,11
395.5 412.5 m 128,-1,25
 363 446 363 446 311.5 446 c 128,-1,26
 260 446 260 446 225 423.5 c 128,-1,27
 190 401 190 401 171.5 363 c 0,28,29
 136 290.081081081 136 290.081081081 136 211.040540541 c 128,-1,30
 136 132 136 132 169 98.5 c 128,-1,31
 202 65 202 65 252.5 65 c 128,-1,32
 303 65 303 65 338 87.5 c 128,-1,33
 373 110 373 110 391.5 147 c 0,34,35
 428 220 428 220 428 299.5 c 128,-1,24
 428 379 428 379 395.5 412.5 c 128,-1,25
EndSplineSet
EndChar

StartChar: omacron
Encoding: 333 333 164
Width: 576
GlyphClass: 2
Flags: MW
HStem: -10 75<222 321.5 222 350.5> 446 75<241 343> 662 74<204 511 193 522>
VStem: 41 95<152.5 254.5 152.5 269> 428 96<255.5 358>
LayerCount: 2
Fore
SplineSet
511 662 m 1,0,-1
 193 662 l 1,1,-1
 204 736 l 1,2,-1
 522 736 l 1,3,-1
 511 662 l 1,0,-1
327.5 521 m 0,4,5
 411 521 411 521 467.5 470.5 c 128,-1,6
 524 420 524 420 524 324 c 0,7,8
 524 190.838709677 524 190.838709677 464 96 c 0,9,10
 433 47 433 47 377 18.5 c 128,-1,11
 321 -10 321 -10 237.5 -10 c 128,-1,12
 154 -10 154 -10 97.5 40.5 c 128,-1,13
 41 91 41 91 41 187 c 0,14,15
 41 320.161290323 41 320.161290323 101 415 c 0,16,17
 168.06122449 521 168.06122449 521 327.5 521 c 0,4,5
395.5 412.5 m 128,-1,19
 363 446 363 446 311.5 446 c 128,-1,20
 260 446 260 446 225 423.5 c 128,-1,21
 190 401 190 401 171.5 363 c 0,22,23
 136 290.081081081 136 290.081081081 136 211.040540541 c 128,-1,24
 136 132 136 132 169 98.5 c 128,-1,25
 202 65 202 65 252.5 65 c 128,-1,26
 303 65 303 65 338 87.5 c 128,-1,27
 373 110 373 110 391.5 147 c 0,28,29
 428 220 428 220 428 299.5 c 128,-1,18
 428 379 428 379 395.5 412.5 c 128,-1,19
EndSplineSet
EndChar

StartChar: oslash
Encoding: 248 248 165
Width: 576
GlyphClass: 2
Flags: MW
HStem: -10 75<240.5 321.5 240.5 350.5> 446 75<240.5 323>
VStem: 41 95<184.5 200 184.5 269> 428 96<255.5 325.5>
LayerCount: 2
Fore
SplineSet
550 568 m 1,0,-1
 472 466 l 1,1,2
 524 412 524 412 524 324 c 0,3,4
 524 190.838709677 524 190.838709677 464 96 c 0,5,6
 433 47 433 47 377 18.5 c 128,-1,7
 321 -10 321 -10 249 -10 c 128,-1,8
 177 -10 177 -10 129 17 c 1,9,-1
 74 -55 l 1,10,-1
 15 -55 l 1,11,-1
 92 45 l 1,12,13
 41 98 41 98 41 187 c 0,14,15
 41 320.161290323 41 320.161290323 101 415 c 0,16,17
 132 464 132 464 188 492.5 c 128,-1,18
 244 521 244 521 315 521 c 128,-1,19
 386 521 386 521 434 494 c 1,20,-1
 491 568 l 1,21,-1
 550 568 l 1,0,-1
381 425 m 1,22,23
 351 446 351 446 310.5 446 c 128,-1,24
 270 446 270 446 239.5 430.5 c 128,-1,25
 209 415 209 415 191 391.5 c 128,-1,26
 173 368 173 368 161 333 c 0,27,28
 142.380530973 278.693215339 142.380530973 278.693215339 136 200 c 0,29,30
 136 153 136 153 151 123 c 1,31,-1
 381 425 l 1,22,23
412 388 m 1,32,-1
 182 86 l 1,33,34
 211 65 211 65 257 65 c 128,-1,35
 303 65 303 65 338 87.5 c 128,-1,36
 373 110 373 110 391.5 147 c 0,37,38
 428 220 428 220 428 310 c 0,39,40
 428 357 428 357 412 388 c 1,32,-1
EndSplineSet
EndChar

StartChar: otilde
Encoding: 245 245 166
Width: 576
GlyphClass: 2
Flags: MW
HStem: -10 75<222 321.5 222 350.5> 446 75<241 343> 615 69<395.5 437 395.5 444> 649 70<226 268>
VStem: 41 95<152.5 254.5 152.5 269> 428 96<255.5 358>
LayerCount: 2
Fore
SplineSet
482 719 m 1,0,-1
 532 719 l 1,1,2
 525 678 525 678 492 646.5 c 128,-1,3
 459 615 459 615 405 615 c 0,4,5
 372 615 372 615 319.5 632 c 128,-1,6
 267 649 267 649 241 649 c 0,7,8
 196 649 196 649 181 615 c 1,9,-1
 133 615 l 1,10,11
 140 655 140 655 173 687 c 128,-1,12
 206 719 206 719 259 719 c 0,13,14
 292 719 292 719 344.5 701.5 c 128,-1,15
 397 684 397 684 422 684 c 0,16,17
 467 684 467 684 482 719 c 1,0,-1
327.5 521 m 0,18,19
 411 521 411 521 467.5 470.5 c 128,-1,20
 524 420 524 420 524 324 c 0,21,22
 524 190.838709677 524 190.838709677 464 96 c 0,23,24
 433 47 433 47 377 18.5 c 128,-1,25
 321 -10 321 -10 237.5 -10 c 128,-1,26
 154 -10 154 -10 97.5 40.5 c 128,-1,27
 41 91 41 91 41 187 c 0,28,29
 41 320.161290323 41 320.161290323 101 415 c 0,30,31
 168.06122449 521 168.06122449 521 327.5 521 c 0,18,19
395.5 412.5 m 128,-1,33
 363 446 363 446 311.5 446 c 128,-1,34
 260 446 260 446 225 423.5 c 128,-1,35
 190 401 190 401 171.5 363 c 0,36,37
 136 290.081081081 136 290.081081081 136 211.040540541 c 128,-1,38
 136 132 136 132 169 98.5 c 128,-1,39
 202 65 202 65 252.5 65 c 128,-1,40
 303 65 303 65 338 87.5 c 128,-1,41
 373 110 373 110 391.5 147 c 0,42,43
 428 220 428 220 428 299.5 c 128,-1,32
 428 379 428 379 395.5 412.5 c 128,-1,33
EndSplineSet
EndChar

StartChar: oe
Encoding: 339 339 167
Width: 933
GlyphClass: 2
Flags: MW
HStem: -10 75<222 291.5 589 619 619 623> 234 73<527 789 527 871 514 789> 446 75<240.5 343 691 698 698 714.5>
VStem: 41 95<152.5 200 152.5 269> 428 84<162.5 358> 792 92<339 344 327 377>
LayerCount: 2
Fore
SplineSet
691 521 m 2,0,-1
 698 521 l 2,1,2
 783 521 783 521 833.5 474 c 128,-1,3
 884 427 884 427 884 344 c 2,4,-1
 884 333 l 2,5,6
 884 312 884 312 871 234 c 1,7,-1
 514 234 l 1,8,9
 512 212 512 212 512 202 c 0,10,11
 512 65 512 65 633 65 c 0,12,13
 672 65 672 65 701.5 79 c 128,-1,14
 731 93 731 93 745.5 116 c 0,15,16
 770.1953125 155.171875 770.1953125 155.171875 776 190 c 1,17,-1
 865 190 l 1,18,19
 852 96 852 96 788.5 43 c 128,-1,20
 725 -10 725 -10 623 -10 c 2,21,-1
 619 -10 l 2,22,23
 498 -10 498 -10 448 75 c 1,24,25
 376 -10 376 -10 245 -10 c 0,26,27
 154 -10 154 -10 97.5 40.5 c 128,-1,28
 41 91 41 91 41 187 c 0,29,30
 41 320.161290323 41 320.161290323 101 415 c 0,31,32
 132 464 132 464 188 492.5 c 128,-1,33
 244 521 244 521 320 521 c 0,34,35
 444 521 444 521 496 436 c 1,36,37
 570 521 570 521 691 521 c 2,0,-1
395.5 412.5 m 128,-1,39
 363 446 363 446 316.5 446 c 128,-1,40
 270 446 270 446 239.5 430.5 c 128,-1,41
 209 415 209 415 191 391.5 c 128,-1,42
 173 368 173 368 161 333 c 0,43,44
 142.380530973 278.693215339 142.380530973 278.693215339 136 200 c 1,45,46
 136 132 136 132 169 98.5 c 128,-1,47
 202 65 202 65 252.5 65 c 128,-1,48
 303 65 303 65 338 87.5 c 128,-1,49
 373 110 373 110 391.5 147 c 0,50,51
 428 220 428 220 428 299.5 c 128,-1,38
 428 379 428 379 395.5 412.5 c 128,-1,39
762 419.5 m 128,-1,53
 732 446 732 446 678.5 446 c 128,-1,54
 625 446 625 446 584.5 411 c 128,-1,55
 544 376 544 376 527 307 c 1,56,-1
 789 307 l 1,57,58
 792 327 792 327 792 343 c 0,59,52
 792 393 792 393 762 419.5 c 128,-1,53
EndSplineSet
EndChar

StartChar: p
Encoding: 112 112 168
Width: 583
GlyphClass: 2
Flags: MW
HStem: -10 75<253 342.5> 446 75<321 361.5> 491 20G<114 188 188 188>
VStem: 438 93<263.5 365.5>
LayerCount: 2
Fore
SplineSet
357 521 m 0,0,1
 435 521 435 521 483 470.5 c 128,-1,2
 531 420 531 420 531 320 c 0,3,4
 531 202.62962963 531 202.62962963 478 103.5 c 0,5,6
 451 53 451 53 402 21.5 c 128,-1,7
 353 -10 353 -10 289 -10 c 0,8,9
 187 -10 187 -10 146 65 c 1,10,-1
 111 -181 l 1,11,-1
 17 -181 l 1,12,-1
 114 511 l 1,13,-1
 188 511 l 1,14,-1
 188 441 l 1,15,16
 255 521 255 521 357 521 c 0,0,1
329 446 m 0,17,18
 259 446 259 446 213 387 c 128,-1,19
 167 328 167 328 167 193 c 0,20,21
 167 124 167 124 195 94.5 c 128,-1,22
 223 65 223 65 273 65 c 128,-1,23
 323 65 323 65 357 88.5 c 128,-1,24
 391 112 391 112 407.5 151.5 c 0,25,26
 438 224.515151515 438 224.515151515 438 317 c 0,27,28
 438 446 438 446 329 446 c 0,17,18
EndSplineSet
EndChar

StartChar: thorn
Encoding: 254 254 169
Width: 582
GlyphClass: 2
Flags: MW
HStem: -10 75<253 339> 446 75<325 361.5> 700 20G<144 238 238 238>
VStem: 438 93<263.5 365.5>
LayerCount: 2
Fore
SplineSet
238 720 m 1,0,-1
 201 455 l 1,1,2
 262 521 262 521 357 521 c 0,3,4
 435 521 435 521 483 470.5 c 128,-1,5
 531 420 531 420 531 320 c 0,6,7
 531 205.111111111 531 205.111111111 478 105 c 0,8,9
 451 54 451 54 402 22 c 128,-1,10
 353 -10 353 -10 289 -10 c 0,11,12
 187 -10 187 -10 146 65 c 1,13,-1
 111 -181 l 1,14,-1
 17 -181 l 1,15,-1
 144 720 l 1,16,-1
 238 720 l 1,0,-1
329 446 m 0,17,18
 257 446 257 446 212 384 c 128,-1,19
 167 322 167 322 167 193 c 0,20,21
 167 124 167 124 195 94.5 c 128,-1,22
 223 65 223 65 279 65 c 128,-1,23
 335 65 335 65 373.5 107.5 c 128,-1,24
 412 150 412 150 425 203 c 128,-1,25
 438 256 438 256 438 317 c 0,26,27
 438 446 438 446 329 446 c 0,17,18
EndSplineSet
EndChar

StartChar: q
Encoding: 113 113 170
Width: 582
GlyphClass: 2
Flags: MW
HStem: -10 75<211.5 245> 446 75<250.5 328.5 197.5 330.5> 491 20G<494 530 530 530>
VStem: 40 96<145 256.5>
LayerCount: 2
Fore
SplineSet
291 521 m 0,0,1
 404 521 404 521 450 430 c 1,2,-1
 494 511 l 1,3,-1
 530 511 l 1,4,-1
 433 -180 l 1,5,-1
 339 -180 l 1,6,-1
 374 65 l 1,7,8
 310 -10 310 -10 209 -10 c 0,9,10
 134 -10 134 -10 87 41 c 128,-1,11
 40 92 40 92 40 185 c 0,12,13
 40 303.857142857 40 303.857142857 95 406 c 0,14,15
 123 458 123 458 173.5 489.5 c 128,-1,16
 224 521 224 521 291 521 c 0,0,1
298 446 m 0,17,18
 224 446 224 446 180 381.5 c 128,-1,19
 136 317 136 317 136 193 c 0,20,21
 136 124 136 124 164 94.5 c 128,-1,22
 192 65 192 65 241.5 65 c 128,-1,23
 291 65 291 65 324.5 88.5 c 128,-1,24
 358 112 358 112 375 151.5 c 0,25,26
 407 225.852941176 407 225.852941176 407 317 c 0,27,28
 407 446 407 446 298 446 c 0,17,18
EndSplineSet
EndChar

StartChar: r
Encoding: 114 114 171
Width: 489
GlyphClass: 2
Flags: MW
HStem: 446 75<290 332> 491 20G<114 184 184 184>
VStem: 386 90<355.5 427>
AnchorPoint: "Bottom" 89 0 basechar 0
LayerCount: 2
Fore
SplineSet
348 521 m 0,0,1
 409 521 409 521 442.5 484.5 c 128,-1,2
 476 448 476 448 476 389 c 0,3,4
 476 374 476 374 472 350.5 c 128,-1,5
 468 327 468 327 465 323 c 1,6,-1
 382 323 l 1,7,8
 386 350 386 350 386 358 c 0,9,10
 386 391 386 391 364.5 418.5 c 128,-1,11
 343 446 343 446 295.5 446 c 128,-1,12
 248 446 248 446 217.5 404 c 128,-1,13
 187 362 187 362 179 305 c 2,14,-1
 136 0 l 1,15,-1
 42 0 l 1,16,-1
 114 511 l 1,17,-1
 184 511 l 1,18,-1
 184 435 l 1,19,20
 211.577319588 490.154639175 211.577319588 490.154639175 286.5 512.5 c 0,21,22
 315 521 315 521 348 521 c 0,0,1
EndSplineSet
EndChar

StartChar: racute
Encoding: 341 341 172
Width: 489
GlyphClass: 2
Flags: MW
HStem: 446 75<290 332> 491 20G<114 184 184 184> 575 145<122 327 122 327>
VStem: 386 90<355.5 427>
AnchorPoint: "Bottom" 89 0 basechar 0
LayerCount: 2
Fore
SplineSet
327 716 m 1,0,-1
 191 575 l 1,1,-1
 122 575 l 1,2,-1
 237 720 l 1,3,-1
 327 720 l 1,4,-1
 327 716 l 1,0,-1
348 521 m 0,5,6
 409 521 409 521 442.5 484.5 c 128,-1,7
 476 448 476 448 476 389 c 0,8,9
 476 374 476 374 472 350.5 c 128,-1,10
 468 327 468 327 465 323 c 1,11,-1
 382 323 l 1,12,13
 386 350 386 350 386 358 c 0,14,15
 386 391 386 391 364.5 418.5 c 128,-1,16
 343 446 343 446 295.5 446 c 128,-1,17
 248 446 248 446 217.5 404 c 128,-1,18
 187 362 187 362 179 305 c 2,19,-1
 136 0 l 1,20,-1
 42 0 l 1,21,-1
 114 511 l 1,22,-1
 184 511 l 1,23,-1
 184 435 l 1,24,25
 211.577319588 490.154639175 211.577319588 490.154639175 286.5 512.5 c 0,26,27
 315 521 315 521 348 521 c 0,5,6
EndSplineSet
EndChar

StartChar: rcaron
Encoding: 345 345 173
Width: 489
GlyphClass: 2
Flags: MW
HStem: 446 75<290 332> 491 20G<114 184 184 184> 575 145<30 223 30 145>
VStem: 386 90<355.5 427>
AnchorPoint: "Bottom" 89 0 basechar 0
LayerCount: 2
Fore
SplineSet
223 575 m 1,0,-1
 145 575 l 1,1,-1
 30 720 l 1,2,-1
 110 720 l 1,3,-1
 192 631 l 1,4,-1
 299 720 l 1,5,-1
 379 720 l 1,6,-1
 223 575 l 1,0,-1
348 521 m 0,7,8
 409 521 409 521 442.5 484.5 c 128,-1,9
 476 448 476 448 476 389 c 0,10,11
 476 374 476 374 472 350.5 c 128,-1,12
 468 327 468 327 465 323 c 1,13,-1
 382 323 l 1,14,15
 386 350 386 350 386 358 c 0,16,17
 386 391 386 391 364.5 418.5 c 128,-1,18
 343 446 343 446 295.5 446 c 128,-1,19
 248 446 248 446 217.5 404 c 128,-1,20
 187 362 187 362 179 305 c 2,21,-1
 136 0 l 1,22,-1
 42 0 l 1,23,-1
 114 511 l 1,24,-1
 184 511 l 1,25,-1
 184 435 l 1,26,27
 211.577319588 490.154639175 211.577319588 490.154639175 286.5 512.5 c 0,28,29
 315 521 315 521 348 521 c 0,7,8
EndSplineSet
EndChar

StartChar: rcommaaccent
Encoding: 343 343 174
Width: 489
GlyphClass: 2
Flags: MW
HStem: -151 111<32 57 16 133> 446 75<290 332> 491 20G<114 184 184 184>
VStem: 386 90<355.5 427>
AnchorPoint: "Bottom" 89 0 basechar 0
LayerCount: 2
Fore
SplineSet
348 521 m 0,0,1
 409 521 409 521 442.5 484.5 c 128,-1,2
 476 448 476 448 476 389 c 0,3,4
 476 374 476 374 472 350.5 c 128,-1,5
 468 327 468 327 465 323 c 1,6,-1
 382 323 l 1,7,8
 386 350 386 350 386 358 c 0,9,10
 386 391 386 391 364.5 418.5 c 128,-1,11
 343 446 343 446 295.5 446 c 128,-1,12
 248 446 248 446 217.5 404 c 128,-1,13
 187 362 187 362 179 305 c 2,14,-1
 136 0 l 1,15,-1
 42 0 l 1,16,-1
 114 511 l 1,17,-1
 184 511 l 1,18,-1
 184 435 l 1,19,20
 211.577319588 490.154639175 211.577319588 490.154639175 286.5 512.5 c 0,21,22
 315 521 315 521 348 521 c 0,0,1
121 -125 m 1,23,-1
 74 -250 l 1,24,-1
 21 -250 l 1,25,-1
 57 -151 l 1,26,-1
 16 -151 l 1,27,-1
 32 -40 l 1,28,-1
 133 -40 l 1,29,-1
 121 -125 l 1,23,-1
EndSplineSet
EndChar

StartChar: s
Encoding: 115 115 175
Width: 536
GlyphClass: 2
Flags: MW
HStem: -10 75<205 211 211 226> 222.54 79.6 446 75<302 311 311 327.5>
VStem: 23 96<111.5 132.5> 69 97<320 384.5 320 406.5> 371 97<120 204> 392 95<392.5 399.5>
AnchorPoint: "Bottom" 268 0 basechar 0
LayerCount: 2
Fore
SplineSet
119 146.5 m 1,0,-1
 119 137 l 2,1,2
 119 101 119 101 152 83 c 128,-1,3
 185 65 185 65 240.5 65 c 128,-1,4
 296 65 296 65 333.5 86.5 c 128,-1,5
 371 108 371 108 371 143 c 128,-1,6
 371 178 371 178 340 195 c 128,-1,7
 309 212 309 212 264.5 220 c 128,-1,8
 220 228 220 228 175.5 238.5 c 128,-1,9
 131 249 131 249 100 278 c 128,-1,10
 69 307 69 307 69 355 c 0,11,12
 69 433 69 433 130 477 c 128,-1,13
 191 521 191 521 302 521 c 2,14,-1
 311 521 l 2,15,16
 392 521 392 521 439.5 486 c 128,-1,17
 487 451 487 451 487 398 c 0,18,19
 487 376 487 376 483 364 c 1,20,-1
 390 364 l 1,21,-1
 392 383 l 1,22,23
 392 446 392 446 288 446 c 0,24,25
 220 446 220 446 193 422.5 c 128,-1,26
 166 399 166 399 166 371 c 128,-1,27
 166 343 166 343 197 328 c 128,-1,28
 228 313 228 313 272.5 305 c 128,-1,29
 317 297 317 297 361.5 286 c 128,-1,30
 406 275 406 275 437 245.5 c 128,-1,31
 468 216 468 216 468 168 c 0,32,33
 468 74 468 74 401.5 32 c 128,-1,34
 335 -10 335 -10 226 -10 c 2,35,-1
 211 -10 l 2,36,37
 118 -10 118 -10 70.5 27.5 c 128,-1,38
 23 65 23 65 23 121 c 0,39,40
 23 134 23 134 25.5 146.5 c 128,-1,41
 28 159 28 159 28 160 c 1,42,-1
 121 160 l 1,43,-1
 119 146.5 l 1,0,-1
EndSplineSet
EndChar

StartChar: sacute
Encoding: 347 347 176
Width: 536
GlyphClass: 2
Flags: MW
HStem: -10 75<205 211 211 226> 222.54 79.6 446 75<302 311 311 327.5> 575 145<215 420 215 420>
VStem: 23 96<111.5 132.5> 69 97<320 384.5 320 406.5> 371 97<120 204> 392 95<392.5 399.5>
AnchorPoint: "Bottom" 268 0 basechar 0
LayerCount: 2
Fore
SplineSet
420 716 m 1,0,-1
 284 575 l 1,1,-1
 215 575 l 1,2,-1
 330 720 l 1,3,-1
 420 720 l 1,4,-1
 420 716 l 1,0,-1
119 146.5 m 1,5,-1
 119 137 l 2,6,7
 119 101 119 101 152 83 c 128,-1,8
 185 65 185 65 240.5 65 c 128,-1,9
 296 65 296 65 333.5 86.5 c 128,-1,10
 371 108 371 108 371 143 c 128,-1,11
 371 178 371 178 340 195 c 128,-1,12
 309 212 309 212 264.5 220 c 128,-1,13
 220 228 220 228 175.5 238.5 c 128,-1,14
 131 249 131 249 100 278 c 128,-1,15
 69 307 69 307 69 355 c 0,16,17
 69 433 69 433 130 477 c 128,-1,18
 191 521 191 521 302 521 c 2,19,-1
 311 521 l 2,20,21
 392 521 392 521 439.5 486 c 128,-1,22
 487 451 487 451 487 398 c 0,23,24
 487 376 487 376 483 364 c 1,25,-1
 390 364 l 1,26,-1
 392 383 l 1,27,28
 392 446 392 446 288 446 c 0,29,30
 220 446 220 446 193 422.5 c 128,-1,31
 166 399 166 399 166 371 c 128,-1,32
 166 343 166 343 197 328 c 128,-1,33
 228 313 228 313 272.5 305 c 128,-1,34
 317 297 317 297 361.5 286 c 128,-1,35
 406 275 406 275 437 245.5 c 128,-1,36
 468 216 468 216 468 168 c 0,37,38
 468 74 468 74 401.5 32 c 128,-1,39
 335 -10 335 -10 226 -10 c 2,40,-1
 211 -10 l 2,41,42
 118 -10 118 -10 70.5 27.5 c 128,-1,43
 23 65 23 65 23 121 c 0,44,45
 23 134 23 134 25.5 146.5 c 128,-1,46
 28 159 28 159 28 160 c 1,47,-1
 121 160 l 1,48,-1
 119 146.5 l 1,5,-1
EndSplineSet
EndChar

StartChar: scaron
Encoding: 353 353 177
Width: 536
GlyphClass: 2
Flags: MW
HStem: -10 75<205 211 211 226> 222.54 79.6 446 75<302 311 311 327.5> 575 145<153 346 153 268>
VStem: 23 96<111.5 132.5> 69 97<320 384.5 320 406.5> 371 97<120 204> 392 95<392.5 399.5>
LayerCount: 2
Fore
SplineSet
346 575 m 1,0,-1
 268 575 l 1,1,-1
 153 720 l 1,2,-1
 233 720 l 1,3,-1
 315 631 l 1,4,-1
 422 720 l 1,5,-1
 502 720 l 1,6,-1
 346 575 l 1,0,-1
390 364 m 1,7,-1
 392 383 l 1,8,9
 392 446 392 446 288 446 c 0,10,11
 220 446 220 446 193 422.5 c 128,-1,12
 166 399 166 399 166 371 c 128,-1,13
 166 343 166 343 197 328 c 128,-1,14
 228 313 228 313 272.5 305 c 128,-1,15
 317 297 317 297 361.5 286 c 128,-1,16
 406 275 406 275 437 245.5 c 128,-1,17
 468 216 468 216 468 168 c 0,18,19
 468 74 468 74 401.5 32 c 128,-1,20
 335 -10 335 -10 226 -10 c 2,21,-1
 211 -10 l 2,22,23
 118 -10 118 -10 70.5 27.5 c 128,-1,24
 23 65 23 65 23 121 c 0,25,26
 23 134 23 134 25.5 146.5 c 128,-1,27
 28 159 28 159 28 160 c 1,28,-1
 121 160 l 1,29,30
 119 146 119 146 119 144 c 2,31,-1
 119 137 l 2,32,33
 119 101 119 101 152 83 c 128,-1,34
 185 65 185 65 240.5 65 c 128,-1,35
 296 65 296 65 333.5 86.5 c 128,-1,36
 371 108 371 108 371 143 c 128,-1,37
 371 178 371 178 340 195 c 128,-1,38
 309 212 309 212 264.5 220 c 128,-1,39
 220 228 220 228 175.5 238.5 c 128,-1,40
 131 249 131 249 100 278 c 128,-1,41
 69 307 69 307 69 355 c 0,42,43
 69 433 69 433 130 477 c 128,-1,44
 191 521 191 521 302 521 c 2,45,-1
 311 521 l 2,46,47
 392 521 392 521 439.5 486 c 128,-1,48
 487 451 487 451 487 398 c 0,49,50
 487 376 487 376 483 364 c 1,51,-1
 390 364 l 1,7,-1
EndSplineSet
EndChar

StartChar: scedilla
Encoding: 351 351 178
Width: 536
GlyphClass: 2
Flags: MW
HStem: -197 51<234 269 231.5 273> -60 43<255 270 249 279> -10 75<205 211 211 226> 222.54 79.6 446 75<302 311 311 327.5>
VStem: 23 96<111.5 132.5> 69 97<320 384.5 320 406.5> 316 63<-113 -83.5> 371 97<120 204> 392 95<392.5 399.5>
AnchorPoint: "Bottom" 268 0 basechar 0
LayerCount: 2
Fore
SplineSet
119 146.5 m 1,0,-1
 119 137 l 2,1,2
 119 101 119 101 152 83 c 128,-1,3
 185 65 185 65 240.5 65 c 128,-1,4
 296 65 296 65 333.5 86.5 c 128,-1,5
 371 108 371 108 371 143 c 128,-1,6
 371 178 371 178 340 195 c 128,-1,7
 309 212 309 212 264.5 220 c 128,-1,8
 220 228 220 228 175.5 238.5 c 128,-1,9
 131 249 131 249 100 278 c 128,-1,10
 69 307 69 307 69 355 c 0,11,12
 69 433 69 433 130 477 c 128,-1,13
 191 521 191 521 302 521 c 2,14,-1
 311 521 l 2,15,16
 392 521 392 521 439.5 486 c 128,-1,17
 487 451 487 451 487 398 c 0,18,19
 487 376 487 376 483 364 c 1,20,-1
 390 364 l 1,21,-1
 392 383 l 1,22,23
 392 446 392 446 288 446 c 0,24,25
 220 446 220 446 193 422.5 c 128,-1,26
 166 399 166 399 166 371 c 128,-1,27
 166 343 166 343 197 328 c 128,-1,28
 228 313 228 313 272.5 305 c 128,-1,29
 317 297 317 297 361.5 286 c 128,-1,30
 406 275 406 275 437 245.5 c 128,-1,31
 468 216 468 216 468 168 c 0,32,33
 468 74 468 74 401.5 32 c 128,-1,34
 335 -10 335 -10 226 -10 c 2,35,-1
 211 -10 l 2,36,37
 118 -10 118 -10 70.5 27.5 c 128,-1,38
 23 65 23 65 23 121 c 0,39,40
 23 134 23 134 25.5 146.5 c 128,-1,41
 28 159 28 159 28 160 c 1,42,-1
 121 160 l 1,43,-1
 119 146.5 l 1,0,-1
255 -17 m 1,44,-1
 279 -17 l 2,45,46
 379 -17 379 -17 379 -90 c 0,47,48
 379 -130 379 -130 355 -155.5 c 0,49,50
 315.941176471 -197 315.941176471 -197 255.470588235 -197 c 128,-1,51
 195 -197 195 -197 158 -175 c 1,52,-1
 174 -126 l 1,53,54
 210 -146 210 -146 244.5 -146 c 0,55,56
 316 -146 316 -146 316 -95 c 0,57,58
 316 -60 316 -60 270 -60 c 2,59,-1
 249 -60 l 1,60,-1
 255 -17 l 1,44,-1
EndSplineSet
EndChar

StartChar: scommaaccent
Encoding: 537 537 179
Width: 536
GlyphClass: 2
Flags: MW
HStem: -151 111<211 236 195 312> -10 75<205 211 211 226> 222.54 79.6 446 75<302 311 311 327.5>
VStem: 23 96<111.5 132.5> 69 97<320 384.5 320 406.5> 371 97<120 204> 392 95<392.5 399.5>
AnchorPoint: "Bottom" 268 0 basechar 0
LayerCount: 2
Fore
SplineSet
119 146.5 m 1,0,-1
 119 137 l 2,1,2
 119 101 119 101 152 83 c 128,-1,3
 185 65 185 65 240.5 65 c 128,-1,4
 296 65 296 65 333.5 86.5 c 128,-1,5
 371 108 371 108 371 143 c 128,-1,6
 371 178 371 178 340 195 c 128,-1,7
 309 212 309 212 264.5 220 c 128,-1,8
 220 228 220 228 175.5 238.5 c 128,-1,9
 131 249 131 249 100 278 c 128,-1,10
 69 307 69 307 69 355 c 0,11,12
 69 433 69 433 130 477 c 128,-1,13
 191 521 191 521 302 521 c 2,14,-1
 311 521 l 2,15,16
 392 521 392 521 439.5 486 c 128,-1,17
 487 451 487 451 487 398 c 0,18,19
 487 376 487 376 483 364 c 1,20,-1
 390 364 l 1,21,-1
 392 383 l 1,22,23
 392 446 392 446 288 446 c 0,24,25
 220 446 220 446 193 422.5 c 128,-1,26
 166 399 166 399 166 371 c 128,-1,27
 166 343 166 343 197 328 c 128,-1,28
 228 313 228 313 272.5 305 c 128,-1,29
 317 297 317 297 361.5 286 c 128,-1,30
 406 275 406 275 437 245.5 c 128,-1,31
 468 216 468 216 468 168 c 0,32,33
 468 74 468 74 401.5 32 c 128,-1,34
 335 -10 335 -10 226 -10 c 2,35,-1
 211 -10 l 2,36,37
 118 -10 118 -10 70.5 27.5 c 128,-1,38
 23 65 23 65 23 121 c 0,39,40
 23 134 23 134 25.5 146.5 c 128,-1,41
 28 159 28 159 28 160 c 1,42,-1
 121 160 l 1,43,-1
 119 146.5 l 1,0,-1
300 -125 m 1,44,-1
 253 -250 l 1,45,-1
 200 -250 l 1,46,-1
 236 -151 l 1,47,-1
 195 -151 l 1,48,-1
 211 -40 l 1,49,-1
 312 -40 l 1,50,-1
 300 -125 l 1,44,-1
EndSplineSet
EndChar

StartChar: germandbls
Encoding: 223 223 180
Width: 614
GlyphClass: 2
Flags: MW
HStem: 0 75<229 301 218 302> 346 74<277 340 267 342> 436 75<77 124 66 135> 653 75<341 414>
VStem: 461 94<188.5 264> 483 96<526.5 587>
LayerCount: 2
Fore
SplineSet
392 728 m 0,0,1
 473 728 473 728 526 685.5 c 128,-1,2
 579 643 579 643 579 574.5 c 0,3,4
 579 506 579 506 545.5 459 c 128,-1,5
 512 412 512 412 456 391 c 1,6,-1
 457 387 l 1,7,8
 502 370 502 370 528.5 328 c 128,-1,9
 555 286 555 286 555 235 c 0,10,11
 555 130 555 130 481 65 c 128,-1,12
 407 0 407 0 301 0 c 2,13,-1
 218 0 l 1,14,-1
 229 75 l 1,15,-1
 302 75 l 2,16,17
 365 75 365 75 413 121.5 c 128,-1,18
 461 168 461 168 461 224.5 c 0,19,20
 461 281 461 281 427 313.5 c 128,-1,21
 393 346 393 346 340 346 c 2,22,-1
 267 346 l 1,23,-1
 277 420 l 1,24,-1
 342 420 l 2,25,26
 399 420 399 420 441 461 c 128,-1,27
 483 502 483 502 483 552 c 0,28,29
 483 602 483 602 456.5 627.5 c 128,-1,30
 430 653 430 653 375.5 653 c 0,31,32
 321 653 321 653 279.5 614.5 c 128,-1,33
 238 576 238 576 229 513 c 2,34,-1
 148 -66 l 1,35,-1
 54 -66 l 1,36,-1
 124 436 l 1,37,-1
 66 436 l 1,38,-1
 77 511 l 1,39,-1
 135 511 l 1,40,41
 151 613 151 613 218.5 670.5 c 128,-1,42
 286 728 286 728 392 728 c 0,0,1
EndSplineSet
EndChar

StartChar: t
Encoding: 116 116 181
Width: 344
GlyphClass: 2
Flags: MW
HStem: -10 73<145.5 224.5> 436 75<73 118 62 128 223 331>
VStem: 73 94<90.5 101> 91 94
AnchorPoint: "Bottom" 172 0 basechar 0
LayerCount: 2
Fore
SplineSet
223 511 m 1,0,-1
 342 511 l 1,1,-1
 331 436 l 1,2,-1
 212 436 l 1,3,4
 196 335 196 335 189 283 c 2,5,-1
 181 225 l 2,6,7
 167 127 167 127 167 112 c 0,8,9
 167 63 167 63 217 63 c 0,10,11
 245 63 245 63 281 78 c 1,12,-1
 271 8 l 1,13,14
 233 -10 233 -10 179.5 -10 c 0,15,16
 126 -10 126 -10 99.5 14.5 c 128,-1,17
 73 39 73 39 73 93 c 0,18,19
 73 118 73 118 87 221 c 2,20,-1
 95 281 l 2,21,22
 101 330 101 330 118 436 c 1,23,-1
 62 436 l 1,24,-1
 73 511 l 1,25,-1
 128 511 l 1,26,-1
 150 674 l 1,27,-1
 253 674 l 1,28,-1
 223 511 l 1,0,-1
EndSplineSet
EndChar

StartChar: tcaron
Encoding: 357 357 182
Width: 344
GlyphClass: 2
Flags: MW
HStem: -10 73<145.5 224.5> 436 75<73 118 62 128 223 331> 451 60 575 111<383 408 367 484>
VStem: 73 94<90.5 101> 91 94
AnchorPoint: "Bottom" 172 0 basechar 0
LayerCount: 2
Fore
SplineSet
472 601 m 1,0,-1
 416 451 l 1,1,-1
 364 451 l 1,2,-1
 408 575 l 1,3,-1
 367 575 l 1,4,-1
 383 686 l 1,5,-1
 484 686 l 1,6,-1
 472 601 l 1,0,-1
223 511 m 1,7,-1
 342 511 l 1,8,-1
 331 436 l 1,9,-1
 212 436 l 1,10,11
 196 335 196 335 189 283 c 2,12,-1
 181 225 l 2,13,14
 167 127 167 127 167 112 c 0,15,16
 167 63 167 63 217 63 c 0,17,18
 245 63 245 63 281 78 c 1,19,-1
 271 8 l 1,20,21
 233 -10 233 -10 179.5 -10 c 0,22,23
 126 -10 126 -10 99.5 14.5 c 128,-1,24
 73 39 73 39 73 93 c 0,25,26
 73 118 73 118 87 221 c 2,27,-1
 95 281 l 2,28,29
 101 330 101 330 118 436 c 1,30,-1
 62 436 l 1,31,-1
 73 511 l 1,32,-1
 128 511 l 1,33,-1
 150 674 l 1,34,-1
 253 674 l 1,35,-1
 223 511 l 1,7,-1
EndSplineSet
EndChar

StartChar: tcedilla
Encoding: 355 355 183
Width: 344
GlyphClass: 2
Flags: MW
HStem: -197 51<138 173 135.5 177> -60 43<159 174 153 183> -10 73<145.5 224.5> 436 75<73 118 62 128 223 331>
VStem: 73 94<90.5 101> 91 94 220 63<-113 -83.5>
AnchorPoint: "Bottom" 172 0 basechar 0
LayerCount: 2
Fore
SplineSet
223 511 m 1,0,-1
 342 511 l 1,1,-1
 331 436 l 1,2,-1
 212 436 l 1,3,4
 196 335 196 335 189 283 c 2,5,-1
 181 225 l 2,6,7
 167 127 167 127 167 112 c 0,8,9
 167 63 167 63 217 63 c 0,10,11
 245 63 245 63 281 78 c 1,12,-1
 271 8 l 1,13,14
 233 -10 233 -10 179.5 -10 c 128,-1,15
 126 -10 126 -10 99.5 14.5 c 128,-1,16
 73 39 73 39 73 93 c 0,17,18
 73 118 73 118 87 221 c 2,19,-1
 95 281 l 2,20,21
 101 330 101 330 118 436 c 1,22,-1
 62 436 l 1,23,-1
 73 511 l 1,24,-1
 128 511 l 1,25,-1
 150 674 l 1,26,-1
 253 674 l 1,27,-1
 223 511 l 1,0,-1
159 -17 m 1,28,-1
 183 -17 l 2,29,30
 283 -17 283 -17 283 -90 c 0,31,32
 283 -130 283 -130 259 -155.5 c 0,33,34
 219.941176471 -197 219.941176471 -197 159.470588235 -197 c 128,-1,35
 99 -197 99 -197 62 -175 c 1,36,-1
 78 -126 l 1,37,38
 114 -146 114 -146 148.5 -146 c 0,39,40
 220 -146 220 -146 220 -95 c 0,41,42
 220 -60 220 -60 174 -60 c 2,43,-1
 153 -60 l 1,44,-1
 159 -17 l 1,28,-1
EndSplineSet
EndChar

StartChar: tcommaaccent
Encoding: 539 539 184
Width: 344
GlyphClass: 2
Flags: MW
HStem: -151 111<115 140 99 216> -10 73<145.5 224.5> 436 75<73 118 62 128 223 331>
VStem: 73 94<90.5 101> 91 94
AnchorPoint: "Bottom" 172 0 basechar 0
LayerCount: 2
Fore
SplineSet
223 511 m 1,0,-1
 342 511 l 1,1,-1
 331 436 l 1,2,-1
 212 436 l 1,3,4
 196 335 196 335 189 283 c 2,5,-1
 181 225 l 2,6,7
 167 127 167 127 167 112 c 0,8,9
 167 63 167 63 217 63 c 0,10,11
 245 63 245 63 281 78 c 1,12,-1
 271 8 l 1,13,14
 233 -10 233 -10 179.5 -10 c 0,15,16
 126 -10 126 -10 99.5 14.5 c 128,-1,17
 73 39 73 39 73 93 c 0,18,19
 73 118 73 118 87 221 c 2,20,-1
 95 281 l 2,21,22
 101 330 101 330 118 436 c 1,23,-1
 62 436 l 1,24,-1
 73 511 l 1,25,-1
 128 511 l 1,26,-1
 150 674 l 1,27,-1
 253 674 l 1,28,-1
 223 511 l 1,0,-1
204 -125 m 1,29,-1
 157 -250 l 1,30,-1
 104 -250 l 1,31,-1
 140 -151 l 1,32,-1
 99 -151 l 1,33,-1
 115 -40 l 1,34,-1
 216 -40 l 1,35,-1
 204 -125 l 1,29,-1
EndSplineSet
EndChar

StartChar: u
Encoding: 117 117 185
Width: 617
GlyphClass: 2
Flags: MW
HStem: -10 75<220 253.5> 491 20G<109 203 203 203 447 541 541 541>
VStem: 58 97<122.5 148> 391 91<64 92 74 92>
LayerCount: 2
Fore
SplineSet
541 511 m 1,0,-1
 511 304 l 2,1,2
 481 95 481 95 482 92 c 0,3,4
 482 65 482 65 506.5 65 c 0,5,6
 531 65 531 65 553 79 c 1,7,-1
 544 10 l 1,8,9
 512 -10 512 -10 467 -10 c 0,10,11
 391 -10 391 -10 391 64 c 2,12,-1
 391 74 l 1,13,14
 360 39 360 39 314 14.5 c 128,-1,15
 268 -10 268 -10 206 -10 c 0,16,17
 144 -10 144 -10 101 25 c 128,-1,18
 58 60 58 60 58 131 c 0,19,20
 58 170 58 170 109 511 c 1,21,-1
 203 511 l 1,22,-1
 179 346 l 2,23,24
 154 180 154 180 155 155 c 0,25,26
 155 65 155 65 248 65 c 0,27,28
 301 65 301 65 347.5 106.5 c 128,-1,29
 394 148 394 148 404 207 c 1,30,-1
 447 511 l 1,31,-1
 541 511 l 1,0,-1
EndSplineSet
EndChar

StartChar: uacute
Encoding: 250 250 186
Width: 617
GlyphClass: 2
Flags: MW
HStem: -10 75<220 253.5> 491 20G<109 203 203 203 447 541 541 541> 575 145<292 497 292 497>
VStem: 58 97<122.5 148> 391 91<64 92 74 92>
LayerCount: 2
Fore
SplineSet
497 716 m 1,0,-1
 361 575 l 1,1,-1
 292 575 l 1,2,-1
 407 720 l 1,3,-1
 497 720 l 1,4,-1
 497 716 l 1,0,-1
541 511 m 1,5,-1
 511 304 l 2,6,7
 481 95 481 95 482 92 c 0,8,9
 482 65 482 65 506.5 65 c 0,10,11
 531 65 531 65 553 79 c 1,12,-1
 544 10 l 1,13,14
 512 -10 512 -10 467 -10 c 0,15,16
 391 -10 391 -10 391 64 c 2,17,-1
 391 74 l 1,18,19
 360 39 360 39 314 14.5 c 128,-1,20
 268 -10 268 -10 206 -10 c 0,21,22
 144 -10 144 -10 101 25 c 128,-1,23
 58 60 58 60 58 131 c 0,24,25
 58 170 58 170 109 511 c 1,26,-1
 203 511 l 1,27,-1
 179 346 l 2,28,29
 154 180 154 180 155 155 c 0,30,31
 155 65 155 65 248 65 c 0,32,33
 301 65 301 65 347.5 106.5 c 128,-1,34
 394 148 394 148 404 207 c 1,35,-1
 447 511 l 1,36,-1
 541 511 l 1,5,-1
EndSplineSet
EndChar

StartChar: ucircumflex
Encoding: 251 251 187
Width: 617
GlyphClass: 2
Flags: MW
HStem: -10 75<220 253.5> 491 20G<109 203 203 203 447 541 541 541> 575 145<158 393 315 507 315 427> 664 56<346 346>
VStem: 58 97<122.5 148> 391 91<64 92 74 92>
LayerCount: 2
Fore
SplineSet
507 575 m 1,0,-1
 427 575 l 1,1,-1
 346 664 l 1,2,-1
 238 575 l 1,3,-1
 158 575 l 1,4,-1
 315 720 l 1,5,-1
 393 720 l 1,6,-1
 507 575 l 1,0,-1
541 511 m 1,7,-1
 511 304 l 2,8,9
 481 95 481 95 482 92 c 0,10,11
 482 65 482 65 506.5 65 c 0,12,13
 531 65 531 65 553 79 c 1,14,-1
 544 10 l 1,15,16
 512 -10 512 -10 467 -10 c 0,17,18
 391 -10 391 -10 391 64 c 2,19,-1
 391 74 l 1,20,21
 360 39 360 39 314 14.5 c 128,-1,22
 268 -10 268 -10 206 -10 c 0,23,24
 144 -10 144 -10 101 25 c 128,-1,25
 58 60 58 60 58 131 c 0,26,27
 58 170 58 170 109 511 c 1,28,-1
 203 511 l 1,29,-1
 179 346 l 2,30,31
 154 180 154 180 155 155 c 0,32,33
 155 65 155 65 248 65 c 0,34,35
 301 65 301 65 347.5 106.5 c 128,-1,36
 394 148 394 148 404 207 c 1,37,-1
 447 511 l 1,38,-1
 541 511 l 1,7,-1
EndSplineSet
EndChar

StartChar: udieresis
Encoding: 252 252 188
Width: 617
GlyphClass: 2
Flags: MW
HStem: -10 75<220 253.5> 491 20G<109 203 203 203 447 541 541 541> 622 98<208 285 195 298 208 383 396 474>
VStem: 58 97<122.5 148> 391 91<64 92 74 92>
LayerCount: 2
Fore
SplineSet
285 622 m 1,0,-1
 195 622 l 1,1,-1
 208 720 l 1,2,-1
 298 720 l 1,3,-1
 285 622 l 1,0,-1
474 622 m 1,4,-1
 383 622 l 1,5,-1
 396 720 l 1,6,-1
 487 720 l 1,7,-1
 474 622 l 1,4,-1
541 511 m 1,8,-1
 511 304 l 2,9,10
 481 95 481 95 482 92 c 0,11,12
 482 65 482 65 506.5 65 c 0,13,14
 531 65 531 65 553 79 c 1,15,-1
 544 10 l 1,16,17
 512 -10 512 -10 467 -10 c 0,18,19
 391 -10 391 -10 391 64 c 2,20,-1
 391 74 l 1,21,22
 360 39 360 39 314 14.5 c 128,-1,23
 268 -10 268 -10 206 -10 c 0,24,25
 144 -10 144 -10 101 25 c 128,-1,26
 58 60 58 60 58 131 c 0,27,28
 58 170 58 170 109 511 c 1,29,-1
 203 511 l 1,30,-1
 179 346 l 2,31,32
 154 180 154 180 155 155 c 0,33,34
 155 65 155 65 248 65 c 0,35,36
 301 65 301 65 347.5 106.5 c 128,-1,37
 394 148 394 148 404 207 c 1,38,-1
 447 511 l 1,39,-1
 541 511 l 1,8,-1
EndSplineSet
EndChar

StartChar: ugrave
Encoding: 249 249 189
Width: 617
GlyphClass: 2
Flags: MW
HStem: -10 75<220 253.5> 491 20G<109 203 203 203 447 541 541 541> 575 145<205 368 205 298>
VStem: 58 97<122.5 148> 391 91<64 92 74 92>
LayerCount: 2
Fore
SplineSet
368 575 m 1,0,-1
 298 575 l 1,1,-1
 203 717 l 1,2,-1
 205 720 l 1,3,-1
 294 720 l 1,4,-1
 368 575 l 1,0,-1
541 511 m 1,5,-1
 511 304 l 2,6,7
 481 95 481 95 482 92 c 0,8,9
 482 65 482 65 506.5 65 c 0,10,11
 531 65 531 65 553 79 c 1,12,-1
 544 10 l 1,13,14
 512 -10 512 -10 467 -10 c 0,15,16
 391 -10 391 -10 391 64 c 2,17,-1
 391 74 l 1,18,19
 360 39 360 39 314 14.5 c 128,-1,20
 268 -10 268 -10 206 -10 c 0,21,22
 144 -10 144 -10 101 25 c 128,-1,23
 58 60 58 60 58 131 c 0,24,25
 58 170 58 170 109 511 c 1,26,-1
 203 511 l 1,27,-1
 179 346 l 2,28,29
 154 180 154 180 155 155 c 0,30,31
 155 65 155 65 248 65 c 0,32,33
 301 65 301 65 347.5 106.5 c 128,-1,34
 394 148 394 148 404 207 c 1,35,-1
 447 511 l 1,36,-1
 541 511 l 1,5,-1
EndSplineSet
EndChar

StartChar: uhungarumlaut
Encoding: 369 369 190
Width: 617
GlyphClass: 2
Flags: MW
HStem: -10 75<220 253.5> 491 20G<109 203 203 203 447 541 541 541> 575 145<219 424 219 424 374 374 374 424 335 444>
VStem: 58 97<122.5 148> 391 91<64 92 74 92>
LayerCount: 2
Fore
SplineSet
424 715 m 1,0,-1
 289 575 l 1,1,-1
 219 575 l 1,2,-1
 335 720 l 1,3,-1
 424 720 l 1,4,-1
 424 715 l 1,0,-1
579 715 m 1,5,-1
 444 575 l 1,6,-1
 374 575 l 1,7,-1
 489 720 l 1,8,-1
 579 720 l 1,9,-1
 579 715 l 1,5,-1
541 511 m 1,10,-1
 511 304 l 2,11,12
 481 95 481 95 482 92 c 0,13,14
 482 65 482 65 506.5 65 c 0,15,16
 531 65 531 65 553 79 c 1,17,-1
 544 10 l 1,18,19
 512 -10 512 -10 467 -10 c 0,20,21
 391 -10 391 -10 391 64 c 2,22,-1
 391 74 l 1,23,24
 360 39 360 39 314 14.5 c 128,-1,25
 268 -10 268 -10 206 -10 c 0,26,27
 144 -10 144 -10 101 25 c 128,-1,28
 58 60 58 60 58 131 c 0,29,30
 58 170 58 170 109 511 c 1,31,-1
 203 511 l 1,32,-1
 179 346 l 2,33,34
 154 180 154 180 155 155 c 0,35,36
 155 65 155 65 248 65 c 0,37,38
 301 65 301 65 347.5 106.5 c 128,-1,39
 394 148 394 148 404 207 c 1,40,-1
 447 511 l 1,41,-1
 541 511 l 1,10,-1
EndSplineSet
EndChar

StartChar: umacron
Encoding: 363 363 191
Width: 617
GlyphClass: 2
Flags: MW
HStem: -10 75<220 253.5> 491 20G<109 203 203 203 447 541 541 541> 662 74<215 522 204 533>
VStem: 58 97<122.5 148> 391 91<64 92 74 92>
LayerCount: 2
Fore
SplineSet
522 662 m 1,0,-1
 204 662 l 1,1,-1
 215 736 l 1,2,-1
 533 736 l 1,3,-1
 522 662 l 1,0,-1
541 511 m 1,4,-1
 511 304 l 2,5,6
 481 95 481 95 482 92 c 0,7,8
 482 65 482 65 506.5 65 c 0,9,10
 531 65 531 65 553 79 c 1,11,-1
 544 10 l 1,12,13
 512 -10 512 -10 467 -10 c 0,14,15
 391 -10 391 -10 391 64 c 2,16,-1
 391 74 l 1,17,18
 360 39 360 39 314 14.5 c 128,-1,19
 268 -10 268 -10 206 -10 c 0,20,21
 144 -10 144 -10 101 25 c 128,-1,22
 58 60 58 60 58 131 c 0,23,24
 58 170 58 170 109 511 c 1,25,-1
 203 511 l 1,26,-1
 179 346 l 2,27,28
 154 180 154 180 155 155 c 0,29,30
 155 65 155 65 248 65 c 0,31,32
 301 65 301 65 347.5 106.5 c 128,-1,33
 394 148 394 148 404 207 c 1,34,-1
 447 511 l 1,35,-1
 541 511 l 1,4,-1
EndSplineSet
EndChar

StartChar: uogonek
Encoding: 371 371 192
Width: 617
GlyphClass: 2
Flags: MW
HStem: -143 47<497.5 507.5> -10 75<220 253.5> 491 20G<109 203 203 203 447 541 541 541>
VStem: 58 97<122.5 148> 391 91<64 92 74 92> 404 63<-76.5 -66.5>
LayerCount: 2
Fore
SplineSet
576 -82 m 1,0,-1
 584 -119 l 1,1,2
 540.5 -143 540.5 -143 497.25 -143 c 0,3,4
 404 -143 404 -143 404 -83 c 0,5,6
 404 -42 404 -42 454 -9 c 1,7,8
 391 -4 391 -4 391 64 c 2,9,-1
 391 74 l 1,10,11
 360 39 360 39 314 14.5 c 128,-1,12
 268 -10 268 -10 206 -10 c 128,-1,13
 144 -10 144 -10 101 25 c 128,-1,14
 58 60 58 60 58 131 c 0,15,16
 58 170 58 170 109 511 c 1,17,-1
 203 511 l 1,18,-1
 179 346 l 2,19,20
 154 180 154 180 155 155 c 0,21,22
 155 65 155 65 248 65 c 0,23,24
 301 65 301 65 347.5 106.5 c 128,-1,25
 394 148 394 148 404 207 c 1,26,-1
 447 511 l 1,27,-1
 541 511 l 1,28,-1
 511 304 l 2,29,30
 481 95 481 95 482 92 c 0,31,32
 482 65 482 65 506.5 65 c 128,-1,33
 531 65 531 65 553 79 c 1,34,-1
 544 10 l 1,35,36
 533 3 533 3 517.5 -3 c 128,-1,37
 502 -9 502 -9 484.5 -28 c 128,-1,38
 467 -47 467 -47 467 -65 c 0,39,40
 467 -96 467 -96 507 -96 c 0,41,42
 530 -96 530 -96 576 -82 c 1,0,-1
EndSplineSet
EndChar

StartChar: uring
Encoding: 367 367 193
Width: 617
GlyphClass: 2
Flags: MW
HStem: -10 75<220 253.5> 491 20G<109 203 203 203 447 541 541 541> 545 41<330 361.5 330 371> 706 41<337 369>
VStem: 58 97<122.5 148> 247 45<626.5 660.5 626.5 671> 391 91<64 92 74 92> 407 45<632 665.5>
LayerCount: 2
Fore
SplineSet
280 716 m 128,-1,1
 313 747 313 747 355.5 747 c 128,-1,2
 398 747 398 747 425 720.5 c 128,-1,3
 452 694 452 694 452 651.5 c 128,-1,4
 452 609 452 609 419 577 c 128,-1,5
 386 545 386 545 343.5 545 c 128,-1,6
 301 545 301 545 274 571 c 128,-1,7
 247 597 247 597 247 641 c 128,-1,0
 247 685 247 685 280 716 c 128,-1,1
392 690 m 128,-1,9
 377 706 377 706 352.5 706 c 128,-1,10
 328 706 328 706 310 687.5 c 128,-1,11
 292 669 292 669 292 643.5 c 128,-1,12
 292 618 292 618 307 602 c 128,-1,13
 322 586 322 586 346 586 c 128,-1,14
 370 586 370 586 388.5 605 c 128,-1,15
 407 624 407 624 407 649 c 128,-1,8
 407 674 407 674 392 690 c 128,-1,9
541 511 m 1,16,-1
 511 304 l 2,17,18
 481 95 481 95 482 92 c 0,19,20
 482 65 482 65 506.5 65 c 128,-1,21
 531 65 531 65 553 79 c 1,22,-1
 544 10 l 1,23,24
 512 -10 512 -10 467 -10 c 0,25,26
 391 -10 391 -10 391 64 c 2,27,-1
 391 74 l 1,28,29
 360 39 360 39 314 14.5 c 128,-1,30
 268 -10 268 -10 206 -10 c 128,-1,31
 144 -10 144 -10 101 25 c 128,-1,32
 58 60 58 60 58 131 c 0,33,34
 58 170 58 170 109 511 c 1,35,-1
 203 511 l 1,36,-1
 179 346 l 2,37,38
 154 180 154 180 155 155 c 0,39,40
 155 65 155 65 248 65 c 0,41,42
 301 65 301 65 347.5 106.5 c 128,-1,43
 394 148 394 148 404 207 c 1,44,-1
 447 511 l 1,45,-1
 541 511 l 1,16,-1
EndSplineSet
EndChar

StartChar: v
Encoding: 118 118 194
Width: 512
GlyphClass: 2
Flags: MW
HStem: 0 120<233 237 233 265 165 237> 491 20G<43 142 142 142 438 530 530 530>
VStem: 43 487<511 511>
LayerCount: 2
Fore
SplineSet
265 0 m 1,0,-1
 165 0 l 1,1,-1
 43 511 l 1,2,-1
 142 511 l 1,3,-1
 233 120 l 1,4,-1
 237 120 l 1,5,-1
 438 511 l 1,6,-1
 530 511 l 1,7,-1
 265 0 l 1,0,-1
EndSplineSet
EndChar

StartChar: w
Encoding: 119 119 195
Width: 809
GlyphClass: 2
Flags: MW
HStem: 0 137<213 217 213 244 146 217 549 553> 357 154<410 414 410 410> 491 20G<50 146 146 146 390 482 482 482 726 818 818 818>
VStem: 50 768<511 511>
LayerCount: 2
Fore
SplineSet
580 0 m 1,0,-1
 482 0 l 1,1,-1
 414 357 l 1,2,-1
 410 357 l 1,3,-1
 244 0 l 1,4,-1
 146 0 l 1,5,-1
 50 511 l 1,6,-1
 146 511 l 1,7,-1
 213 137 l 1,8,-1
 217 137 l 1,9,-1
 390 511 l 1,10,-1
 482 511 l 1,11,-1
 549 137 l 1,12,-1
 553 137 l 1,13,-1
 726 511 l 1,14,-1
 818 511 l 1,15,-1
 580 0 l 1,0,-1
EndSplineSet
EndChar

StartChar: x
Encoding: 120 120 196
Width: 517
GlyphClass: 2
Flags: MW
HStem: 491 20G<58 169 169 169 418 521 521 521>
VStem: -23 544<0 511>
LayerCount: 2
Fore
SplineSet
308 265 m 1,0,-1
 459 0 l 1,1,-1
 347 0 l 1,2,-1
 240 187 l 1,3,-1
 79 0 l 1,4,-1
 -23 0 l 1,5,-1
 200 259 l 1,6,-1
 58 511 l 1,7,-1
 169 511 l 1,8,-1
 268 337 l 1,9,-1
 418 511 l 1,10,-1
 521 511 l 1,11,-1
 308 265 l 1,0,-1
EndSplineSet
EndChar

StartChar: y
Encoding: 121 121 197
Width: 510
GlyphClass: 2
Flags: MW
HStem: -186 77<38.5 61 38.5 98.5> 491 20G<42 141 141 141 437 529 529 529>
VStem: -19 548
LayerCount: 2
Fore
SplineSet
529 511 m 1,0,-1
 269 20 l 2,1,2
 217 -78 217 -78 166.5 -132 c 128,-1,3
 116 -186 116 -186 52 -186 c 0,4,5
 11 -186 11 -186 -19 -172 c 1,6,-1
 -9 -95 l 1,7,8
 17 -109 17 -109 49 -109 c 0,9,10
 118 -109 118 -109 169 5 c 1,11,-1
 42 511 l 1,12,-1
 141 511 l 1,13,-1
 235 134 l 1,14,-1
 239 134 l 1,15,-1
 437 511 l 1,16,-1
 529 511 l 1,0,-1
EndSplineSet
EndChar

StartChar: yacute
Encoding: 253 253 198
Width: 510
GlyphClass: 2
Flags: MW
HStem: -186 77<38.5 61 38.5 98.5> 491 20G<42 141 141 141 437 529 529 529> 575 145<254 459 254 459>
VStem: -19 548
LayerCount: 2
Fore
SplineSet
459 716 m 1,0,-1
 323 575 l 1,1,-1
 254 575 l 1,2,-1
 369 720 l 1,3,-1
 459 720 l 1,4,-1
 459 716 l 1,0,-1
529 511 m 1,5,-1
 269 20 l 2,6,7
 217 -78 217 -78 166.5 -132 c 128,-1,8
 116 -186 116 -186 52 -186 c 0,9,10
 11 -186 11 -186 -19 -172 c 1,11,-1
 -9 -95 l 1,12,13
 17 -109 17 -109 49 -109 c 0,14,15
 118 -109 118 -109 169 5 c 1,16,-1
 42 511 l 1,17,-1
 141 511 l 1,18,-1
 235 134 l 1,19,-1
 239 134 l 1,20,-1
 437 511 l 1,21,-1
 529 511 l 1,5,-1
EndSplineSet
EndChar

StartChar: ydieresis
Encoding: 255 255 199
Width: 510
GlyphClass: 2
Flags: MW
HStem: -186 77<38.5 61 38.5 98.5> 491 20G<42 141 141 141 437 529 529 529> 621 98<170 247 157 260 170 345 358 436>
VStem: -19 548
LayerCount: 2
Fore
SplineSet
247 621 m 1,0,-1
 157 621 l 1,1,-1
 170 719 l 1,2,-1
 260 719 l 1,3,-1
 247 621 l 1,0,-1
436 621 m 1,4,-1
 345 621 l 1,5,-1
 358 719 l 1,6,-1
 449 719 l 1,7,-1
 436 621 l 1,4,-1
529 511 m 1,8,-1
 269 20 l 2,9,10
 217 -78 217 -78 166.5 -132 c 128,-1,11
 116 -186 116 -186 52 -186 c 0,12,13
 11 -186 11 -186 -19 -172 c 1,14,-1
 -9 -95 l 1,15,16
 17 -109 17 -109 49 -109 c 0,17,18
 118 -109 118 -109 169 5 c 1,19,-1
 42 511 l 1,20,-1
 141 511 l 1,21,-1
 235 134 l 1,22,-1
 239 134 l 1,23,-1
 437 511 l 1,24,-1
 529 511 l 1,8,-1
EndSplineSet
EndChar

StartChar: z
Encoding: 122 122 200
Width: 463
GlyphClass: 2
Flags: MW
HStem: 0 75<135 383> 436 75<82 306 72 446>
VStem: -4 450
LayerCount: 2
Fore
SplineSet
441 474 m 1,0,-1
 135 75 l 1,1,-1
 393 75 l 1,2,-1
 383 0 l 1,3,-1
 -4 0 l 1,4,-1
 1 38 l 1,5,-1
 306 436 l 1,6,-1
 72 436 l 1,7,-1
 82 511 l 1,8,-1
 446 511 l 1,9,-1
 441 474 l 1,0,-1
EndSplineSet
EndChar

StartChar: zacute
Encoding: 378 378 201
Width: 463
GlyphClass: 2
Flags: MW
HStem: 0 75<135 383> 436 75<82 306 72 446> 575 145<199 404 199 404>
VStem: -4 450
LayerCount: 2
Fore
SplineSet
404 716 m 1,0,-1
 268 575 l 1,1,-1
 199 575 l 1,2,-1
 314 720 l 1,3,-1
 404 720 l 1,4,-1
 404 716 l 1,0,-1
441 474 m 1,5,-1
 135 75 l 1,6,-1
 393 75 l 1,7,-1
 383 0 l 1,8,-1
 -4 0 l 1,9,-1
 1 38 l 1,10,-1
 306 436 l 1,11,-1
 72 436 l 1,12,-1
 82 511 l 1,13,-1
 446 511 l 1,14,-1
 441 474 l 1,5,-1
EndSplineSet
EndChar

StartChar: zcaron
Encoding: 382 382 202
Width: 463
GlyphClass: 2
Flags: MW
HStem: 0 75<135 383> 436 75<82 306 72 446> 575 145<102 295 102 217>
VStem: -4 455
LayerCount: 2
Fore
SplineSet
295 575 m 1,0,-1
 217 575 l 1,1,-1
 102 720 l 1,2,-1
 182 720 l 1,3,-1
 264 631 l 1,4,-1
 371 720 l 1,5,-1
 451 720 l 1,6,-1
 295 575 l 1,0,-1
441 474 m 1,7,-1
 135 75 l 1,8,-1
 393 75 l 1,9,-1
 383 0 l 1,10,-1
 -4 0 l 1,11,-1
 1 38 l 1,12,-1
 306 436 l 1,13,-1
 72 436 l 1,14,-1
 82 511 l 1,15,-1
 446 511 l 1,16,-1
 441 474 l 1,7,-1
EndSplineSet
EndChar

StartChar: zdotaccent
Encoding: 380 380 203
Width: 463
GlyphClass: 2
Flags: MW
HStem: 0 75<135 383> 436 75<82 306 72 446> 604 132<266.5 292.5>
VStem: 215 133<657.5 679.5>
LayerCount: 2
Fore
SplineSet
235.5 713.5 m 128,-1,1
 256 736 256 736 286 736 c 128,-1,2
 316 736 316 736 332 719 c 128,-1,3
 348 702 348 702 348 674.5 c 128,-1,4
 348 647 348 647 325.5 625.5 c 128,-1,5
 303 604 303 604 275 604 c 128,-1,6
 247 604 247 604 231 619.5 c 128,-1,7
 215 635 215 635 215 663 c 128,-1,0
 215 691 215 691 235.5 713.5 c 128,-1,1
441 474 m 1,8,-1
 135 75 l 1,9,-1
 393 75 l 1,10,-1
 383 0 l 1,11,-1
 -4 0 l 1,12,-1
 1 38 l 1,13,-1
 306 436 l 1,14,-1
 72 436 l 1,15,-1
 82 511 l 1,16,-1
 446 511 l 1,17,-1
 441 474 l 1,8,-1
EndSplineSet
EndChar

StartChar: fi
Encoding: 64257 64257 204
Width: 602
GlyphClass: 3
Flags: MW
HStem: -184 74<-10 2 -18.5 40.5> 436 75<76 125 66 134 227 338> 633 87<485 571 473 583> 654 74<290.5 304 252 312.5> 708 20G<252 304>
VStem: -80 663
LayerCount: 2
Fore
SplineSet
290 728 m 0,0,1
 342 728 342 728 374 709 c 1,2,-1
 365 640 l 1,3,4
 335 654 335 654 311.5 654 c 0,5,6
 288 654 288 654 276.5 650.5 c 128,-1,7
 265 647 265 647 254 632 c 128,-1,8
 243 617 243 617 239 590 c 2,9,-1
 227 511 l 1,10,-1
 347 511 l 1,11,-1
 338 436 l 1,12,-1
 218 436 l 1,13,-1
 147 -58 l 2,14,15
 138 -122 138 -122 100 -153 c 128,-1,16
 62 -184 62 -184 6 -184 c 0,17,18
 -50 -184 -50 -184 -80 -165 c 1,19,-1
 -72 -96 l 1,20,21
 -42 -110 -42 -110 -18.5 -110 c 0,22,23
 5 -110 5 -110 16 -106.5 c 128,-1,24
 27 -103 27 -103 38.5 -88 c 128,-1,25
 50 -73 50 -73 54 -46 c 2,26,-1
 125 436 l 1,27,-1
 66 436 l 1,28,-1
 76 511 l 1,29,-1
 134 511 l 1,30,-1
 147 602 l 2,31,32
 165 728 165 728 290 728 c 0,0,1
571 633 m 1,33,-1
 473 633 l 1,34,-1
 485 720 l 1,35,-1
 583 720 l 1,36,-1
 571 633 l 1,33,-1
480 0 m 1,37,-1
 386 0 l 1,38,-1
 458 511 l 1,39,-1
 552 511 l 1,40,-1
 480 0 l 1,37,-1
EndSplineSet
Ligature2: "'liga' Standard Ligatures lookup 4 subtable" f i
EndChar

StartChar: fl
Encoding: 64258 64258 205
Width: 608
GlyphClass: 3
Flags: MW
HStem: -184 74<-10 2 -18.5 40.5> 436 75<76 125 66 134 227 338> 654 74<290.5 304 252 312.5> 700 20G<487 581 581 581> 708 20G<252 304>
VStem: -80 661
LayerCount: 2
Fore
SplineSet
290 728 m 0,0,1
 342 728 342 728 374 709 c 1,2,-1
 365 640 l 1,3,4
 335 654 335 654 311.5 654 c 0,5,6
 288 654 288 654 276.5 650.5 c 128,-1,7
 265 647 265 647 254 632 c 128,-1,8
 243 617 243 617 239 590 c 2,9,-1
 227 511 l 1,10,-1
 347 511 l 1,11,-1
 338 436 l 1,12,-1
 218 436 l 1,13,-1
 147 -58 l 2,14,15
 138 -122 138 -122 100 -153 c 128,-1,16
 62 -184 62 -184 6 -184 c 0,17,18
 -50 -184 -50 -184 -80 -165 c 1,19,-1
 -72 -96 l 1,20,21
 -42 -110 -42 -110 -18.5 -110 c 0,22,23
 5 -110 5 -110 16 -106.5 c 128,-1,24
 27 -103 27 -103 38.5 -88 c 128,-1,25
 50 -73 50 -73 54 -46 c 2,26,-1
 125 436 l 1,27,-1
 66 436 l 1,28,-1
 76 511 l 1,29,-1
 134 511 l 1,30,-1
 147 602 l 2,31,32
 165 728 165 728 290 728 c 0,0,1
480 0 m 1,33,-1
 386 0 l 1,34,-1
 487 720 l 1,35,-1
 581 720 l 1,36,-1
 480 0 l 1,33,-1
EndSplineSet
Ligature2: "'liga' Standard Ligatures lookup 4 subtable" f l
EndChar

StartChar: ordfeminine
Encoding: 170 170 206
Width: 419
GlyphClass: 2
Flags: MW
HStem: 373 45<186 210.5> 650 46<198 251.5 190.5 258> 670 20G<341 380 380 380>
VStem: 83 57<466.5 526.5 466.5 560> 289 96.5
LayerCount: 2
Fore
SplineSet
125.5 642.5 m 128,-1,1
 168 696 168 696 229.5 696 c 128,-1,2
 291 696 291 696 317 650 c 1,3,-1
 322 650 l 1,4,-1
 341 690 l 1,5,-1
 380 690 l 1,6,7
 345 452 345 452 345 435 c 128,-1,8
 345 418 345 418 358.5 418 c 128,-1,9
 372 418 372 418 388 427 c 1,10,-1
 383 385 l 1,11,12
 364 373 364 373 336 373 c 0,13,14
 289 373 289 373 289 418 c 1,15,16
 246 373 246 373 193.5 373 c 128,-1,17
 141 373 141 373 112 403.5 c 128,-1,18
 83 434 83 434 83 494 c 0,19,0
 83 589 83 589 125.5 642.5 c 128,-1,1
238 650 m 0,20,21
 201 650 201 650 177.5 623 c 128,-1,22
 154 596 154 596 147 564 c 128,-1,23
 140 532 140 532 140 496 c 0,24,25
 140 418 140 418 206 418 c 0,26,27
 255 418 255 418 280 461 c 128,-1,28
 305 504 305 504 305 572 c 0,29,30
 305 650 305 650 238 650 c 0,20,21
EndSplineSet
EndChar

